<svg width="25" height="25" viewBox="0 0 25 25" fill="none" xmlns="http://www.w3.org/2000/svg">
    <path d="M22.75 22.5H2.75C2.61614 22.5 2.5 22.3839 2.5 22.25C2.5 22.1161 2.61614 22 2.75 22H22.75C22.8839 22 23 22.1161 23 22.25C23 22.3839 22.8839 22.5 22.75 22.5Z" fill="#B7B6BD" stroke="#B7B6BD"/>
    <path d="M10.75 21.5V22H11.25H14.25H14.75V21.5V4.25C14.75 3.61259 14.6019 3.11997 14.2399 2.8126C13.8923 2.51749 13.4632 2.5 13.2 2.5H12.3C12.0368 2.5 11.6077 2.51749 11.2601 2.8126C10.8981 3.11997 10.75 3.61259 10.75 4.25V21.5ZM15 22.5H10.5C10.3661 22.5 10.25 22.3839 10.25 22.25V4.25C10.25 3.47917 10.462 2.92593 10.7919 2.5697C11.117 2.21853 11.6109 2 12.3 2H13.2C13.8891 2 14.383 2.21853 14.7081 2.5697C15.038 2.92593 15.25 3.47917 15.25 4.25V22.25C15.25 22.3839 15.1339 22.5 15 22.5Z" fill="#B7B6BD" stroke="#B7B6BD"/>
    <path d="M4 21.5V22H4.5H7H7.5V21.5V10.25C7.5 9.57376 7.35473 9.08169 7.02051 8.78328C6.70081 8.49783 6.31887 8.49935 6.16799 8.49995C6.16157 8.49998 6.15556 8.5 6.15 8.5H5.35C5.34444 8.5 5.33843 8.49998 5.33201 8.49995C5.18113 8.49935 4.79919 8.49783 4.47949 8.78328C4.14527 9.08169 4 9.57376 4 10.25V21.5ZM7.75 22.5H3.75C3.61614 22.5 3.5 22.3839 3.5 22.25V10.25C3.5 9.47 3.69958 8.91093 4.00387 8.55482C4.29948 8.20887 4.7397 8 5.35 8H6.15C6.7603 8 7.20052 8.20887 7.49613 8.55482C7.80042 8.91093 8 9.47 8 10.25V22.25C8 22.3839 7.88386 22.5 7.75 22.5Z" fill="#B7B6BD" stroke="#B7B6BD"/>
    <path d="M18 21.5V22H18.5H21H21.5V21.5V15.25C21.5 14.5738 21.3547 14.0817 21.0205 13.7833C20.7008 13.4978 20.3189 13.4994 20.168 13.5C20.1616 13.5 20.1556 13.5 20.15 13.5H19.35C19.3444 13.5 19.3384 13.5 19.332 13.5C19.1811 13.4994 18.7992 13.4978 18.4795 13.7833C18.1453 14.0817 18 14.5738 18 15.25V21.5ZM21.75 22.5H17.75C17.6161 22.5 17.5 22.3839 17.5 22.25V15.25C17.5 14.47 17.6996 13.9109 18.0039 13.5548C18.2995 13.2089 18.7397 13 19.35 13H20.15C20.7603 13 21.2005 13.2089 21.4961 13.5548C21.8004 13.9109 22 14.47 22 15.25V22.25C22 22.3839 21.8839 22.5 21.75 22.5Z" fill="#B7B6BD" stroke="#B7B6BD"/>
</svg>
