<svg width="24" height="18" viewBox="0 0 24 18" fill="none" xmlns="http://www.w3.org/2000/svg">
    <path d="M0 0.999999C0 0.558171 0.358172 0.199999 0.8 0.199999H23.2C23.6418 0.199999 24 0.558171 24 0.999999C24 1.44183 23.6418 1.8 23.2 1.8H0.800001C0.358173 1.8 0 1.44183 0 0.999999Z" fill="#ED1C24"/>
    <path d="M0 9C0 8.55817 0.358172 8.2 0.8 8.2H23.2C23.6418 8.2 24 8.55817 24 9C24 9.44183 23.6418 9.8 23.2 9.8H0.800001C0.358173 9.8 0 9.44183 0 9Z" fill="#ED1C24"/>
    <path d="M0 17C0 16.5582 0.358172 16.2 0.8 16.2H23.2C23.6418 16.2 24 16.5582 24 17C24 17.4418 23.6418 17.8 23.2 17.8H0.800001C0.358173 17.8 0 17.4418 0 17Z" fill="#ED1C24"/>
</svg>
