<svg width="38" height="31" viewBox="0 0 38 31" fill="none" xmlns="http://www.w3.org/2000/svg">
    <path d="M32.9825 0.00244141H4.705C3.48243 0.0037649 2.31031 0.490017 1.44582 1.35451C0.581325 2.219 0.0950735 3.39112 0.09375 4.61369V25.3912C0.0950735 26.6138 0.581325 27.7859 1.44582 28.6504C2.31031 29.5149 3.48243 30.0011 4.705 30.0024H32.9825C34.2051 30.0011 35.3772 29.5149 36.2417 28.6504C37.1062 27.7859 37.5924 26.6138 37.5938 25.3912V4.61369C37.5924 3.39112 37.1062 2.219 36.2417 1.35451C35.3772 0.490017 34.2051 0.0037649 32.9825 0.00244141ZM4.705 2.50244H32.9825C33.5422 2.5031 34.0789 2.72575 34.4746 3.12154C34.8704 3.51734 35.0931 4.05396 35.0938 4.61369V5.56994L18.8438 16.0162L2.59375 5.56994V4.61369C2.59441 4.05396 2.81706 3.51734 3.21285 3.12154C3.60864 2.72575 4.14527 2.5031 4.705 2.50244ZM32.9825 27.5024H4.705C4.14527 27.5018 3.60864 27.2791 3.21285 26.8833C2.81706 26.4875 2.59441 25.9509 2.59375 25.3912V8.54244L18.1675 18.5537C18.3692 18.6834 18.6039 18.7524 18.8438 18.7524C19.0836 18.7524 19.3183 18.6834 19.52 18.5537L35.0938 8.54244V25.3912C35.0931 25.9509 34.8704 26.4875 34.4746 26.8833C34.0789 27.2791 33.5422 27.5018 32.9825 27.5024Z" fill="white"/>
</svg>
