<svg width="38" height="38" viewBox="0 0 38 38" fill="none" xmlns="http://www.w3.org/2000/svg">
    <path d="M36.3875 27.2449C36.3213 27.1899 28.8263 21.8499 26.8025 22.1837C25.8263 22.3562 25.2688 23.0224 24.15 24.3549C23.97 24.5699 23.5362 25.0837 23.2013 25.4499C22.4942 25.2196 21.8045 24.9389 21.1375 24.6099C17.6944 22.9337 14.9125 20.1518 13.2362 16.7087C12.9073 16.0417 12.6266 15.352 12.3962 14.6449C12.7638 14.3087 13.2788 13.8749 13.4987 13.6899C14.825 12.5774 15.49 12.0187 15.6625 11.0412C16.0162 9.01744 10.6562 1.52494 10.6012 1.45744C10.3572 1.11126 10.0392 0.823597 9.67046 0.615212C9.30168 0.406828 8.89124 0.282923 8.46875 0.252441C6.29625 0.252441 0.09375 8.29744 0.09375 9.65369C0.09375 9.73244 0.2075 17.7374 10.0787 27.7787C20.1087 37.6387 28.1138 37.7524 28.1925 37.7524C29.5475 37.7524 37.5938 31.5499 37.5938 29.3774C37.563 28.9549 37.4388 28.5444 37.2302 28.1757C37.0216 27.8069 36.7338 27.489 36.3875 27.2449ZM28.0537 35.2449C26.9688 35.1524 20.2437 34.2662 11.8438 26.0149C3.5525 17.5737 2.68875 10.8374 2.6025 9.79369C4.24097 7.222 6.21974 4.88372 8.485 2.84244C8.535 2.89244 8.60125 2.96744 8.68625 3.06494C10.4235 5.43648 11.9201 7.97528 13.1537 10.6437C12.7526 11.0473 12.3285 11.4275 11.8837 11.7824C11.194 12.308 10.5606 12.9037 9.99375 13.5599C9.89784 13.6945 9.82956 13.8468 9.79287 14.0079C9.75618 14.169 9.7518 14.3359 9.78 14.4987C10.0445 15.6446 10.4497 16.7534 10.9862 17.7999C12.9086 21.7475 16.0985 24.9369 20.0462 26.8587C21.0926 27.396 22.2014 27.8016 23.3475 28.0662C23.5103 28.0944 23.6771 28.09 23.8383 28.0533C23.9994 28.0166 24.1517 27.9484 24.2863 27.8524C24.9448 27.2833 25.5426 26.6474 26.07 25.9549C26.4625 25.4874 26.9862 24.8637 27.185 24.6874C29.8602 25.9199 32.4047 27.4183 34.78 29.1599C34.8838 29.2474 34.9575 29.3149 35.0062 29.3587C32.9649 31.6247 30.6261 33.6039 28.0537 35.2424V35.2449Z" fill="white"/>
    <path d="M20.0938 10.2524C22.0823 10.2544 23.9888 11.0452 25.3949 12.4513C26.801 13.8574 27.5918 15.7639 27.5938 17.7524C27.5938 18.084 27.7254 18.4019 27.9599 18.6363C28.1943 18.8707 28.5122 19.0024 28.8438 19.0024C29.1753 19.0024 29.4932 18.8707 29.7276 18.6363C29.9621 18.4019 30.0938 18.084 30.0938 17.7524C30.0908 15.1012 29.0362 12.5594 27.1615 10.6847C25.2868 8.80994 22.745 7.75542 20.0938 7.75244C19.7622 7.75244 19.4443 7.88414 19.2099 8.11856C18.9754 8.35298 18.8438 8.67092 18.8438 9.00244C18.8438 9.33396 18.9754 9.6519 19.2099 9.88632C19.4443 10.1207 19.7622 10.2524 20.0938 10.2524Z" fill="white"/>
    <path d="M20.0938 4.00244C23.7392 4.00674 27.234 5.45678 29.8117 8.03447C32.3894 10.6122 33.8394 14.107 33.8438 17.7524C33.8438 18.084 33.9754 18.4019 34.2099 18.6363C34.4443 18.8707 34.7622 19.0024 35.0938 19.0024C35.4253 19.0024 35.7432 18.8707 35.9776 18.6363C36.2121 18.4019 36.3438 18.084 36.3438 17.7524C36.3388 13.4442 34.6251 9.31383 31.5788 6.26744C28.5324 3.22105 24.402 1.5074 20.0938 1.50244C19.7622 1.50244 19.4443 1.63414 19.2099 1.86856C18.9754 2.10298 18.8438 2.42092 18.8438 2.75244C18.8438 3.08396 18.9754 3.4019 19.2099 3.63632C19.4443 3.87075 19.7622 4.00244 20.0938 4.00244Z" fill="white"/>
</svg>
