<svg width="25" height="25" viewBox="0 0 25 25" fill="none" xmlns="http://www.w3.org/2000/svg">
    <path d="M21.25 11.55V7.29001C21.25 3.26001 20.31 2.25 16.53 2.25H8.97C5.19 2.25 4.25 3.26001 4.25 7.29001V18.55C4.25 21.21 5.71001 21.84 7.48001 19.94L7.48999 19.93C8.30999 19.06 9.55999 19.13 10.27 20.08L11.28 21.43" stroke="#B7B6BD" stroke-width="1.5" stroke-linecap="round" stroke-linejoin="round"/>
    <path d="M8.75 7.25H16.75" stroke="#B7B6BD" stroke-width="1.5" stroke-linecap="round" stroke-linejoin="round"/>
    <path d="M9.75 11.25H15.75" stroke="#B7B6BD" stroke-width="1.5" stroke-linecap="round" stroke-linejoin="round"/>
    <path d="M18.961 15.0203L15.421 18.5603C15.281 18.7003 15.151 18.9603 15.121 19.1503L14.931 20.5003C14.861 20.9903 15.201 21.3303 15.691 21.2603L17.041 21.0703C17.231 21.0403 17.501 20.9103 17.631 20.7703L21.171 17.2303C21.781 16.6203 22.071 15.9103 21.171 15.0103C20.281 14.1203 19.571 14.4103 18.961 15.0203Z" stroke="#B7B6BD" stroke-width="1.5" stroke-miterlimit="10" stroke-linecap="round" stroke-linejoin="round"/>
    <path d="M18.4492 15.5303C18.7492 16.6103 19.5892 17.4503 20.6692 17.7503" stroke="#B7B6BD" stroke-width="1.5" stroke-miterlimit="10" stroke-linecap="round" stroke-linejoin="round"/>
</svg>
