<svg width="25" height="25" viewBox="0 0 25 25" fill="none" xmlns="http://www.w3.org/2000/svg">
    <path d="M17.75 13.65V16.65C17.75 20.65 16.15 22.25 12.15 22.25H8.35C4.35 22.25 2.75 20.65 2.75 16.65V12.85C2.75 8.85 4.35 7.25 8.35 7.25H11.35" stroke="#B7B6BD" stroke-width="1.5" stroke-linecap="round" stroke-linejoin="round"/>
    <path d="M17.7501 13.65H14.5501C12.1501 13.65 11.3501 12.85 11.3501 10.45V7.25L17.7501 13.65Z" stroke="#B7B6BD" stroke-width="1.5" stroke-linecap="round" stroke-linejoin="round"/>
    <path d="M12.3501 2.25H16.3501" stroke="#B7B6BD" stroke-width="1.5" stroke-linecap="round" stroke-linejoin="round"/>
    <path d="M7.75 5.25C7.75 3.59 9.09 2.25 10.75 2.25H13.37" stroke="#B7B6BD" stroke-width="1.5" stroke-linecap="round" stroke-linejoin="round"/>
    <path d="M22.7499 8.25V14.44C22.7499 15.99 21.4899 17.25 19.9399 17.25" stroke="#B7B6BD" stroke-width="1.5" stroke-linecap="round" stroke-linejoin="round"/>
    <path d="M22.75 8.25H19.75C17.5 8.25 16.75 7.5 16.75 5.25V2.25L22.75 8.25Z" stroke="#B7B6BD" stroke-width="1.5" stroke-linecap="round" stroke-linejoin="round"/>
</svg>
