<svg width="25" height="25" viewBox="0 0 25 25" fill="none" xmlns="http://www.w3.org/2000/svg">
    <path d="M22.75 16.9899V4.91994C22.75 3.71994 21.77 2.82994 20.58 2.92994H20.52C18.42 3.10994 15.23 4.17994 13.45 5.29994L13.28 5.40994C12.99 5.58994 12.51 5.58994 12.22 5.40994L11.97 5.25994C10.19 4.14994 7.01 3.08994 4.91 2.91994C3.72 2.81994 2.75 3.71994 2.75 4.90994V16.9899C2.75 17.9499 3.53 18.8499 4.49 18.9699L4.78 19.0099C6.95 19.2999 10.3 20.3999 12.22 21.4499L12.26 21.4699C12.53 21.6199 12.96 21.6199 13.22 21.4699C15.14 20.4099 18.5 19.2999 20.68 19.0099L21.01 18.9699C21.97 18.8499 22.75 17.9499 22.75 16.9899Z" stroke="#B7B6BD" stroke-width="1.5" stroke-linecap="round" stroke-linejoin="round"/>
    <path d="M12.75 5.73999V20.74" stroke="#B7B6BD" stroke-width="1.5" stroke-linecap="round" stroke-linejoin="round"/>
    <path d="M8.5 8.73999H6.25" stroke="#B7B6BD" stroke-width="1.5" stroke-linecap="round" stroke-linejoin="round"/>
    <path d="M9.25 11.74H6.25" stroke="#B7B6BD" stroke-width="1.5" stroke-linecap="round" stroke-linejoin="round"/>
</svg>
