<svg width="25" height="25" viewBox="0 0 25 25" fill="none" xmlns="http://www.w3.org/2000/svg">
    <path d="M11.5016 17.1104V19.1404C11.5016 20.8604 9.90158 22.2504 7.93158 22.2504C5.96158 22.2504 4.35156 20.8604 4.35156 19.1404V17.1104C4.35156 18.8304 5.95158 20.0504 7.93158 20.0504C9.90158 20.0504 11.5016 18.8204 11.5016 17.1104Z" stroke="#B7B6BD" stroke-width="1.5" stroke-linecap="round" stroke-linejoin="round"/>
    <path d="M11.5001 14.36C11.5001 14.86 11.3601 15.32 11.1201 15.72C10.5301 16.69 9.32004 17.3 7.92004 17.3C6.52004 17.3 5.31003 16.68 4.72003 15.72C4.48003 15.32 4.34009 14.86 4.34009 14.36C4.34009 13.5 4.74007 12.73 5.38007 12.17C6.03007 11.6 6.92003 11.26 7.91003 11.26C8.90003 11.26 9.79006 11.61 10.4401 12.17C11.1001 12.72 11.5001 13.5 11.5001 14.36Z" stroke="#B7B6BD" stroke-width="1.5" stroke-linecap="round" stroke-linejoin="round"/>
    <path d="M11.5016 14.36V17.11C11.5016 18.83 9.90158 20.05 7.93158 20.05C5.96158 20.05 4.35156 18.82 4.35156 17.11V14.36C4.35156 12.64 5.95158 11.25 7.93158 11.25C8.92158 11.25 9.81161 11.6 10.4616 12.16C11.1016 12.72 11.5016 13.5 11.5016 14.36Z" stroke="#B7B6BD" stroke-width="1.5" stroke-linecap="round" stroke-linejoin="round"/>
    <path d="M22.75 11.22V13.28C22.75 13.83 22.31 14.28 21.75 14.3H19.7899C18.7099 14.3 17.72 13.51 17.63 12.43C17.57 11.8 17.8099 11.21 18.2299 10.8C18.5999 10.42 19.11 10.2 19.67 10.2H21.75C22.31 10.22 22.75 10.67 22.75 11.22Z" stroke="#B7B6BD" stroke-width="1.5" stroke-linecap="round" stroke-linejoin="round"/>
    <path d="M2.75 10.75V8.75C2.75 6.03 4.39 4.13 6.94 3.81C7.2 3.77 7.47 3.75 7.75 3.75H16.75C17.01 3.75 17.26 3.75999 17.5 3.79999C20.08 4.09999 21.75 6.01 21.75 8.75V10.2H19.67C19.11 10.2 18.6 10.42 18.23 10.8C17.81 11.21 17.57 11.8 17.63 12.43C17.72 13.51 18.71 14.3 19.79 14.3H21.75V15.75C21.75 18.75 19.75 20.75 16.75 20.75H14.25" stroke="#B7B6BD" stroke-width="1.5" stroke-linecap="round" stroke-linejoin="round"/>
</svg>
