<svg width="25" height="25" viewBox="0 0 25 25" fill="none" xmlns="http://www.w3.org/2000/svg">
    <path d="M22.75 8.75C22.75 12.34 19.84 15.25 16.25 15.25C16.08 15.25 15.9 15.24 15.73 15.23C15.48 12.06 12.94 9.51999 9.76999 9.26999C9.75999 9.09999 9.75 8.92 9.75 8.75C9.75 5.16 12.66 2.25 16.25 2.25C19.84 2.25 22.75 5.16 22.75 8.75Z" stroke="#B7B6BD" stroke-width="1.5" stroke-linecap="round" stroke-linejoin="round"/>
    <path d="M15.75 15.75C15.75 19.34 12.84 22.25 9.25 22.25C5.66 22.25 2.75 19.34 2.75 15.75C2.75 12.16 5.66 9.25 9.25 9.25C9.42 9.25 9.59999 9.25999 9.76999 9.26999C12.94 9.51999 15.48 12.06 15.73 15.23C15.74 15.4 15.75 15.58 15.75 15.75Z" stroke="#B7B6BD" stroke-width="1.5" stroke-linecap="round" stroke-linejoin="round"/>
    <path d="M6.34 2.25H3.75C3.2 2.25 2.75 2.7 2.75 3.25V5.84C2.75 6.73 3.82999 7.17999 4.45999 6.54999L7.04999 3.95999C7.66999 3.32999 7.23 2.25 6.34 2.25Z" stroke="#B7B6BD" stroke-width="1.5" stroke-linecap="round" stroke-linejoin="round"/>
    <path d="M19.16 22.25H21.75C22.3 22.25 22.75 21.8 22.75 21.25V18.66C22.75 17.77 21.67 17.32 21.04 17.95L18.45 20.54C17.83 21.17 18.27 22.25 19.16 22.25Z" stroke="#B7B6BD" stroke-width="1.5" stroke-linecap="round" stroke-linejoin="round"/>
</svg>
