<svg width="25" height="25" viewBox="0 0 25 25" fill="none" xmlns="http://www.w3.org/2000/svg">
    <path d="M17.75 18.6801H13.75L9.29999 21.64C8.63999 22.08 7.75 21.6101 7.75 20.8101V18.6801C4.75 18.6801 2.75 16.6801 2.75 13.6801V7.67999C2.75 4.67999 4.75 2.67999 7.75 2.67999H17.75C20.75 2.67999 22.75 4.67999 22.75 7.67999V13.6801C22.75 16.6801 20.75 18.6801 17.75 18.6801Z" stroke="#B7B6BD" stroke-width="1.5" stroke-miterlimit="10" stroke-linecap="round" stroke-linejoin="round"/>
    <path d="M12.7501 11.61V11.4C12.7501 10.72 13.1701 10.36 13.5901 10.07C14.0001 9.79001 14.41 9.43002 14.41 8.77002C14.41 7.85002 13.6701 7.10999 12.7501 7.10999C11.8301 7.10999 11.0901 7.85002 11.0901 8.77002" stroke="#B7B6BD" stroke-width="1.5" stroke-linecap="round" stroke-linejoin="round"/>
    <path d="M12.7455 14H12.7545" stroke="#B7B6BD" stroke-width="1.5" stroke-linecap="round" stroke-linejoin="round"/>
</svg>
