<svg width="25" height="25" viewBox="0 0 25 25" fill="none" xmlns="http://www.w3.org/2000/svg">
    <path d="M4.77 6.22C3.5 7.9 2.75 9.99 2.75 12.25C2.75 17.77 7.23 22.25 12.75 22.25C18.27 22.25 22.75 17.77 22.75 12.25C22.75 6.73 18.27 2.25 12.75 2.25" stroke="#B7B6BD" stroke-width="1.5" stroke-linecap="round" stroke-linejoin="round"/>
    <path d="M5.75 12.25C5.75 16.12 8.88 19.25 12.75 19.25C16.62 19.25 19.75 16.12 19.75 12.25C19.75 8.38 16.62 5.25 12.75 5.25" stroke="#B7B6BD" stroke-width="1.5" stroke-linecap="round" stroke-linejoin="round"/>
    <path d="M12.75 16.25C14.96 16.25 16.75 14.46 16.75 12.25C16.75 10.04 14.96 8.25 12.75 8.25" stroke="#B7B6BD" stroke-width="1.5" stroke-linecap="round" stroke-linejoin="round"/>
</svg>
