<svg width="25" height="25" viewBox="0 0 25 25" fill="none" xmlns="http://www.w3.org/2000/svg">
    <path d="M12.21 13.98C13.7619 13.98 15.02 12.7219 15.02 11.17C15.02 9.61806 13.7619 8.35999 12.21 8.35999C10.6581 8.35999 9.40002 9.61806 9.40002 11.17C9.40002 12.7219 10.6581 13.98 12.21 13.98Z" stroke="#B7B6BD" stroke-width="1.5" stroke-linecap="round" stroke-linejoin="round"/>
    <path d="M17.4 20.45C17.4 18.12 15.08 16.22 12.21 16.22C9.34002 16.22 7.02002 18.11 7.02002 20.45" stroke="#B7B6BD" stroke-width="1.5" stroke-linecap="round" stroke-linejoin="round"/>
    <path d="M21.75 12.75C21.75 18 17.5 22.25 12.25 22.25C7 22.25 2.75 18 2.75 12.75C2.75 7.5 7 3.25 12.25 3.25C13.56 3.25 14.81 3.50999 15.95 3.98999C15.82 4.38999 15.75 4.81 15.75 5.25C15.75 6 15.96 6.71 16.33 7.31C16.53 7.65 16.79 7.95997 17.09 8.21997C17.79 8.85997 18.72 9.25 19.75 9.25C20.19 9.25 20.61 9.17998 21 9.03998C21.48 10.18 21.75 11.44 21.75 12.75Z" stroke="#B7B6BD" stroke-width="1.5" stroke-linecap="round" stroke-linejoin="round"/>
    <path d="M23.75 5.25C23.75 5.57 23.71 5.87999 23.63 6.17999C23.54 6.57999 23.38 6.97 23.17 7.31C22.69 8.12 21.92 8.74998 21 9.03998C20.61 9.17998 20.19 9.25 19.75 9.25C18.72 9.25 17.79 8.85997 17.09 8.21997C16.79 7.95997 16.53 7.65 16.33 7.31C15.96 6.71 15.75 6 15.75 5.25C15.75 4.81 15.82 4.38999 15.95 3.98999C16.14 3.40999 16.46 2.89002 16.88 2.46002C17.61 1.71002 18.63 1.25 19.75 1.25C20.93 1.25 22 1.76002 22.72 2.58002C23.36 3.29002 23.75 4.23 23.75 5.25Z" stroke="#B7B6BD" stroke-width="1.5" stroke-miterlimit="10" stroke-linecap="round" stroke-linejoin="round"/>
    <path d="M21.24 5.22998H18.26" stroke="#B7B6BD" stroke-width="1.5" stroke-miterlimit="10" stroke-linecap="round" stroke-linejoin="round"/>
    <path d="M19.75 3.77002V6.76001" stroke="#B7B6BD" stroke-width="1.5" stroke-miterlimit="10" stroke-linecap="round" stroke-linejoin="round"/>
</svg>
