<svg width="25" height="25" viewBox="0 0 25 25" fill="none" xmlns="http://www.w3.org/2000/svg">
    <path d="M8.75 11.65C8.75 12.42 9.35 13.05 10.08 13.05H11.58C12.22 13.05 12.74 12.5 12.74 11.83C12.74 11.1 12.42 10.84 11.95 10.67L9.55 9.83001C9.07 9.66001 8.75 9.40001 8.75 8.67001C8.75 8.00001 9.27 7.45001 9.91 7.45001H11.41C12.15 7.46001 12.75 8.08001 12.75 8.85001" stroke="#B7B6BD" stroke-width="1.5" stroke-linecap="round" stroke-linejoin="round"/>
    <path d="M10.75 13.1V13.84" stroke="#B7B6BD" stroke-width="1.5" stroke-linecap="round" stroke-linejoin="round"/>
    <path d="M10.75 6.65997V7.43997" stroke="#B7B6BD" stroke-width="1.5" stroke-linecap="round" stroke-linejoin="round"/>
    <path d="M10.74 18.23C15.1528 18.23 18.73 14.6528 18.73 10.24C18.73 5.82724 15.1528 2.25 10.74 2.25C6.32724 2.25 2.75 5.82724 2.75 10.24C2.75 14.6528 6.32724 18.23 10.74 18.23Z" stroke="#B7B6BD" stroke-width="1.5" stroke-linecap="round" stroke-linejoin="round"/>
    <path d="M13.73 20.13C14.63 21.4 16.1 22.23 17.78 22.23C20.51 22.23 22.73 20.01 22.73 17.28C22.73 15.62 21.91 14.15 20.66 13.25" stroke="#B7B6BD" stroke-width="1.5" stroke-linecap="round" stroke-linejoin="round"/>
</svg>
