<svg width="25" height="25" viewBox="0 0 25 25" fill="none" xmlns="http://www.w3.org/2000/svg">
    <path d="M7.3663 16.3697L6.46522 15.3998L6.50017 16.7232C6.57913 19.7124 9.42292 22 12.75 22C16.0771 22 18.9209 19.7124 18.9998 16.7232L19.035 15.3921L18.1324 16.3711C16.9402 17.6642 15.0209 18.5 12.75 18.5C10.4802 18.5 8.56966 17.6649 7.3663 16.3697ZM12.75 22.5C8.96578 22.5 6 19.7972 6 16.6V12.9C6 12.7662 6.11614 12.65 6.25 12.65C6.38386 12.65 6.5 12.7662 6.5 12.9C6.5 15.8943 9.30343 18 12.75 18C16.1966 18 19 15.8943 19 12.9C19 12.7662 19.1161 12.65 19.25 12.65C19.3839 12.65 19.5 12.7662 19.5 12.9V16.6C19.5 19.7972 16.5342 22.5 12.75 22.5Z" fill="#292D32" stroke="#B7B6BD"/>
    <path d="M6.7265 10.4991L6.72779 10.5012C7.82888 12.3212 10.1264 13.5 12.75 13.5C15.3736 13.5 17.671 12.3212 18.7721 10.5013L6.7265 10.4991ZM6.7265 10.4991C6.25493 9.72823 6 8.82863 6 7.9M6.7265 10.4991L6 7.9M6 7.9C6 6.33658 6.69809 4.84966 7.98957 3.71601M6 7.9L7.98957 3.71601M7.98957 3.71601C9.2515 2.61197 10.9418 2 12.75 2C14.5562 2 16.2375 2.61078 17.5112 3.70667C18.8029 4.85082 19.5 6.33775 19.5 7.9C19.5 8.82721 19.2458 9.71792 18.7722 10.5012L7.98957 3.71601ZM7.15184 10.2382L7.15294 10.2401C8.21588 11.9855 10.3829 13 12.75 13C15.1183 13 17.2833 11.9748 18.3457 10.2422C18.7868 9.52937 19 8.73773 19 7.9C19 6.46092 18.3461 5.10875 17.18 4.08436L17.18 4.08435L17.1765 4.08135C15.9888 3.05707 14.4204 2.5 12.75 2.5C11.0808 2.5 9.50059 3.05643 8.31091 4.10358C7.15266 5.10947 6.5 6.46257 6.5 7.9C6.5 8.74251 6.72561 9.53159 7.15184 10.2382Z" stroke="#B7B6BD"/>
    <path d="M17.18 4.08436L17.18 4.08435L17.1765 4.08135C15.9888 3.05707 14.4204 2.5 12.75 2.5C9.38176 2.5 6.5 4.85192 6.5 7.9V12.9C6.5 15.8942 9.30343 18 12.75 18C16.1966 18 19 15.8942 19 12.9V7.9C19 6.46092 18.3461 5.10875 17.18 4.08436ZM12.75 18.5C8.81145 18.5 6 16.0262 6 12.9V7.9C6 4.70287 8.96578 2 12.75 2C14.5562 2 16.2375 2.61078 17.5112 3.70667C18.8029 4.85082 19.5 6.33775 19.5 7.9V12.9C19.5 16.0262 16.6885 18.5 12.75 18.5Z" fill="#292D32" stroke="#B7B6BD"/>
</svg>
