<svg width="25" height="25" viewBox="0 0 25 25" fill="none" xmlns="http://www.w3.org/2000/svg">
    <path d="M10.25 14C10.25 14.97 11 15.75 11.92 15.75H13.8C14.6 15.75 15.25 15.07 15.25 14.22C15.25 13.31 14.85 12.98 14.26 12.77L11.25 11.72C10.66 11.51 10.26 11.19 10.26 10.27C10.26 9.42999 10.91 8.73999 11.71 8.73999H13.59C14.51 8.73999 15.26 9.51999 15.26 10.49" stroke="#B7B6BD" stroke-width="1.5" stroke-linecap="round" stroke-linejoin="round"/>
    <path d="M12.75 7.75V16.75" stroke="#B7B6BD" stroke-width="1.5" stroke-linecap="round" stroke-linejoin="round"/>
    <path d="M22.75 12.25C22.75 17.77 18.27 22.25 12.75 22.25C7.23 22.25 2.75 17.77 2.75 12.25C2.75 6.73 7.23 2.25 12.75 2.25" stroke="#B7B6BD" stroke-width="1.5" stroke-linecap="round" stroke-linejoin="round"/>
    <path d="M17.75 3.25V7.25H21.75" stroke="#B7B6BD" stroke-width="1.5" stroke-linecap="round" stroke-linejoin="round"/>
    <path d="M22.75 2.25L17.75 7.25" stroke="#B7B6BD" stroke-width="1.5" stroke-linecap="round" stroke-linejoin="round"/>
</svg>
