<svg width="36" height="36" viewBox="0 0 36 36" fill="white" xmlns="http://www.w3.org/2000/svg">
    <path d="M32.2928 18.7308L17.8096 33.2139L6.96009 22.3644L17.9632 11.3613L20.0103 13.3572L11.2078 22.1597L17.8096 28.8127L30.9621 15.6602H35.5169C34.4422 6.85773 26.9192 0 17.8096 0C8.23951 0 0.460594 7.52303 0 16.9396H3.32651L3.99182 16.2743L17.7585 2.50767L27.5845 12.3337L28.5568 13.306L17.5537 24.3091L15.5578 22.3132L24.3603 13.5108L17.7073 6.85773L4.60594 19.9591H0.0511802C1.1259 28.7615 8.64893 35.6193 17.7585 35.6193C27.3286 35.6193 35.1075 28.0962 35.5681 18.6285H32.2928V18.7308Z" fill="#ED1C24"/>
</svg>
