<svg width="111" height="50" viewBox="0 0 111 50" fill="none" xmlns="http://www.w3.org/2000/svg">
    <path d="M5.70558 46.2641L6.52441 46.4688C6.37088 47.1853 6.01264 47.6971 5.55204 48.0553C5.09145 48.4136 4.52851 48.6183 3.8632 48.6183C3.1979 48.6183 2.63495 48.4647 2.17436 48.2088C1.76494 47.9018 1.4067 47.5435 1.20199 46.9806C0.99728 46.4688 0.84375 45.8547 0.84375 45.2406C0.84375 44.5753 0.946103 44.0123 1.20199 43.5006C1.45787 42.9888 1.81612 42.6305 2.27671 42.3747C2.7373 42.1188 3.24908 41.9652 3.81202 41.9652C4.42615 41.9652 4.9891 42.1188 5.44969 42.477C5.91028 42.7841 6.16617 43.2447 6.37088 43.8588L5.55204 44.0635C5.39851 43.6029 5.19381 43.2447 4.88675 43.04C4.57968 42.8353 4.27262 42.7329 3.81202 42.7329C3.30025 42.7329 2.89084 42.8352 2.58378 43.0911C2.27671 43.347 2.02082 43.6541 1.86729 44.0635C1.71376 44.4729 1.66259 44.8823 1.66259 45.2918C1.66259 45.8547 1.76494 46.3153 1.91847 46.7247C2.072 47.1341 2.32789 47.4412 2.63495 47.6459C2.99319 47.8506 3.35143 47.953 3.70967 47.953C4.17027 47.953 4.57968 47.7994 4.88675 47.5435C5.34734 47.2365 5.55204 46.8271 5.70558 46.2641Z" fill="#ED1C24"/>
    <path d="M7.59912 48.5159V42.1187H8.46914V44.7287H11.7445V42.1187H12.6145V48.5159H11.7445V45.4964H8.46914V48.5159H7.59912Z" fill="#ED1C24"/>
    <path d="M19.7281 43.0398V42.1186H20.5469V42.8351C20.5469 43.2957 20.4957 43.6028 20.3934 43.8075C20.0863 44.3193 19.6257 44.5751 19.0116 44.6263V45.8546C19.0116 46.5199 18.9604 47.0317 18.8069 47.3899C18.6533 47.7993 18.3975 48.1064 18.0392 48.3111C17.681 48.567 17.1692 48.6693 16.5551 48.6693C15.378 48.6693 14.6103 48.2599 14.2521 47.4411C14.0986 47.0316 13.9962 46.5199 13.9962 45.8034V42.0675H14.8662V45.8034C14.8662 46.3664 14.9174 46.7758 15.0198 47.0317C15.1221 47.2875 15.2756 47.4923 15.5315 47.6458C15.7874 47.7993 16.0945 47.8505 16.4527 47.8505C17.0668 47.8505 17.5274 47.6969 17.7833 47.4411C18.0392 47.134 18.1927 46.5711 18.1927 45.8034V42.0675H19.0116V44.2169C19.4722 44.1657 19.7792 44.0122 19.9839 43.654C20.0863 43.5516 20.0863 43.2957 20.0863 42.9375H19.7281V43.0398ZM15.9921 41.7092L16.5551 40.481H17.5786L16.6063 41.7092H15.9921Z" fill="#ED1C24"/>
    <path d="M21.6216 48.5159V42.1187H22.4917L25.8693 47.1341V42.1187H26.6882V48.5159H25.8182L22.4405 43.5005V48.5159H21.6216Z" fill="#ED1C24"/>
    <path d="M31.0894 46.0082V45.2406H33.8018V47.6459C33.3924 47.953 32.9829 48.2089 32.5224 48.4136C32.0618 48.5671 31.6523 48.6694 31.1406 48.6694C30.5264 48.6694 29.9635 48.5159 29.4517 48.26C28.94 48.0041 28.5305 47.5947 28.2747 47.083C28.0188 46.5712 27.8652 46.0082 27.8652 45.3429C27.8652 44.7288 28.0188 44.1147 28.2747 43.6029C28.5305 43.04 28.8888 42.6817 29.4005 42.3747C29.9123 42.1188 30.4753 41.9652 31.0894 41.9652C31.55 41.9652 31.9594 42.0164 32.3176 42.1699C32.6759 42.3235 32.9829 42.5282 33.1876 42.7841C33.3924 43.04 33.5459 43.3982 33.6482 43.8588L32.8806 44.0635C32.7782 43.7564 32.6759 43.5006 32.5224 43.2958C32.3688 43.0911 32.1641 42.9376 31.9082 42.8352C31.6523 42.7329 31.3453 42.6817 31.0382 42.6817C30.6288 42.6817 30.3217 42.7329 30.0147 42.8352C29.7588 42.9376 29.5029 43.0911 29.3494 43.2958C29.1958 43.5006 29.0423 43.7053 28.94 43.91C28.7864 44.3194 28.6841 44.7288 28.6841 45.1894C28.6841 45.7523 28.7864 46.2641 28.9911 46.6224C29.1958 47.0318 29.4517 47.2877 29.8611 47.4924C30.2194 47.6971 30.6288 47.7482 31.0382 47.7482C31.3965 47.7482 31.7547 47.6971 32.1129 47.5435C32.4712 47.39 32.7271 47.2365 32.9318 47.083V45.9059H31.0894V46.0082Z" fill="#ED1C24"/>
    <path d="M37.4866 48.5159V42.1187H38.3054V45.2917L41.4784 42.1187H42.6043L39.9431 44.7287L42.7578 48.5159H41.6319L39.3801 45.2917L38.3054 46.3152V48.5159H37.4866Z" fill="#ED1C24"/>
    <path d="M43.4742 48.5159V42.1187H44.3443V44.7287H47.6196V42.1187H48.4896V48.5159H47.6196V45.4964H44.3443V48.5159H43.4742Z" fill="#ED1C24"/>
    <path d="M49.6155 45.3941C49.6155 44.3194 49.9226 43.5005 50.4855 42.8864C51.0485 42.2723 51.765 41.9652 52.6862 41.9652C53.3003 41.9652 53.8121 42.1188 54.2727 42.3747C54.7333 42.6817 55.0915 43.04 55.3474 43.5517C55.6033 44.0635 55.7056 44.6265 55.7056 45.2918C55.7056 45.9571 55.5521 46.52 55.2962 47.0318C55.0403 47.5435 54.6821 47.953 54.1703 48.2088C53.7097 48.4647 53.1979 48.6183 52.635 48.6183C52.0209 48.6183 51.5091 48.4647 50.9973 48.1577C50.5367 47.8506 50.1785 47.4412 49.9226 46.9806C49.7691 46.52 49.6155 45.957 49.6155 45.3941ZM50.4855 45.4453C50.4855 46.2129 50.6903 46.8271 51.0997 47.2877C51.5091 47.7483 52.0209 47.953 52.635 47.953C53.2491 47.953 53.8121 47.7483 54.2215 47.2877C54.6309 46.8271 54.8356 46.2129 54.8356 45.3941C54.8356 44.8823 54.7332 44.4217 54.5797 44.0123C54.4262 43.6029 54.1703 43.2958 53.8121 43.0911C53.4538 42.8864 53.0956 42.7841 52.6862 42.7841C52.072 42.7841 51.5603 42.9888 51.1509 43.3982C50.7414 43.7564 50.4855 44.4729 50.4855 45.4453Z" fill="#ED1C24"/>
    <path d="M56.1151 48.5158L58.5715 42.0675H59.4927L62.1028 48.5158H61.1304L60.3627 46.5711H57.7015L56.9851 48.5158H56.1151ZM57.9574 45.9057H60.1069L59.4416 44.1145C59.2369 43.5516 59.0833 43.1422 58.981 42.784C58.8786 43.1934 58.7763 43.6028 58.6227 44.0122L57.9574 45.9057ZM58.5204 41.7092L59.0833 40.481H60.1069L59.1345 41.7092H58.5204Z" fill="#ED1C24"/>
    <path d="M62.7681 48.5159V42.1187H63.6381L67.0158 47.1341V42.1187H67.7834V48.5159H66.9646L63.5869 43.5005V48.5159H62.7681Z" fill="#ED1C24"/>
    <path d="M73.157 48.5159V42.8864H71.0587V42.1187H76.1252V42.8864H74.027V48.5159H73.157Z" fill="#ED1C24"/>
    <path d="M76.2788 48.5159L78.7353 42.0676H79.6565L82.2665 48.5159H81.2942L80.5265 46.5712H77.8653L77.1488 48.5159H76.2788ZM79.1959 40.9929L78.6841 41.7606H77.7629L78.6841 40.5323H79.503L80.4753 41.7606H79.6053L79.1959 40.9929ZM102.635 40.9929L102.123 41.7606H101.202L102.123 40.5323H102.942L103.914 41.7606H103.096L102.635 40.9929ZM78.1212 45.9059H80.2706L79.6053 44.1147C79.4006 43.5518 79.2471 43.1424 79.1447 42.7841C79.0424 43.1935 78.94 43.603 78.7865 44.0124L78.1212 45.9059Z" fill="#ED1C24"/>
    <path d="M82.9318 48.5159V42.1187H83.8018L87.1795 47.1341V42.1187H87.9472V48.5159H87.1283L83.7507 43.5005V48.5159H82.9318Z" fill="#ED1C24"/>
    <path d="M93.679 48.5159L91.2225 42.0675H92.1437L93.7814 46.7247C93.9349 47.0829 94.0373 47.4411 94.1396 47.7994C94.242 47.4411 94.3443 47.0829 94.4979 46.7247L96.2379 42.0675H97.1079L94.6002 48.5159H93.679Z" fill="#ED1C24"/>
    <path d="M98.7967 42.1187H97.9779V48.567H98.7967V42.1187Z" fill="#ED1C24"/>
    <path d="M100.332 48.5159V42.0675H104.938V42.8352H101.151V44.7799H104.682V45.5476H101.151V47.7482H105.091V48.5159H100.332ZM102.277 49.0788H103.147V50H102.277V49.0788Z" fill="#ED1C24"/>
    <path d="M107.855 48.5159V42.8864H105.757V42.1187H110.823V42.8864H108.725V48.5159H107.855Z" fill="#ED1C24"/>
    <path d="M33.1365 18.7308L18.6534 33.2139L7.80384 22.3644L18.8069 11.3613L20.854 13.3572L12.0515 22.1597L18.6534 28.8127L31.8059 15.6602H36.3607C35.2859 6.85773 27.7629 0 18.6534 0C9.08326 0 1.30434 7.52303 0.84375 16.9396H4.17026L4.83557 16.2743L18.6022 2.50767L28.4282 12.3337L29.4006 13.306L18.3975 24.3091L16.4016 22.3132L25.2041 13.5108L18.551 6.85773L5.44969 19.9591H0.89493C1.96965 28.7615 9.49268 35.6193 18.6022 35.6193C28.1723 35.6193 35.9512 28.0962 36.4118 18.6285H33.1365V18.7308Z" fill="#ED1C24"/>
    <path d="M39.6872 9.16069L40.0966 6.60184H59.3392L60.5674 9.21187C60.5674 9.21187 56.985 8.29068 54.2215 8.39304H52.3279V24.9232C52.3279 25.0768 52.3279 25.3327 52.3791 25.6909C52.4814 27.0215 52.635 28.1986 52.8909 29.1198H46.6472C47.0055 27.8403 47.159 26.4074 47.159 24.8721V8.39304H45.2655C44.6513 8.39304 43.4743 8.49539 41.7854 8.75127C41.5807 8.75127 41.3248 8.80245 40.9154 8.85363L40.3525 8.95599L39.6872 9.16069Z" fill="#333333"/>
    <path d="M60.5674 6.55051H67.7322C67.681 7.57405 67.8346 8.59759 68.1928 9.62113L68.4999 10.5423L68.9093 11.5659L73.72 24.1043L78.2235 10.1841C78.4282 9.41643 78.5818 8.75113 78.5818 8.18818C78.5818 7.67641 78.4794 7.11345 78.2747 6.55051H83.4436C82.7783 7.21581 81.9595 8.8023 81.6524 9.62113L81.4989 10.0817L80.8847 11.5659C80.68 12.0776 80.1683 13.3571 79.4006 15.353C77.2512 21.136 75.6135 25.6907 74.5388 29.1196H69.8817C68.7558 25.7931 67.0157 21.1872 64.6104 15.353C64.2522 14.5341 63.6892 13.3059 63.0239 11.617L62.9216 11.3612L62.8192 11.1564L61.4886 8.23935C61.2839 7.82994 60.9768 7.31816 60.5674 6.55051Z" fill="#333333"/>
    <path d="M84.5183 27.8915L85.0813 24.8209C85.6954 25.3838 86.3095 25.742 86.9748 26.1515C88.5613 27.0727 90.0455 27.5332 91.4784 27.5332C92.6043 27.5332 93.5255 27.2262 94.2932 26.6121C95.0608 25.9979 95.4702 25.1791 95.4702 24.1044C95.4702 22.9785 94.4979 21.8014 92.502 20.5732L90.3525 19.2425C88.3566 18.0143 86.9748 16.9396 86.2072 15.916C85.4907 14.9949 85.0813 13.869 85.0813 12.5895C85.0813 10.8495 85.6442 9.41655 86.9237 8.29065C88.1519 7.16476 89.8919 6.49945 92.1949 6.24357C93.3208 6.14121 94.8049 6.24357 96.4938 6.49945C96.6985 6.55063 97.0055 6.6018 97.415 6.70416L98.1826 6.80651L99.5132 6.96004L99.8715 10.2866L99.462 9.9795L99.0015 9.72361C97.2103 8.54654 95.5214 7.98359 93.9349 7.98359C92.9626 7.98359 92.1437 8.23947 91.4784 8.75124C90.7108 9.31419 90.3525 10.0818 90.3525 11.0542C90.3525 11.6172 90.5061 12.1289 90.8131 12.6407C91.2737 13.4084 92.3996 14.3295 94.3443 15.4043C94.549 15.5066 94.8561 15.6602 95.2655 15.916C95.6749 16.1207 96.0332 16.3255 96.2891 16.5302C97.4661 17.1955 98.3873 17.8608 99.0015 18.4237C100.179 19.4984 100.793 20.8802 100.793 22.4667C100.793 23.5926 100.434 24.7185 99.7691 25.7932C99.1038 26.8679 98.1314 27.738 96.852 28.4033C95.1632 29.2733 93.1673 29.6827 90.8131 29.5803C89.8408 29.5291 88.5613 29.2733 86.9748 28.8127C86.5654 28.7103 86.2584 28.608 86.0025 28.5056L85.4907 28.3009L84.5183 27.8915Z" fill="#333333"/>
    <path d="M104.477 29.1198C104.733 28.3009 104.938 27.2774 104.989 26.1515L105.04 25.998L105.092 24.3603L105.04 9.62128C104.989 8.44421 104.836 7.42067 104.529 6.60184H110.772C110.414 7.62538 110.26 8.64892 110.26 9.62128L110.209 11.5148L110.26 26.1515C110.312 27.2262 110.465 28.1986 110.721 29.1198H104.477Z" fill="#333333"/>
</svg>
