<svg width="155" height="71" viewBox="0 0 155 71" fill="none" xmlns="http://www.w3.org/2000/svg">
    <path d="M7.65031 64.7723L8.79668 65.0589C8.58173 66.062 8.08019 66.7785 7.43536 67.28C6.79053 67.7815 6.00241 68.0681 5.07099 68.0681C4.13956 68.0681 3.35143 67.8532 2.7066 67.4949C2.13342 67.0651 1.63188 66.5635 1.34528 65.7754C1.05869 65.0589 0.84375 64.1991 0.84375 63.3394C0.84375 62.4079 0.987044 61.6198 1.34528 60.9033C1.70352 60.1869 2.20506 59.6853 2.8499 59.3271C3.49473 58.9688 4.21121 58.7539 4.99933 58.7539C5.85911 58.7539 6.64723 58.9689 7.29207 59.4704C7.9369 59.9003 8.29514 60.5451 8.58173 61.4049L7.43536 61.6915C7.22042 61.0466 6.93383 60.5451 6.50394 60.2585C6.07406 59.9719 5.64417 59.8286 4.99933 59.8286C4.28285 59.8286 3.70967 59.9719 3.27979 60.3301C2.8499 60.6884 2.49165 61.1183 2.27671 61.6915C2.06177 62.2647 1.99012 62.8378 1.99012 63.411C1.99012 64.1992 2.13342 64.844 2.34836 65.4172C2.56331 65.9903 2.92154 66.4202 3.35143 66.7068C3.85296 66.9934 4.3545 67.1367 4.85604 67.1367C5.50087 67.1367 6.07406 66.9218 6.50394 66.5635C7.14878 66.1336 7.43536 65.5605 7.65031 64.7723Z" fill="white"/>
    <path d="M10.3013 67.9245V58.9685H11.5193V62.6226H16.1048V58.9685H17.3228V67.9245H16.1048V63.6973H11.5193V67.9245H10.3013Z" fill="white"/>
    <path d="M27.2819 60.2582V58.9685H28.4282V59.9716C28.4282 60.6164 28.3566 61.0463 28.2133 61.3329C27.7834 62.0494 27.1386 62.4076 26.2788 62.4792V64.1988C26.2788 65.1302 26.2072 65.8467 25.9922 66.3483C25.7773 66.9214 25.419 67.3513 24.9175 67.6379C24.416 67.9961 23.6995 68.1395 22.8397 68.1395C21.1918 68.1395 20.1171 67.5663 19.6155 66.4199C19.4006 65.8467 19.2573 65.1302 19.2573 64.1272V58.8968H20.4753V64.1272C20.4753 64.9153 20.547 65.4885 20.6903 65.8467C20.8335 66.2049 21.0485 66.4915 21.4067 66.7065C21.765 66.9214 22.1949 66.9931 22.6964 66.9931C23.5562 66.9931 24.201 66.7781 24.5592 66.4199C24.9175 65.99 25.1324 65.2019 25.1324 64.1272V58.8968H26.2788V61.9061C26.9236 61.8344 27.3535 61.6195 27.6401 61.1179C27.7834 60.9746 27.7834 60.6164 27.7834 60.1149H27.2819V60.2582ZM22.0516 58.3953L22.8397 56.6758H24.2727L22.9113 58.3953H22.0516Z" fill="white"/>
    <path d="M29.9328 67.9245V58.9685H31.1508L35.8796 65.99V58.9685H37.0259V67.9245H35.8079L31.0792 60.903V67.9245H29.9328Z" fill="white"/>
    <path d="M43.1877 64.4141V63.3394H46.985V66.7068C46.4118 67.1367 45.8386 67.495 45.1938 67.7816C44.549 67.9965 43.9758 68.1398 43.2593 68.1398C42.3995 68.1398 41.6114 67.9248 40.8949 67.5666C40.1784 67.2084 39.6053 66.6352 39.247 65.9187C38.8888 65.2022 38.6738 64.4141 38.6738 63.4827C38.6738 62.6229 38.8888 61.7631 39.247 61.0466C39.6053 60.2585 40.1068 59.757 40.8233 59.3271C41.5397 58.9688 42.3279 58.7539 43.1877 58.7539C43.8325 58.7539 44.4057 58.8255 44.9072 59.0405C45.4087 59.2554 45.8386 59.542 46.1252 59.9003C46.4118 60.2585 46.6268 60.76 46.77 61.4049L45.6953 61.6915C45.552 61.2616 45.4087 60.9033 45.1938 60.6168C44.9789 60.3302 44.6923 60.1152 44.334 59.9719C43.9758 59.8286 43.5459 59.757 43.116 59.757C42.5428 59.757 42.1129 59.8286 41.683 59.9719C41.3248 60.1152 40.9666 60.3302 40.7516 60.6168C40.5367 60.9033 40.3217 61.1899 40.1784 61.4765C39.9635 62.0497 39.8202 62.6229 39.8202 63.2677C39.8202 64.0558 39.9635 64.7723 40.2501 65.2739C40.5367 65.8471 40.8949 66.2053 41.4681 66.4919C41.9696 66.7785 42.5428 66.8501 43.116 66.8501C43.6175 66.8501 44.1191 66.7785 44.6206 66.5635C45.1221 66.3486 45.4804 66.1336 45.767 65.9187V64.2708H43.1877V64.4141Z" fill="white"/>
    <path d="M52.1436 67.9245V58.9685H53.29V63.4107L57.7322 58.9685H59.3084L55.5828 62.6226L59.5234 67.9245H57.9471L54.7946 63.4107L53.29 64.8436V67.9245H52.1436Z" fill="white"/>
    <path d="M60.5265 67.9245V58.9685H61.7445V62.6226H66.33V58.9685H67.548V67.9245H66.33V63.6973H61.7445V67.9245H60.5265Z" fill="white"/>
    <path d="M69.1242 63.5543C69.1242 62.0497 69.5541 60.9033 70.3422 60.0436C71.1303 59.1838 72.1334 58.7539 73.4231 58.7539C74.2829 58.7539 74.9993 58.9688 75.6442 59.3271C76.289 59.757 76.7905 60.2585 77.1488 60.975C77.507 61.6915 77.6503 62.4796 77.6503 63.411C77.6503 64.3424 77.4354 65.1306 77.0771 65.847C76.7189 66.5635 76.2173 67.1367 75.5009 67.4949C74.856 67.8532 74.1396 68.0681 73.3514 68.0681C72.4917 68.0681 71.7752 67.8532 71.0587 67.4233C70.4139 66.9934 69.9123 66.4202 69.5541 65.7754C69.3392 65.1306 69.1242 64.3424 69.1242 63.5543ZM70.3422 63.626C70.3422 64.7007 70.6288 65.5605 71.202 66.2053C71.7752 66.8501 72.4917 67.1367 73.3514 67.1367C74.2112 67.1367 74.9993 66.8501 75.5725 66.2053C76.1457 65.5605 76.4323 64.7007 76.4323 63.5543C76.4323 62.8378 76.289 62.193 76.0741 61.6198C75.8591 61.0466 75.5009 60.6167 74.9993 60.3301C74.4978 60.0436 73.9963 59.9003 73.4231 59.9003C72.5633 59.9003 71.8468 60.1869 71.2736 60.76C70.7005 61.2616 70.3422 62.2646 70.3422 63.626Z" fill="white"/>
    <path d="M78.2235 67.9245L81.6626 58.8969H82.9523L86.6063 67.9245H85.245L84.1703 65.2019H80.4446L79.4415 67.9245H78.2235ZM80.8028 64.2704H83.8121L82.8806 61.7628C82.5941 60.9746 82.3791 60.4015 82.2358 59.8999C82.0925 60.4731 81.9492 61.0463 81.7343 61.6195L80.8028 64.2704ZM81.591 58.3953L82.3791 56.6758H83.8121L82.4508 58.3953H81.591Z" fill="white"/>
    <path d="M87.5378 67.9245V58.9685H88.7558L93.4845 65.99V58.9685H94.5592V67.9245H93.4129L88.6841 60.903V67.9245H87.5378Z" fill="white"/>
    <path d="M102.082 67.9245V60.0432H99.1447V58.9685H106.238V60.0432H103.3V67.9245H102.082Z" fill="white"/>
    <path d="M106.453 67.9246L109.892 58.897H111.182L114.836 67.9246H113.474L112.4 65.202H108.674L107.671 67.9246H106.453ZM110.537 57.3924L109.82 58.4671H108.531L109.82 56.7476H110.967L112.328 58.4671H111.11L110.537 57.3924ZM143.352 57.3924L142.635 58.4671H141.345L142.635 56.7476H143.781L145.143 58.4671H143.996L143.352 57.3924ZM109.032 64.2706H112.041L111.11 61.7629C110.823 60.9748 110.608 60.4016 110.465 59.9001C110.322 60.4733 110.179 61.0464 109.964 61.6196L109.032 64.2706Z" fill="white"/>
    <path d="M115.767 67.9245V58.9685H116.985L121.714 65.99V58.9685H122.789V67.9245H121.642L116.913 60.903V67.9245H115.767Z" fill="white"/>
    <path d="M130.813 67.9249L127.374 58.8972H128.664L130.956 65.4172C131.171 65.9187 131.315 66.4203 131.458 66.9218C131.601 66.4203 131.745 65.9187 131.959 65.4172L134.396 58.8972H135.614L132.103 67.9249H130.813Z" fill="white"/>
    <path d="M137.978 58.9685H136.832V67.9962H137.978V58.9685Z" fill="white"/>
    <path d="M140.127 67.9249V58.8972H146.576V59.9719H141.274V62.6946H146.217V63.7693H141.274V66.8501H146.791V67.9249H140.127ZM142.85 68.713H144.068V70.0026H142.85V68.713Z" fill="white"/>
    <path d="M150.66 67.9245V60.0432H147.722V58.9685H154.815V60.0432H151.878V67.9245H150.66Z" fill="white"/>
    <path d="M46.0536 26.2256L25.7772 46.502L10.5879 31.3126L25.9922 15.9083L28.8581 18.7025L16.5347 31.026L25.7772 40.3402L44.1908 21.9267H50.5674C49.0628 9.60326 38.5306 0.00244141 25.7772 0.00244141C12.3791 0.00244141 1.48858 10.5347 0.84375 23.7179H5.50087L6.43229 22.7865L25.7056 3.51319L39.462 17.2696L40.8233 18.6309L25.419 34.0352L22.6247 31.2409L34.9482 18.9175L25.6339 9.60326L7.29206 27.9451H0.915402C2.42001 40.2686 12.9523 49.8694 25.7056 49.8694C39.1037 49.8694 49.9942 39.3372 50.6391 26.0823H46.0536V26.2256Z" fill="white"/>
    <path d="M55.2245 12.8273L55.7977 9.24487H82.7373L84.4569 12.8989C84.4569 12.8989 79.4415 11.6093 75.5725 11.7526H72.9216V34.8948C72.9216 35.1098 72.9216 35.468 72.9932 35.9695C73.1365 37.8324 73.3514 39.4803 73.7097 40.77H64.9686C65.4702 38.9788 65.6851 36.9726 65.6851 34.8232V11.7526H63.0341C62.1744 11.7526 60.5265 11.8958 58.1621 12.2541C57.8755 12.2541 57.5172 12.3257 56.9441 12.3974L56.1559 12.5407L55.2245 12.8273Z" fill="white"/>
    <path d="M84.4569 9.1731H94.4876C94.416 10.6061 94.6309 12.039 95.1325 13.472L95.5624 14.7616L96.1356 16.1946L102.87 33.7483L109.175 14.2601C109.462 13.1854 109.677 12.254 109.677 11.4658C109.677 10.7494 109.534 9.96122 109.247 9.1731H116.484C115.552 10.1045 114.406 12.3256 113.976 13.472L113.761 14.1168L112.901 16.1946C112.615 16.9111 111.898 18.7023 110.823 21.4965C107.814 29.5928 105.521 35.9694 104.017 40.7698H97.4969C95.9206 36.1127 93.4846 29.6644 90.1171 21.4965C89.6156 20.3502 88.8275 18.6306 87.896 16.2662L87.7527 15.908L87.6094 15.6214L85.7466 11.5375C85.46 10.9643 85.0301 10.2478 84.4569 9.1731Z" fill="white"/>
    <path d="M117.988 39.0505L118.776 34.7516C119.636 35.5397 120.496 36.0413 121.427 36.6144C123.648 37.9041 125.726 38.5489 127.732 38.5489C129.309 38.5489 130.598 38.119 131.673 37.2593C132.748 36.3995 133.321 35.2531 133.321 33.7485C133.321 32.1723 131.96 30.5244 129.165 28.8048L126.156 26.942C123.362 25.2224 121.427 23.7178 120.353 22.2848C119.349 20.9952 118.776 19.4189 118.776 17.6277C118.776 15.1917 119.564 13.1856 121.356 11.6093C123.075 10.0331 125.511 9.10163 128.735 8.74339C130.312 8.60009 132.389 8.74339 134.754 9.10163C135.04 9.17328 135.47 9.24492 136.043 9.38822L137.118 9.53151L138.981 9.74645L139.483 14.4036L138.909 13.9737L138.265 13.6155C135.757 11.9675 133.392 11.1794 131.171 11.1794C129.81 11.1794 128.664 11.5377 127.732 12.2541C126.658 13.0423 126.156 14.117 126.156 15.4783C126.156 16.2664 126.371 16.9829 126.801 17.6994C127.446 18.7741 129.022 20.0638 131.745 21.5684C132.031 21.7117 132.461 21.9266 133.034 22.2848C133.607 22.5714 134.109 22.858 134.467 23.1446C136.115 24.076 137.405 25.0075 138.265 25.7956C139.912 27.3002 140.772 29.2347 140.772 31.4558C140.772 33.032 140.271 34.6083 139.339 36.1129C138.408 37.6175 137.047 38.8355 135.255 39.767C132.891 40.985 130.097 41.5581 126.801 41.4148C125.44 41.3432 123.648 40.985 121.427 40.3401C120.854 40.1968 120.424 40.0535 120.066 39.9102L119.349 39.6236L117.988 39.0505Z" fill="white"/>
    <path d="M145.931 40.77C146.289 39.6236 146.576 38.1907 146.647 36.6144L146.719 36.3994L146.791 34.1067L146.719 13.4721C146.647 11.8242 146.432 10.3912 146.002 9.24487H154.744C154.242 10.6778 154.027 12.1108 154.027 13.4721L153.955 16.1231L154.027 36.6144C154.099 38.119 154.314 39.4803 154.672 40.77H145.931Z" fill="white"/>
</svg>
