<svg width="25" height="25" viewBox="0 0 25 25" fill="none" xmlns="http://www.w3.org/2000/svg">
    <path d="M13.41 2.76814L13.38 2.83814L10.48 9.56814H7.62996C6.94996 9.56814 6.29996 9.70814 5.70996 9.95814L7.45996 5.77814L7.49996 5.67814L7.56996 5.51814C7.58996 5.45814 7.60996 5.39814 7.63996 5.34814C8.94996 2.31814 10.43 1.62814 13.41 2.76814Z" stroke="#B7B6BD" stroke-width="1.5" stroke-linecap="round" stroke-linejoin="round"/>
    <path d="M18.8 9.76814C18.35 9.62814 17.87 9.56814 17.39 9.56814H10.48L13.38 2.83814L13.41 2.76814C13.56 2.81814 13.7 2.88814 13.85 2.94814L16.06 3.87814C17.29 4.38814 18.15 4.91814 18.67 5.55814C18.77 5.67814 18.85 5.78814 18.92 5.91814C19.01 6.05814 19.08 6.19814 19.12 6.34814C19.16 6.43814 19.19 6.52814 19.21 6.60814C19.48 7.44814 19.32 8.47814 18.8 9.76814Z" stroke="#B7B6BD" stroke-width="1.5" stroke-linecap="round" stroke-linejoin="round"/>
    <path d="M22.2717 14.4484V16.3984C22.2717 16.5984 22.2617 16.7984 22.2517 16.9984C22.0617 20.4884 20.1117 22.2484 16.4117 22.2484H8.61172C8.37172 22.2484 8.13172 22.2284 7.90172 22.1984C4.72172 21.9884 3.02172 20.2884 2.81172 17.1084C2.78172 16.8784 2.76172 16.6384 2.76172 16.3984V14.4484C2.76172 12.4384 3.98172 10.7084 5.72172 9.95836C6.32172 9.70836 6.96172 9.56836 7.64172 9.56836H17.4017C17.8917 9.56836 18.3717 9.63836 18.8117 9.76836C20.8017 10.3784 22.2717 12.2384 22.2717 14.4484Z" stroke="#B7B6BD" stroke-width="1.5" stroke-linecap="round" stroke-linejoin="round"/>
    <path d="M7.46 5.77814L5.71 9.95814C3.97 10.7081 2.75 12.4381 2.75 14.4481V11.5181C2.75 8.67814 4.77 6.30814 7.46 5.77814Z" stroke="#B7B6BD" stroke-width="1.5" stroke-linecap="round" stroke-linejoin="round"/>
    <path d="M22.2686 11.5177V14.4477C22.2686 12.2477 20.8086 10.3777 18.8086 9.77766C19.3286 8.47766 19.4786 7.45766 19.2286 6.60766C19.2086 6.51766 19.1786 6.42766 19.1386 6.34766C20.9986 7.30766 22.2686 9.27766 22.2686 11.5177Z" stroke="#B7B6BD" stroke-width="1.5" stroke-linecap="round" stroke-linejoin="round"/>
</svg>
