<svg width="25" height="25" viewBox="0 0 25 25" fill="none" xmlns="http://www.w3.org/2000/svg">
    <path d="M20.05 8.16998V13.32C20.05 16.4 18.29 17.72 15.65 17.72H6.85995C6.40995 17.72 5.97996 17.68 5.57996 17.59C5.32996 17.55 5.08996 17.48 4.86996 17.4C3.36996 16.84 2.45996 15.54 2.45996 13.32V8.16998C2.45996 5.08998 4.21995 3.77002 6.85995 3.77002H15.65C17.89 3.77002 19.5 4.72001 19.93 6.89001C20 7.29001 20.05 7.69998 20.05 8.16998Z" stroke="#B7B6BD" stroke-width="1.5" stroke-miterlimit="10" stroke-linecap="round" stroke-linejoin="round"/>
    <path d="M23.0511 11.1701V16.3201C23.0511 19.4001 21.2911 20.7201 18.6511 20.7201H9.86105C9.12105 20.7201 8.45106 20.6201 7.87106 20.4001C6.68106 19.9601 5.87105 19.0501 5.58105 17.5901C5.98105 17.6801 6.41105 17.7201 6.86105 17.7201H15.6511C18.2911 17.7201 20.0511 16.4001 20.0511 13.3201V8.1701C20.0511 7.7001 20.0111 7.28014 19.9311 6.89014C21.8311 7.29014 23.0511 8.63011 23.0511 11.1701Z" stroke="#B7B6BD" stroke-width="1.5" stroke-miterlimit="10" stroke-linecap="round" stroke-linejoin="round"/>
    <path d="M11.2484 13.3899C12.7064 13.3899 13.8884 12.2079 13.8884 10.7499C13.8884 9.29185 12.7064 8.10986 11.2484 8.10986C9.79038 8.10986 8.6084 9.29185 8.6084 10.7499C8.6084 12.2079 9.79038 13.3899 11.2484 13.3899Z" stroke="#B7B6BD" stroke-width="1.5" stroke-miterlimit="10" stroke-linecap="round" stroke-linejoin="round"/>
    <path d="M5.53003 8.54999V12.95" stroke="#B7B6BD" stroke-width="1.5" stroke-miterlimit="10" stroke-linecap="round" stroke-linejoin="round"/>
    <path d="M16.9717 8.55029V12.9503" stroke="#B7B6BD" stroke-width="1.5" stroke-miterlimit="10" stroke-linecap="round" stroke-linejoin="round"/>
</svg>
