<svg width="25" height="25" viewBox="0 0 25 25" fill="none" xmlns="http://www.w3.org/2000/svg">
    <path d="M17.75 20.75H7.75C4.75 20.75 2.75 19.25 2.75 15.75V8.75C2.75 5.25 4.75 3.75 7.75 3.75H17.75C20.75 3.75 22.75 5.25 22.75 8.75V15.75C22.75 19.25 20.75 20.75 17.75 20.75Z" stroke="#B7B6BD" stroke-width="1.5" stroke-miterlimit="10" stroke-linecap="round" stroke-linejoin="round"/>
    <path d="M12.75 15.25C14.4069 15.25 15.75 13.9069 15.75 12.25C15.75 10.5931 14.4069 9.25 12.75 9.25C11.0931 9.25 9.75 10.5931 9.75 12.25C9.75 13.9069 11.0931 15.25 12.75 15.25Z" stroke="#B7B6BD" stroke-width="1.5" stroke-miterlimit="10" stroke-linecap="round" stroke-linejoin="round"/>
    <path d="M2.75 9.25H3.75C6.75 9.25 7.75 8.25 7.75 5.25V4.25" stroke="#B7B6BD" stroke-width="1.5" stroke-miterlimit="10" stroke-linecap="round" stroke-linejoin="round"/>
    <path d="M22.75 9.25H21.75C18.75 9.25 17.75 8.25 17.75 5.25V4.25" stroke="#B7B6BD" stroke-width="1.5" stroke-miterlimit="10" stroke-linecap="round" stroke-linejoin="round"/>
    <path d="M2.75 15.25H3.75C6.75 15.25 7.75 16.25 7.75 19.25V20.25" stroke="#B7B6BD" stroke-width="1.5" stroke-miterlimit="10" stroke-linecap="round" stroke-linejoin="round"/>
    <path d="M22.75 15.25H21.75C18.75 15.25 17.75 16.25 17.75 19.25V20.25" stroke="#B7B6BD" stroke-width="1.5" stroke-miterlimit="10" stroke-linecap="round" stroke-linejoin="round"/>
</svg>
