<svg width="25" height="25" viewBox="0 0 25 25" fill="none" xmlns="http://www.w3.org/2000/svg">
    <path d="M12.75 5.81H22.75" stroke="#B7B6BD" stroke-width="1.5" stroke-miterlimit="10" stroke-linecap="round" stroke-linejoin="round"/>
    <path d="M14.97 2.25H20.53C22.31 2.25 22.75 2.69 22.75 4.45V8.56C22.75 10.32 22.31 10.76 20.53 10.76H14.97C13.19 10.76 12.75 10.32 12.75 8.56V4.45C12.75 2.69 13.19 2.25 14.97 2.25Z" stroke="#B7B6BD" stroke-width="1.5" stroke-linecap="round" stroke-linejoin="round"/>
    <path d="M2.75 17.31H12.75" stroke="#B7B6BD" stroke-width="1.5" stroke-miterlimit="10" stroke-linecap="round" stroke-linejoin="round"/>
    <path d="M4.97 13.75H10.53C12.31 13.75 12.75 14.19 12.75 15.95V20.06C12.75 21.82 12.31 22.26 10.53 22.26H4.97C3.19 22.26 2.75 21.82 2.75 20.06V15.95C2.75 14.19 3.19 13.75 4.97 13.75Z" stroke="#B7B6BD" stroke-width="1.5" stroke-linecap="round" stroke-linejoin="round"/>
    <path d="M22.75 15.25C22.75 19.12 19.62 22.25 15.75 22.25L16.8 20.5" stroke="#B7B6BD" stroke-width="1.5" stroke-linecap="round" stroke-linejoin="round"/>
    <path d="M2.75 9.25C2.75 5.38 5.88 2.25 9.75 2.25L8.70001 4" stroke="#B7B6BD" stroke-width="1.5" stroke-linecap="round" stroke-linejoin="round"/>
</svg>
