<svg width="25" height="25" viewBox="0 0 25 25" fill="none" xmlns="http://www.w3.org/2000/svg">
    <path d="M2.75 17.31H12.75" stroke="#B7B6BD" stroke-width="1.5" stroke-miterlimit="10" stroke-linecap="round" stroke-linejoin="round"/>
    <path d="M4.96997 13.75H10.53C12.31 13.75 12.75 14.19 12.75 15.95V20.06C12.75 21.82 12.31 22.26 10.53 22.26H4.96997C3.18997 22.26 2.75 21.82 2.75 20.06V15.95C2.75 14.19 3.18997 13.75 4.96997 13.75Z" stroke="#B7B6BD" stroke-width="1.5" stroke-linecap="round" stroke-linejoin="round"/>
    <path d="M22.75 15.25C22.75 19.12 19.62 22.25 15.75 22.25L16.8 20.5" stroke="#B7B6BD" stroke-width="1.5" stroke-linecap="round" stroke-linejoin="round"/>
    <path d="M2.75 9.25C2.75 5.38 5.88 2.25 9.75 2.25L8.70001 4" stroke="#B7B6BD" stroke-width="1.5" stroke-linecap="round" stroke-linejoin="round"/>
    <path d="M19.25 11.25C21.7353 11.25 23.75 9.23528 23.75 6.75C23.75 4.26472 21.7353 2.25 19.25 2.25C16.7647 2.25 14.75 4.26472 14.75 6.75C14.75 9.23528 16.7647 11.25 19.25 11.25Z" stroke="#B7B6BD" stroke-width="1.5" stroke-linecap="round" stroke-linejoin="round"/>
</svg>
