<svg width="25" height="25" viewBox="0 0 25 25" fill="none" xmlns="http://www.w3.org/2000/svg">
    <path d="M22.99 8.67L22.99 8.67251C22.9944 9.55193 22.7026 10.2505 22.2261 10.7281C21.7494 11.2058 21.0502 11.5 20.17 11.5H16.75C16.6161 11.5 16.5 11.3839 16.5 11.25V4.26C16.5 3.65411 16.7362 3.09086 17.1636 2.66355C17.5909 2.23625 18.1541 2 18.76 2H18.768C19.8853 2.00944 20.9393 2.44633 21.7465 3.24356C22.5532 4.06029 22.99 5.13335 22.99 6.25L22.99 8.67ZM17 10.5V11H17.5H20.17C20.8454 11 21.4439 10.8032 21.8736 10.3736C22.3032 9.9439 22.5 9.3454 22.5 8.67V6.25C22.5 5.25635 22.1067 4.31109 21.4064 3.59933L21.4065 3.59929L21.4006 3.59354C20.6985 2.90292 19.7549 2.51155 18.7759 2.50003L18.7759 2.5H18.77H18.77H18.77H18.77H18.77H18.77H18.77H18.77H18.77H18.77H18.77H18.77H18.77H18.77H18.77H18.77H18.77H18.77H18.77H18.77H18.77H18.77H18.77H18.7699H18.7699H18.7699H18.7699H18.7699H18.7699H18.7699H18.7699H18.7699H18.7699H18.7699H18.7699H18.7699H18.7699H18.7699H18.7699H18.7699H18.7699H18.7699H18.7699H18.7699H18.7699H18.7699H18.7699H18.7699H18.7699H18.7699H18.7699H18.7699H18.7699H18.7699H18.7699H18.7699H18.7699H18.7699H18.7699H18.7699H18.7698H18.7698H18.7698H18.7698H18.7698H18.7698H18.7698H18.7698H18.7698H18.7698H18.7698H18.7698H18.7698H18.7698H18.7698H18.7698H18.7698H18.7698H18.7698H18.7698H18.7698H18.7698H18.7698H18.7697H18.7697H18.7697H18.7697H18.7697H18.7697H18.7697H18.7697H18.7697H18.7697H18.7697H18.7697H18.7697H18.7697H18.7697H18.7697H18.7697H18.7696H18.7696H18.7696H18.7696H18.7696H18.7696H18.7696H18.7696H18.7696H18.7696H18.7696H18.7696H18.7696H18.7696H18.7696H18.7695H18.7695H18.7695H18.7695H18.7695H18.7695H18.7695H18.7695H18.7695H18.7695H18.7695H18.7695H18.7694H18.7694H18.7694H18.7694H18.7694H18.7694H18.7694H18.7694H18.7694H18.7694H18.7694H18.7693H18.7693H18.7693H18.7693H18.7693H18.7693H18.7693H18.7693H18.7693H18.7693H18.7692H18.7692H18.7692H18.7692H18.7692H18.7692H18.7692H18.7692H18.7692H18.7692H18.7691H18.7691H18.7691H18.7691H18.7691H18.7691H18.7691H18.7691H18.769H18.769H18.769H18.769H18.769H18.769H18.769H18.769H18.7689H18.7689H18.7689H18.7689H18.7689H18.7689H18.7689H18.7688H18.7688H18.7688H18.7688H18.7688H18.7688H18.7688H18.7687H18.7687H18.7687H18.7687H18.7687H18.7687H18.7687H18.7686H18.7686H18.7686H18.7686H18.7686H18.7686H18.7685H18.7685H18.7685H18.7685H18.7685H18.7685H18.7684H18.7684H18.7684H18.7684H18.7684H18.7684H18.7683H18.7683H18.7683H18.7683H18.7683H18.7683H18.7682H18.7682H18.7682H18.7682H18.7682H18.7681H18.7681H18.7681H18.7681H18.7681H18.768H18.768H18.768H18.768H18.768H18.7679H18.7679H18.7679H18.7679H18.7679H18.7678H18.7678H18.7678H18.7678H18.7678H18.7677H18.7677H18.7677H18.7677H18.7676H18.7676H18.7676H18.7676H18.7676H18.7675H18.7675H18.7675H18.7675H18.7674H18.7674H18.7674H18.7674H18.7673H18.7673H18.7673H18.7673H18.7672H18.7672H18.7672H18.7672H18.7671H18.7671H18.7671H18.7671H18.767H18.767H18.767H18.767H18.7669H18.7669H18.7669H18.7669H18.7668H18.7668H18.7668H18.7667H18.7667H18.7667H18.7667H18.7666H18.7666H18.7666H18.7665H18.7665H18.7665H18.7665H18.7664H18.7664H18.7664H18.7663H18.7663H18.7663H18.7663H18.7662H18.7662H18.7662H18.7661H18.7661H18.7661H18.766H18.766H18.766H18.7659H18.7659H18.7659H18.7658H18.7658H18.7658H18.7657H18.7657H18.7657H18.7656H18.7656H18.7656H18.7655H18.7655H18.7655H18.7654H18.7654H18.7654H18.7653H18.7653H18.7653H18.7652H18.7652H18.7652H18.7651H18.7651H18.765H18.765H18.765H18.7649H18.7649H18.7649H18.7648H18.7648H18.7647H18.7647H18.7647H18.7646H18.7646H18.7646H18.7645H18.7645H18.7644H18.7644H18.7644H18.7643H18.7643H18.7642H18.7642H18.7642H18.7641H18.7641H18.764H18.764H18.7639H18.7639H18.7639H18.7638H18.7638H18.7637H18.7637H18.7636H18.7636H18.7636H18.7635H18.7635H18.7634H18.7634H18.7633H18.7633H18.7633H18.7632H18.7632H18.7631H18.7631H18.763H18.763H18.7629H18.7629H18.7628H18.7628H18.7627H18.7627H18.7626H18.7626H18.7626H18.7625H18.7625H18.7624H18.7624H18.7623H18.7623H18.7622H18.7622H18.7621H18.7621H18.762H18.762H18.7619H18.7619H18.7618H18.7618H18.7617H18.7617H18.7616H18.7615H18.7615H18.7614H18.7614H18.7613H18.7613H18.7612H18.7612H18.7611H18.7611H18.761H18.761H18.7609H18.7608H18.7608H18.7607H18.7607H18.7606H18.7606H18.7605H18.7605H18.7604H18.7603H18.7603H18.7602H18.7602H18.7601H18.7601H18.76C18.298 2.5 17.8506 2.68225 17.5164 3.01645C17.1837 3.34915 17 3.78589 17 4.26V10.5Z" fill="#292D32" stroke="#B7B6BD"/>
    <path d="M9.74977 23.08H9.73914L9.72851 23.0805C9.4194 23.0936 9.11285 22.9635 8.86856 22.7118L8.86858 22.7117L8.86438 22.7075L7.20439 21.0375L7.20333 21.0364C6.94081 20.7739 6.51958 20.7364 6.21536 20.9733L4.51014 22.2497L4.50857 22.2509C4.12819 22.538 3.6313 22.5867 3.20337 22.3728C2.77303 22.1576 2.50977 21.7309 2.50977 21.25V6.25C2.50977 4.83436 2.91355 3.78832 3.60582 3.09605C4.29808 2.40379 5.34412 2 6.75977 2H18.7598C18.8936 2 19.0098 2.11614 19.0098 2.25C19.0098 2.38386 18.8936 2.5 18.7598 2.5C17.7936 2.5 17.0098 3.28386 17.0098 4.25V21.25C17.0098 21.7309 16.7465 22.1576 16.3162 22.3728C15.8827 22.5895 15.3865 22.5443 15.011 22.2609L15.0094 22.2597L13.3042 20.9833C12.9846 20.7344 12.5642 20.8085 12.3262 21.0464L10.652 22.7207C10.4029 22.9528 10.0865 23.08 9.74977 23.08ZM7.55114 20.6884L7.55111 20.6884L7.55516 20.6925L9.21516 22.3625L9.21623 22.3636C9.41252 22.5598 9.65275 22.58 9.74977 22.58H10.2498V22.3947C10.261 22.385 10.2722 22.3746 10.2833 22.3636L11.9633 20.6836C12.4052 20.2417 13.1035 20.1989 13.5952 20.5765L13.5952 20.5766L13.6005 20.5806L15.3005 21.8506L15.3005 21.8506L15.3057 21.8544C15.6219 22.0843 15.9469 22.0008 16.117 21.8987C16.1877 21.8564 16.4998 21.667 16.4998 21.25V4.25C16.4998 3.88092 16.5902 3.52907 16.7446 3.2284L17.1186 2.5H16.2998H6.74977C5.57212 2.5 4.60514 2.77253 3.93872 3.43895C3.2723 4.10537 2.99977 5.07235 2.99977 6.25V21.25C2.99977 21.6679 3.29751 21.8577 3.38252 21.9087L3.39898 21.9186L3.41616 21.9272C3.59077 22.0145 3.90921 22.0772 4.20444 21.8465L5.90769 20.5715C5.90802 20.5713 5.90834 20.5711 5.90866 20.5708C6.13255 20.405 6.39778 20.32 6.65977 20.32C6.99524 20.32 7.31241 20.4426 7.55114 20.6884Z" fill="#292D32" stroke="#B7B6BD"/>
    <path d="M12.5 10.5H7C6.86614 10.5 6.75 10.3839 6.75 10.25C6.75 10.1161 6.86614 10 7 10H12.5C12.6339 10 12.75 10.1161 12.75 10.25C12.75 10.3839 12.6339 10.5 12.5 10.5Z" fill="#292D32" stroke="#B7B6BD"/>
    <path d="M9.75 13.25C9.61614 13.25 9.5 13.1339 9.5 13V7.5C9.5 7.36614 9.61614 7.25 9.75 7.25C9.88386 7.25 10 7.36614 10 7.5V13C10 13.1339 9.88386 13.25 9.75 13.25Z" fill="#292D32" stroke="#B7B6BD"/>
</svg>
