<svg width="25" height="25" viewBox="0 0 25 25" fill="none" xmlns="http://www.w3.org/2000/svg">
    <path d="M12.75 22.25H17.75C20.75 22.25 22.75 20.25 22.75 17.25V12.25C22.75 9.55 21.05 7.55 18.55 7.25C18.35 7.25 18.05 7.25 17.75 7.25H7.75C7.45 7.25 7.25 7.24998 6.95 7.34998C4.35 7.64998 2.75 9.55 2.75 12.25C2.75 12.55 2.75 12.95 2.75 13.25" stroke="#B7B6BD" stroke-width="1.5" stroke-linecap="round" stroke-linejoin="round"/>
    <path d="M18.55 7.25001C18.35 7.25001 18.05 7.25001 17.75 7.25001H7.74995C7.44995 7.25001 7.24995 7.24999 6.94995 7.34999C7.04995 7.04999 7.24996 6.85 7.54996 6.55L10.75 3.25001C12.15 1.85001 14.35 1.85001 15.75 3.25001L17.55 5.05C18.15 5.65 18.45 6.45001 18.55 7.25001Z" stroke="#B7B6BD" stroke-width="1.5" stroke-linecap="round" stroke-linejoin="round"/>
    <path d="M22.75 12.75H19.75C18.65 12.75 17.75 13.65 17.75 14.75C17.75 15.85 18.65 16.75 19.75 16.75H22.75" stroke="#B7B6BD" stroke-width="1.5" stroke-linecap="round" stroke-linejoin="round"/>
    <path d="M6.55157 21.65C8.32157 21.65 9.75156 20.22 9.75156 18.45C9.75156 16.68 8.32157 15.25 6.55157 15.25C4.78157 15.25 3.35156 16.68 3.35156 18.45C3.35156 20.22 4.78157 21.65 6.55157 21.65Z" stroke="#B7B6BD" stroke-width="1.5" stroke-linecap="round" stroke-linejoin="round"/>
    <path d="M2.75 22.25L3.75 21.25" stroke="#B7B6BD" stroke-width="1.5" stroke-linecap="round" stroke-linejoin="round"/>
</svg>
