<svg width="25" height="25" viewBox="0 0 25 25" fill="none" xmlns="http://www.w3.org/2000/svg">
    <path d="M9.32007 15.52L15.86 8.98001" stroke="#B7B6BD" stroke-width="1.5" stroke-linecap="round" stroke-linejoin="round"/>
    <path d="M9.73001 10.62C10.4093 10.62 10.96 10.0693 10.96 9.39001C10.96 8.7107 10.4093 8.16 9.73001 8.16C9.0507 8.16 8.5 8.7107 8.5 9.39001C8.5 10.0693 9.0507 10.62 9.73001 10.62Z" stroke="#B7B6BD" stroke-width="1.5" stroke-linecap="round" stroke-linejoin="round"/>
    <path d="M16.27 16.34C16.9493 16.34 17.5 15.7893 17.5 15.11C17.5 14.4307 16.9493 13.88 16.27 13.88C15.5907 13.88 15.04 14.4307 15.04 15.11C15.04 15.7893 15.5907 16.34 16.27 16.34Z" stroke="#B7B6BD" stroke-width="1.5" stroke-linecap="round" stroke-linejoin="round"/>
    <path d="M12.75 22.25C18.2728 22.25 22.75 17.7728 22.75 12.25C22.75 6.72715 18.2728 2.25 12.75 2.25C7.22715 2.25 2.75 6.72715 2.75 12.25C2.75 17.7728 7.22715 22.25 12.75 22.25Z" stroke="#B7B6BD" stroke-width="1.5" stroke-linecap="round" stroke-linejoin="round"/>
</svg>
