<svg width="25" height="25" viewBox="0 0 25 25" fill="none" xmlns="http://www.w3.org/2000/svg">
    <path d="M7.48 19.95C8.3 19.07 9.55 19.14 10.27 20.1L11.28 21.45C12.09 22.52 13.4 22.52 14.21 21.45L15.22 20.1C15.94 19.14 17.19 19.07 18.01 19.95C19.79 21.85 21.24 21.22 21.24 18.56V7.29C21.25 3.26 20.31 2.25 16.53 2.25H8.97C5.19 2.25 4.25 3.26 4.25 7.29V18.55C4.25 21.22 5.71 21.84 7.48 19.95Z" stroke="#B7B6BD" stroke-width="1.5" stroke-linecap="round" stroke-linejoin="round"/>
    <path d="M8.84607 11.25H8.85505" stroke="#B7B6BD" stroke-width="2" stroke-linecap="round" stroke-linejoin="round"/>
    <path d="M11.6484 11.25H17.1484" stroke="#B7B6BD" stroke-width="1.5" stroke-linecap="round" stroke-linejoin="round"/>
    <path d="M8.84607 7.25H8.85505" stroke="#B7B6BD" stroke-width="2" stroke-linecap="round" stroke-linejoin="round"/>
    <path d="M11.6484 7.25H17.1484" stroke="#B7B6BD" stroke-width="1.5" stroke-linecap="round" stroke-linejoin="round"/>
</svg>
