<svg width="25" height="25" viewBox="0 0 25 25" fill="none" xmlns="http://www.w3.org/2000/svg">
    <path d="M18.79 13.8C18.37 14.21 18.13 14.8 18.19 15.43C18.28 16.51 19.27 17.3 20.35 17.3H22.25V18.49C22.25 20.56 20.56 22.25 18.49 22.25H8.38C8.69 21.99 8.96 21.67 9.17 21.31C9.54 20.71 9.75 20 9.75 19.25C9.75 17.04 7.96 15.25 5.75 15.25C4.81 15.25 3.94 15.58 3.25 16.13V11.76C3.25 9.69001 4.93999 8 7.00999 8H18.49C20.56 8 22.25 9.69001 22.25 11.76V13.2H20.23C19.67 13.2 19.16 13.42 18.79 13.8Z" stroke="#B7B6BD" stroke-width="1.5" stroke-linecap="round" stroke-linejoin="round"/>
    <path d="M3.25 12.66V8.09004C3.25 6.90004 3.98 5.84 5.09 5.42L13.03 2.42C14.27 1.95 15.6 2.87003 15.6 4.20003V8.00002" stroke="#B7B6BD" stroke-width="1.5" stroke-linecap="round" stroke-linejoin="round"/>
    <path d="M23.3088 14.2202V16.2802C23.3088 16.8302 22.8688 17.2802 22.3088 17.3002H20.3488C19.2688 17.3002 18.2788 16.5102 18.1888 15.4302C18.1288 14.8002 18.3688 14.2102 18.7888 13.8002C19.1588 13.4202 19.6688 13.2002 20.2288 13.2002H22.3088C22.8688 13.2202 23.3088 13.6702 23.3088 14.2202Z" stroke="#B7B6BD" stroke-width="1.5" stroke-linecap="round" stroke-linejoin="round"/>
    <path d="M7.75 12.25H14.75" stroke="#B7B6BD" stroke-width="1.5" stroke-linecap="round" stroke-linejoin="round"/>
    <path d="M9.75 19.25C9.75 20 9.54 20.71 9.17 21.31C8.96 21.67 8.69 21.99 8.38 22.25C7.68 22.88 6.76 23.25 5.75 23.25C4.29 23.25 3.02 22.47 2.33 21.31C1.96 20.71 1.75 20 1.75 19.25C1.75 17.99 2.33 16.86 3.25 16.13C3.94 15.58 4.81 15.25 5.75 15.25C7.96 15.25 9.75 17.04 9.75 19.25Z" stroke="#B7B6BD" stroke-width="1.5" stroke-miterlimit="10" stroke-linecap="round" stroke-linejoin="round"/>
    <path d="M4.19141 19.2495L5.1814 20.2395L7.3114 18.2695" stroke="#B7B6BD" stroke-width="1.5" stroke-linecap="round" stroke-linejoin="round"/>
</svg>
