<svg width="25" height="25" viewBox="0 0 25 25" fill="none" xmlns="http://www.w3.org/2000/svg">
    <path d="M20.25 12.75C20.25 11.37 21.37 10.25 22.75 10.25V9.25C22.75 5.25 21.75 4.25 17.75 4.25H7.75C3.75 4.25 2.75 5.25 2.75 9.25V9.75C4.13 9.75 5.25 10.87 5.25 12.25C5.25 13.63 4.13 14.75 2.75 14.75V15.25C2.75 19.25 3.75 20.25 7.75 20.25H17.75C21.75 20.25 22.75 19.25 22.75 15.25C21.37 15.25 20.25 14.13 20.25 12.75Z" stroke="#B7B6BD" stroke-width="1.5" stroke-linecap="round" stroke-linejoin="round"/>
    <path d="M10.75 4.25L10.75 20.25" stroke="#B7B6BD" stroke-width="1.5" stroke-linecap="round" stroke-linejoin="round" stroke-dasharray="5 5"/>
</svg>
