<svg width="137" height="80" viewBox="0 0 137 80" fill="none" xmlns="http://www.w3.org/2000/svg">
    <path d="M99.3311 14.7683V24.7856H97.0562V14.7683H99.3311Z" fill="#221F1F"/>
    <path fill-rule="evenodd" clip-rule="evenodd" d="M5.99566 0H59.0357C62.1276 0 64.6665 2.52632 64.6665 5.63079V27.89V58.6709C64.6665 61.7628 62.1402 64.3017 59.0357 64.3017H5.99566C2.89118 64.2891 0.364868 61.7628 0.364868 58.6709V27.89V5.63079C0.364868 2.52632 2.89118 0 5.99566 0Z" fill="white"/>
    <path fill-rule="evenodd" clip-rule="evenodd" d="M57.628 1.70923H7.39079C4.46227 1.70923 2.06165 4.10986 2.06165 7.03837V57.2756C2.06165 60.2041 4.46227 62.6048 7.39079 62.6048H57.628C60.5565 62.6048 62.9572 60.2041 62.9572 57.2756V7.0258C62.9572 4.09729 60.5565 1.70923 57.628 1.70923Z" fill="#ED1C24"/>
    <path d="M69.87 32.6661C71.7176 32.3644 74.4576 32.1382 77.4992 32.1382C81.2573 32.1382 83.8967 32.7038 85.694 34.124C87.2023 35.3306 88.0192 37.0903 88.0192 39.4281C88.0192 42.6582 85.7192 44.8829 83.5448 45.6747V45.7878C85.317 46.5042 86.2848 48.1885 86.9258 50.5262C87.7176 53.3793 88.5094 56.6975 88.9996 57.6653H83.13C82.7152 56.9489 82.1119 54.8876 81.3578 51.758C80.6791 48.6032 79.5856 47.736 77.2604 47.6983H75.5259V57.6653H69.87V32.6661ZM75.5511 43.5757H77.8009C80.654 43.5757 82.3508 42.1429 82.3508 39.9308C82.3508 37.6056 80.7671 36.4367 78.1402 36.399C76.7451 36.399 75.9533 36.5121 75.5511 36.5875V43.5757Z" fill="#ED1C24"/>
    <path d="M96.5157 32.3267V57.6652H90.7592V32.3267H96.5157Z" fill="#ED1C24"/>
    <path d="M117.983 56.949C116.927 57.4769 114.564 58.0425 111.485 58.0425C102.725 58.0425 98.2125 52.5877 98.2125 45.3732C98.2125 36.7259 104.384 31.9121 112.051 31.9121C115.017 31.9121 117.279 32.5154 118.297 33.0433L117.128 37.5932C115.96 37.103 114.351 36.6505 112.315 36.6505C107.765 36.6505 104.233 39.3905 104.233 45.0339C104.233 50.1116 107.237 53.3041 112.352 53.3041C114.087 53.3041 115.997 52.927 117.128 52.4746L117.983 56.949Z" fill="#ED1C24"/>
    <path d="M135.542 46.9567H126.216V52.9771H136.635V57.6778H120.459V32.3267H136.107V37.0274H126.216V42.2937H135.542V46.9567Z" fill="#ED1C24"/>
    <path d="M72.8362 16.6786H70.1465V14.7808H77.8385V16.6786H75.0986V24.7855H72.8236V16.6786H72.8362Z" fill="#221F1F"/>
    <path d="M81.9108 24.7856L78.7058 14.7683H81.1819L82.401 19.004C82.7404 20.198 83.0546 21.3418 83.2934 22.5861H83.3437C83.595 21.3795 83.9093 20.198 84.2486 19.0542L85.5306 14.7809H87.9313L84.5628 24.7982H81.9108V24.7856Z" fill="#221F1F"/>
    <path d="M89.0247 22.4478C89.628 22.762 90.5707 23.0762 91.5385 23.0762C92.5817 23.0762 93.1347 22.6489 93.1347 21.9953C93.1347 21.3668 92.6571 21.0149 91.4505 20.5876C89.7914 20.0094 88.6979 19.0919 88.6979 17.6339C88.6979 15.9246 90.1182 14.6174 92.4811 14.6174C93.6123 14.6174 94.4419 14.8562 95.0326 15.1202L94.5298 16.9426C94.1276 16.7541 93.4112 16.465 92.4309 16.465C91.4505 16.465 90.9729 16.9049 90.9729 17.4328C90.9729 18.0738 91.5385 18.3503 92.8331 18.8405C94.6053 19.4941 95.4348 20.4116 95.4348 21.8319C95.4348 23.5161 94.1402 24.9364 91.4002 24.9364C90.2565 24.9364 89.1253 24.6347 88.5597 24.3331L89.0247 22.4478Z" fill="#221F1F"/>
    <path d="M57.8543 33.4202C57.8543 34.564 57.4521 35.8334 56.6351 37.216C54.3476 40.9866 50.2376 42.8719 44.3303 42.8719H43.3248C42.7467 42.8719 42.3947 42.8468 42.2565 42.7965V57.1751H32.2392V22.3346C32.2392 19.5695 33.7851 17.4202 36.8896 15.8994C39.2274 14.7557 41.9925 14.1775 45.185 14.1775C48.2392 14.1775 50.954 14.7557 53.3421 15.8994C56.346 17.4202 57.8543 19.5695 57.8543 22.3346V33.4202ZM48.4152 24.5467C48.4152 21.0652 47.3468 19.3181 45.1976 19.3181C43.2368 19.3181 42.269 20.1476 42.269 21.8193V37.7062H42.4073H42.5456C46.4544 37.7062 48.4152 36.4619 48.4152 33.9858V24.5467Z" fill="white"/>
    <path d="M17.7097 66.8406C18.2753 66.7275 19.1677 66.627 20.0726 66.627C21.3672 66.627 22.1968 66.8532 22.8252 67.3559C23.3405 67.7456 23.6547 68.3363 23.6547 69.1281C23.6547 70.0959 23.0137 70.938 21.9579 71.3277V71.3528C22.9132 71.5916 24.0192 72.3834 24.0192 73.8665C24.0192 74.7338 23.6799 75.3874 23.1771 75.8775C22.4733 76.5185 21.3546 76.8076 19.7081 76.8076C18.8158 76.8076 18.137 76.7448 17.6971 76.6945V66.8406H17.7097ZM19.0043 70.938H20.1732C21.5432 70.938 22.3476 70.2216 22.3476 69.2538C22.3476 68.0849 21.4552 67.6199 20.148 67.6199C19.5573 67.6199 19.2054 67.6702 19.0043 67.7079V70.938ZM19.0043 75.7393C19.2557 75.7896 19.6327 75.8021 20.0852 75.8021C21.4175 75.8021 22.6618 75.3119 22.6618 73.854C22.6618 72.484 21.4929 71.9184 20.0726 71.9184H19.0043V75.7393Z" fill="black"/>
    <path d="M29.7128 76.7198L29.6123 75.8148H29.562C29.1598 76.3804 28.3931 76.8832 27.3625 76.8832C25.9045 76.8832 25.163 75.8525 25.163 74.8219C25.163 73.0874 26.7089 72.1322 29.4866 72.1448V71.9939C29.4866 71.4032 29.3232 70.3349 27.8527 70.3349C27.1865 70.3349 26.4827 70.5485 25.9799 70.8753L25.6783 70.0081C26.269 69.6184 27.1363 69.3671 28.0412 69.3671C30.2407 69.3671 30.7812 70.8628 30.7812 72.3082V74.9979C30.7812 75.6263 30.8063 76.2296 30.8943 76.7198H29.7128ZM29.5117 73.0497C28.0789 73.0246 26.4701 73.2759 26.4701 74.6711C26.4701 75.5132 27.0357 75.9154 27.7018 75.9154C28.6445 75.9154 29.2352 75.3247 29.4363 74.7088C29.4866 74.5705 29.5117 74.4323 29.5117 74.294V73.0497ZM27.727 68.6632C27.9029 68.0097 28.5691 67.8211 28.5691 67.2681C28.5691 66.9539 28.3429 66.7653 28.0663 66.7653C27.7521 66.7653 27.5133 67.0167 27.3499 67.2807L26.8472 66.979C27.0985 66.4386 27.5636 65.9861 28.2926 65.9861C29.009 65.9861 29.5495 66.4511 29.5495 67.1047C29.5495 67.9342 28.7576 68.173 28.4183 68.8392L27.727 68.6632Z" fill="black"/>
    <path d="M32.8927 71.4785C32.8927 70.7369 32.8802 70.1211 32.8299 69.5303H33.9862L34.0616 70.7244H34.0868C34.4387 70.0457 35.2808 69.3669 36.4623 69.3669C37.4552 69.3669 39.0011 69.9577 39.0011 72.4337V76.7322H37.694V72.5845C37.694 71.4282 37.2667 70.4604 36.0349 70.4604C35.1677 70.4604 34.5015 71.0637 34.2753 71.7927C34.2125 71.9561 34.1873 72.1823 34.1873 72.396V76.7197H32.8802V71.4785H32.8927Z" fill="black"/>
    <path d="M47.3342 69.5303C47.3091 70.0457 47.2714 70.6364 47.2714 71.5036V75.6764C47.2714 77.323 46.9446 78.341 46.2407 78.9569C45.5369 79.6105 44.5314 79.8241 43.6264 79.8241C42.7592 79.8241 41.8165 79.6105 41.2384 79.2334L41.5652 78.2405C42.0428 78.5421 42.7843 78.8061 43.6767 78.8061C45.009 78.8061 46.0019 78.1022 46.0019 76.2923V75.4879H45.9768C45.5746 76.1541 44.8079 76.6945 43.6893 76.6945C41.9045 76.6945 40.6225 75.1737 40.6225 73.1878C40.6225 70.7495 42.2187 69.3669 43.8652 69.3669C45.1095 69.3669 45.8008 70.0205 46.115 70.6113H46.1402L46.203 69.5303H47.3342ZM45.9893 72.3583C45.9893 72.1321 45.9768 71.9435 45.9139 71.7676C45.6751 71.0134 45.0341 70.385 44.0915 70.385C42.8472 70.385 41.9548 71.4408 41.9548 73.0999C41.9548 74.5076 42.6712 75.689 44.0789 75.689C44.8833 75.689 45.6123 75.1863 45.8888 74.3567C45.9642 74.1305 45.9893 73.8791 45.9893 73.6529V72.3583Z" fill="black"/>
    <path d="M58.7969 69.5303C58.7718 70.0457 58.7341 70.6364 58.7341 71.5036V75.6764C58.7341 77.323 58.4073 78.341 57.7034 78.9569C56.9996 79.6105 55.9941 79.8241 55.0891 79.8241C54.2219 79.8241 53.2792 79.6105 52.7011 79.2334L53.0279 78.2405C53.5055 78.5421 54.247 78.8061 55.1394 78.8061C56.4717 78.8061 57.452 78.1022 57.452 76.2923V75.4879H57.4269C57.0247 76.1541 56.258 76.6945 55.1394 76.6945C53.3546 76.6945 52.0726 75.1737 52.0726 73.1878C52.0726 70.7495 53.6689 69.3669 55.3154 69.3669C56.5597 69.3669 57.2509 70.0205 57.5652 70.6113H57.5903L57.6532 69.5303H58.7969ZM57.452 72.3583C57.452 72.1321 57.4395 71.9435 57.3766 71.7676C57.1378 71.0134 56.4968 70.385 55.5542 70.385C54.3099 70.385 53.4175 71.4408 53.4175 73.0999C53.4175 74.5076 54.1339 75.689 55.5416 75.689C56.346 75.689 57.075 75.1863 57.3515 74.3567C57.4269 74.1305 57.452 73.8791 57.452 73.6529V72.3583Z" fill="black"/>
    <path d="M62.2785 67.5069C62.291 67.9468 61.9642 68.3113 61.4489 68.3113C60.9839 68.3113 60.6571 67.9594 60.6571 67.5069C60.6571 67.0419 60.9965 66.6899 61.4741 66.6899C61.9642 66.6899 62.2785 67.0419 62.2785 67.5069ZM60.8205 76.7198V69.5305H62.1276V76.7198H60.8205Z" fill="black"/>
    <path d="M68.2863 76.7197L68.1857 75.8147H68.1354C67.7332 76.3803 66.9666 76.8831 65.9359 76.8831C64.4779 76.8831 63.7364 75.8524 63.7364 74.8218C63.7364 73.0873 65.2823 72.1321 68.06 72.1447V71.9938C68.06 71.4031 67.8966 70.3348 66.4261 70.3348C65.76 70.3348 65.0561 70.5484 64.5534 70.8752L64.2517 70.008C64.8424 69.6184 65.7097 69.367 66.6146 69.367C68.8142 69.367 69.3546 70.8627 69.3546 72.3081V74.9978C69.3546 75.6262 69.3798 76.2295 69.4677 76.7197H68.2863ZM68.0977 73.0496C66.6649 73.0245 65.0561 73.2759 65.0561 74.671C65.0561 75.5131 65.6217 75.9153 66.2878 75.9153C67.2305 75.9153 67.8212 75.3246 68.0223 74.7087C68.0726 74.5704 68.0977 74.4322 68.0977 74.2939V73.0496ZM68.7513 66.4133L66.9414 68.5374H65.9988L67.3059 66.4133H68.7513Z" fill="black"/>
    <path d="M76.192 67.4565V69.5178H78.0648V70.5107H76.192V74.3945C76.192 75.2869 76.4434 75.7896 77.1724 75.7896C77.5117 75.7896 77.7631 75.7393 77.9265 75.7016L77.9893 76.682C77.738 76.7825 77.3358 76.858 76.833 76.858C76.2297 76.858 75.727 76.6694 75.4253 76.3049C75.0483 75.9153 74.9226 75.2743 74.9226 74.4322V70.5107H73.804V69.5178H74.9226V67.7959L76.192 67.4565Z" fill="black"/>
    <path d="M79.5353 71.7677C79.5353 70.9256 79.5227 70.1966 79.4725 69.5179H80.6162L80.6665 70.9256H80.7293C81.0561 69.9578 81.848 69.3545 82.7152 69.3545C82.866 69.3545 82.9666 69.3671 83.0923 69.4048V70.6365C82.954 70.6114 82.8283 70.5862 82.6524 70.5862C81.7348 70.5862 81.0813 71.2901 80.8927 72.2704C80.8676 72.4464 80.8299 72.6601 80.8299 72.8737V76.7072H79.5353V71.7677Z" fill="black"/>
    <path d="M91.5761 67.9216C91.7395 68.2233 91.8401 68.5878 91.8401 68.99C91.8401 69.7315 91.2996 70.2091 90.5706 70.2343L90.4073 70.2468V74.7465C90.4073 75.488 90.4198 76.1416 90.4701 76.7072H89.3138L89.2384 75.5383H89.2132C88.8739 76.1164 88.1072 76.8706 86.8377 76.8706C85.7065 76.8706 84.3491 76.2421 84.3491 73.7158V69.5053H85.6563V73.4896C85.6563 74.8596 86.071 75.7771 87.2651 75.7771C88.1449 75.7771 88.7482 75.1738 88.987 74.5831C89.0624 74.3945 89.1001 74.1557 89.1001 73.9169V69.5053H90.1307C90.6461 69.5053 90.8346 69.2916 90.8346 68.9271C90.8346 68.638 90.734 68.3364 90.5832 68.0599L91.5761 67.9216ZM88.0946 78.6679C88.0946 79.0827 87.793 79.4346 87.353 79.4346C86.9257 79.4346 86.6115 79.0827 86.6115 78.6679C86.6115 78.2531 86.9383 77.9138 87.3656 77.9138C87.793 77.9138 88.0946 78.2531 88.0946 78.6679Z" fill="black"/>
    <path d="M97.7223 76.4556C97.3829 76.6316 96.6162 76.8704 95.661 76.8704C93.4866 76.8704 92.0789 75.3998 92.0789 73.2003C92.0789 70.9882 93.5997 69.3794 95.9375 69.3794C96.7168 69.3794 97.3955 69.5679 97.7474 69.7565L97.4458 70.762C97.1315 70.586 96.6414 70.4226 95.9249 70.4226C94.2784 70.4226 93.3861 71.6418 93.3861 73.1374C93.3861 74.7965 94.4544 75.8272 95.8872 75.8272C96.6288 75.8272 97.119 75.6386 97.496 75.4752L97.7223 76.4556Z" fill="black"/>
    <path d="M103.982 67.4565V69.5178H105.854V70.5107H103.982V74.3945C103.982 75.2869 104.233 75.7896 104.962 75.7896C105.301 75.7896 105.553 75.7393 105.716 75.7016L105.779 76.682C105.527 76.7825 105.125 76.858 104.623 76.858C104.019 76.858 103.516 76.6694 103.215 76.3049C102.838 75.9153 102.712 75.2743 102.712 74.4322V70.5107H101.593V69.5178H102.712V67.7959L103.982 67.4565Z" fill="black"/>
    <path d="M113.345 74.759C113.345 75.5005 113.358 76.1541 113.408 76.7197H112.252L112.176 75.5508H112.151C111.812 76.129 111.045 76.8831 109.776 76.8831C108.645 76.8831 107.287 76.2547 107.287 73.7283V69.5178H108.594V73.5021C108.594 74.8721 109.009 75.7896 110.203 75.7896C111.083 75.7896 111.686 75.1863 111.925 74.5956C112 74.4071 112.038 74.1683 112.038 73.9294V69.5178H113.345V74.759Z" fill="black"/>
    <path d="M115.985 69.5304L117.556 73.7786C117.719 74.2562 117.895 74.8218 118.021 75.2492H118.046C118.184 74.8218 118.335 74.2688 118.511 73.7535L119.944 69.5304H121.326L119.366 74.6584C118.423 77.1219 117.795 78.3913 116.902 79.158C116.261 79.7236 115.62 79.9499 115.293 80.0001L114.967 78.8941C115.293 78.7935 115.721 78.5799 116.11 78.2531C116.462 77.9766 116.915 77.4613 117.216 76.7951C117.279 76.6569 117.317 76.5563 117.317 76.4809C117.317 76.4055 117.292 76.3049 117.229 76.1415L114.564 69.5178H115.985V69.5304Z" fill="black"/>
    <path d="M123.099 73.3638C123.124 75.136 124.255 75.865 125.562 75.865C126.505 75.865 127.058 75.7016 127.548 75.4879L127.774 76.4305C127.309 76.6442 126.53 76.8704 125.386 76.8704C123.174 76.8704 121.854 75.4125 121.854 73.2381C121.854 71.0637 123.136 69.3543 125.223 69.3543C127.573 69.3543 128.201 71.4156 128.201 72.7479C128.201 73.0118 128.176 73.2255 128.151 73.3512H123.099V73.3638ZM126.932 72.4211C126.945 71.5916 126.593 70.297 125.122 70.297C123.802 70.297 123.224 71.5162 123.111 72.4211H126.932ZM125.713 66.4133L127.007 68.5374H126.014L125.26 67.1422H125.235L124.481 68.5374H123.526L124.77 66.4133H125.713ZM128.817 65.1941L127.347 67.1548H126.593L127.598 65.1941H128.817Z" fill="black"/>
    <path d="M129.81 71.4785C129.81 70.7369 129.798 70.1211 129.747 69.5303H130.904L130.979 70.7244H131.004C131.356 70.0457 132.198 69.3669 133.38 69.3669C134.373 69.3669 135.919 69.9577 135.919 72.4337V76.7322H134.612V72.5845C134.612 71.4282 134.184 70.4604 132.952 70.4604C132.085 70.4604 131.419 71.0637 131.193 71.7927C131.13 71.9561 131.105 72.1823 131.105 72.396V76.7197H129.798V71.4785H129.81Z" fill="black"/>
</svg>
