<svg width="56" height="62" viewBox="0 0 56 62" fill="none" xmlns="http://www.w3.org/2000/svg">
    <path d="M53.1979 0.00244141H1.86458C0.852061 0.00244141 0.03125 0.927299 0.03125 2.06817V43.3827C0.03125 44.5236 0.852061 45.4485 1.86458 45.4485H17.6129C17.7476 45.8952 17.9683 46.303 18.2592 46.6424C18.4435 46.8515 18.5478 47.1337 18.5497 47.4285C18.5507 47.5177 18.5405 47.6068 18.5195 47.6929C18.4546 47.9576 18.4222 48.2311 18.4233 48.5057C18.423 49.9398 19.2763 51.196 20.505 51.5702C20.8365 51.6696 21.0951 51.9618 21.1824 52.3356C21.4232 53.3349 22.0825 54.1384 22.9479 54.487V59.9085C22.9451 60.6269 23.2747 61.2949 23.8176 61.6715C24.3605 62.048 25.0383 62.0786 25.6063 61.7522L27.5312 60.6667L29.4562 61.7491C30.024 62.0715 30.6994 62.0394 31.2411 61.6644C31.7827 61.2893 32.1133 60.6249 32.1146 59.9085V54.487C32.981 54.1381 33.6408 53.3332 33.881 52.3325C33.9692 51.959 34.2285 51.6676 34.5602 51.5692C35.7877 51.1942 36.6397 49.9387 36.6393 48.5057C36.6411 48.2348 36.6102 47.9648 36.5476 47.7032C36.4594 47.3242 36.5568 46.9209 36.8033 46.6445C37.0944 46.3044 37.3151 45.896 37.4496 45.4485H53.1979C54.2104 45.4485 55.0312 44.5236 55.0312 43.3827V2.06817C55.0312 0.927299 54.2104 0.00244141 53.1979 0.00244141ZM36.8033 42.1887C36.6191 41.98 36.5148 41.6982 36.5128 41.4038C36.5118 41.3141 36.5219 41.2248 36.543 41.1383C36.6064 40.8733 36.6372 40.5998 36.6347 40.3254C36.6348 38.891 35.781 37.6348 34.552 37.2609C34.2209 37.1612 33.9627 36.8691 33.8755 36.4956C33.5427 35.1126 32.4284 34.1525 31.1567 34.153C30.9131 34.1504 30.6704 34.1852 30.4352 34.2563C30.1004 34.346 29.7482 34.2352 29.503 33.963C28.393 32.7846 26.6604 32.7846 25.5503 33.963C25.3058 34.2341 24.955 34.3452 24.6208 34.2574C24.385 34.1838 24.1414 34.147 23.8967 34.1479C22.6236 34.1478 21.5087 35.1097 21.1769 36.4946C21.0884 36.8676 20.8291 37.1586 20.4977 37.2568C19.2702 37.6318 18.4182 38.8873 18.4187 40.3203C18.4178 40.5959 18.4502 40.8704 18.5149 41.1362C18.5361 41.2216 18.5463 41.31 18.5452 41.3986C18.5431 41.693 18.4388 41.9748 18.2546 42.1836C17.9648 42.525 17.7457 42.9346 17.6129 43.3827H8.218C7.79501 39.6442 5.18254 36.7006 1.86458 36.2239V9.22695C5.18254 8.75034 7.79501 5.80671 8.218 2.06817H46.8445C47.2675 5.80671 49.88 8.75034 53.1979 9.22695V36.2239C49.88 36.7006 47.2675 39.6442 46.8445 43.3827H37.4496C37.3149 42.9359 37.0942 42.5282 36.8033 42.1887ZM53.1979 7.13953C50.8948 6.69601 49.0907 4.66325 48.6971 2.06817H53.1979V7.13953ZM6.36542 2.06817C5.9718 4.66325 4.16772 6.69601 1.86458 7.13953V2.06817H6.36542ZM1.86458 38.3114C4.16772 38.7549 5.9718 40.7876 6.36542 43.3827H1.86458V38.3114ZM28.3563 58.8189C27.8381 58.5297 27.2299 58.5297 26.7118 58.8189L24.7812 59.9085V54.5469C25.0673 54.5235 25.3487 54.6385 25.5549 54.863C26.6505 56.0816 28.412 56.0816 29.5076 54.863C29.7142 54.639 29.9953 54.5242 30.2812 54.5469V59.9085L28.3563 58.8189ZM35.4943 45.1985C34.7984 45.9993 34.5248 47.1518 34.7729 48.2372C34.794 48.3233 34.8041 48.4123 34.8032 48.5016C34.8005 48.9975 34.5083 49.4322 34.0854 49.5696C33.1194 49.858 32.3646 50.7074 32.1073 51.7954C31.9448 52.3539 31.4384 52.6884 30.9266 52.5752C29.9632 52.2916 28.9383 52.5969 28.2252 53.3798C27.8354 53.7995 27.2216 53.7995 26.8318 53.3798C26.3048 52.7945 25.5946 52.4662 24.8546 52.4657C24.6099 52.4648 24.3662 52.5016 24.1304 52.5752C23.6197 52.6897 23.1135 52.3568 22.9507 51.7995C22.6926 50.7155 21.9405 49.8692 20.978 49.5799C20.5535 49.4437 20.2596 49.0082 20.2566 48.5109C20.2556 48.4227 20.2655 48.3347 20.2859 48.2496C20.3512 47.9839 20.3839 47.7093 20.3831 47.4336C20.3827 46.5998 20.0913 45.7996 19.5718 45.2057C19.386 44.9982 19.2814 44.7156 19.2814 44.4208C19.2814 44.1259 19.386 43.8433 19.5718 43.6358C20.0912 43.0422 20.3826 42.2424 20.3831 41.4089C20.385 41.1338 20.3535 40.8596 20.2896 40.594C20.2685 40.5079 20.2584 40.4189 20.2593 40.3296C20.2622 39.8341 20.5538 39.3996 20.9762 39.2616C21.9428 38.974 22.6983 38.1244 22.9552 37.0358C23.11 36.4684 23.6249 36.1293 24.1396 36.256C25.1023 36.5381 26.1258 36.2326 26.8382 35.4503C27.228 35.0306 27.8418 35.0306 28.2316 35.4503C28.9437 36.2353 29.9694 36.5412 30.933 36.256C31.4442 36.1359 31.9534 36.4702 32.1128 37.0306C32.3682 38.1194 33.1223 38.9701 34.0882 39.2595C34.5127 39.3958 34.8065 39.8312 34.8096 40.3285C34.8106 40.4168 34.8007 40.5047 34.7803 40.5899C34.7149 40.8559 34.6822 41.1308 34.6831 41.4069C34.6836 42.2403 34.975 43.0402 35.4943 43.6337C35.6801 43.8409 35.7846 44.1232 35.7846 44.4177C35.7846 44.7121 35.6801 44.9944 35.4943 45.2016V45.1985ZM48.6971 43.3827C49.0907 40.7876 50.8948 38.7549 53.1979 38.3114V43.3827H48.6971Z" fill="#4B455C"/>
    <path d="M27.5312 38.2184C24.4937 38.2184 22.0312 40.993 22.0312 44.4156C22.0312 47.8382 24.4937 50.6128 27.5312 50.6128C30.5688 50.6128 33.0312 47.8382 33.0312 44.4156C33.0282 40.9944 30.5675 38.2218 27.5312 38.2184ZM27.5312 48.547C25.5062 48.547 23.8646 46.6973 23.8646 44.4156C23.8646 42.1339 25.5062 40.2841 27.5312 40.2841C29.5563 40.2841 31.1979 42.1339 31.1979 44.4156C31.1979 46.6973 29.5563 48.547 27.5312 48.547Z" fill="#4B455C"/>
    <path fill-rule="evenodd" clip-rule="evenodd" d="M4.6146 11.364C4.10834 11.364 3.69794 11.8264 3.69794 12.3968V33.0541C3.69794 33.6245 4.10834 34.087 4.6146 34.087C5.12087 34.087 5.53127 33.6245 5.53127 33.0541V12.3968C5.53127 11.8264 5.12087 11.364 4.6146 11.364Z" fill="#4B455C"/>
    <path fill-rule="evenodd" clip-rule="evenodd" d="M50.4479 34.087C50.9542 34.087 51.3646 33.6245 51.3646 33.0541V12.3968C51.3646 11.8264 50.9542 11.364 50.4479 11.364C49.9417 11.364 49.5312 11.8264 49.5312 12.3968V33.0541C49.5312 33.6245 49.9417 34.087 50.4479 34.087Z" fill="#4B455C"/>
    <path fill-rule="evenodd" clip-rule="evenodd" d="M41.2812 27.8897C41.2812 27.3193 40.8708 26.8569 40.3646 26.8569H14.6979C14.1917 26.8569 13.7812 27.3193 13.7812 27.8897C13.7812 28.4602 14.1917 28.9226 14.6979 28.9226H40.3646C40.8708 28.9226 41.2812 28.4602 41.2812 27.8897Z" fill="#4B455C"/>
    <path fill-rule="evenodd" clip-rule="evenodd" d="M40.3647 30.9883H34.8647C34.3584 30.9883 33.948 31.4508 33.948 32.0212C33.948 32.5916 34.3584 33.0541 34.8647 33.0541H40.3647C40.8709 33.0541 41.2813 32.5916 41.2813 32.0212C41.2813 31.4508 40.8709 30.9883 40.3647 30.9883Z" fill="#4B455C"/>
    <path fill-rule="evenodd" clip-rule="evenodd" d="M20.1979 30.9883H14.6979C14.1917 30.9883 13.7812 31.4508 13.7812 32.0212C13.7812 32.5916 14.1917 33.0541 14.6979 33.0541H20.1979C20.7042 33.0541 21.1146 32.5916 21.1146 32.0212C21.1146 31.4508 20.7042 30.9883 20.1979 30.9883Z" fill="#4B455C"/>
    <path d="M27.5313 24.7912C32.5939 24.7912 36.6979 20.1669 36.6979 14.4625C36.6979 8.75817 32.5939 4.13388 27.5313 4.13388C22.4686 4.13388 18.3646 8.75817 18.3646 14.4625C18.3702 20.1643 22.471 24.7849 27.5313 24.7912ZM27.5313 6.19961C31.5813 6.19961 34.8646 9.89904 34.8646 14.4625C34.8646 19.026 31.5813 22.7254 27.5313 22.7254C23.4812 22.7254 20.1979 19.026 20.1979 14.4625C20.2025 9.90116 23.4831 6.20473 27.5313 6.19961Z" fill="#D2353B"/>
    <path d="M26.7117 15.3703H28.351C28.7245 15.3703 29.0284 15.7127 29.0284 16.1336C29.0284 16.5546 28.7245 16.897 28.351 16.897H25.4628C25.0178 16.897 24.6572 17.3034 24.6572 17.8048C24.6572 18.3061 25.0178 18.7126 25.4628 18.7126H26.7257V19.5198C26.7257 20.0211 27.0863 20.4276 27.5314 20.4276C27.9764 20.4276 28.337 20.0211 28.337 19.5198V18.7126H28.351C29.613 18.7126 30.6397 17.5557 30.6397 16.1336C30.6397 14.7116 29.613 13.5547 28.351 13.5547H26.7117C26.3381 13.5547 26.0342 13.2123 26.0342 12.7913C26.0342 12.3705 26.3381 12.0281 26.7117 12.0281H29.5999C30.0449 12.0281 30.4055 11.6216 30.4055 11.1203C30.4055 10.6189 30.0449 10.2125 29.5999 10.2125H28.337V9.40529C28.337 8.90395 27.9764 8.4975 27.5314 8.4975C27.0863 8.4975 26.7257 8.90395 26.7257 9.40529V10.2125H26.7117C25.4497 10.2125 24.4229 11.3694 24.4229 12.7915C24.4229 14.2134 25.4497 15.3703 26.7117 15.3703Z" fill="#D2353B"/>
</svg>
