<svg width="56" height="56" viewBox="0 0 56 56" fill="none" xmlns="http://www.w3.org/2000/svg">
    <g clip-path="url(#clip0_1243_7290)">
        <path d="M49.7107 53.3911V53.8911H50.2107H52.2341C52.4029 53.8911 52.5397 54.028 52.5397 54.1968C52.5397 54.3656 52.4029 54.5024 52.2341 54.5024H6.40326C6.2344 54.5024 6.0976 54.3656 6.0976 54.1968C6.0976 54.0279 6.2344 53.8911 6.40326 53.8911H8.42666H8.92666V53.3911V40.7659C8.92666 40.3609 9.25699 40.0306 9.66201 40.0306H14.4609C14.8659 40.0306 15.1962 40.3609 15.1962 40.7659V53.3911V53.8911H15.6962H17.0553H17.5553V53.3911V30.5794C17.5553 30.1744 17.8857 29.8441 18.2907 29.8441H23.0894C23.4944 29.8441 23.8248 30.1744 23.8248 30.5794V45.3345C23.8248 45.5033 23.688 45.6401 23.5191 45.6401C23.3502 45.6401 23.2134 45.5033 23.2134 45.3345V30.9554V30.4554H22.7134H18.6666H18.1666V30.9554V53.3911V53.8911H18.6666H22.7134H23.2134V53.3911V49.0942C23.2134 48.9254 23.3502 48.7886 23.5191 48.7886C23.688 48.7886 23.8248 48.9254 23.8248 49.0942V53.3911V53.8911H24.3248H25.684H26.184V53.3911V35.3888C26.184 34.9838 26.5143 34.6534 26.9193 34.6534H31.7181C32.1231 34.6534 32.4534 34.9838 32.4534 35.3888V53.3911V53.8911H32.9534H34.3125H34.8125V53.3911V40.9054C34.8125 40.5004 35.1429 40.1701 35.5479 40.1701H40.3466C40.7517 40.1701 41.082 40.5004 41.082 40.9054V53.3911V53.8911H41.582H42.9412H43.4412V53.3911V30.7556C43.4412 30.3506 43.7715 30.0202 44.1766 30.0202H48.9753C49.3803 30.0202 49.7107 30.3506 49.7107 30.7556V33.8403C49.7107 34.0092 49.5738 34.146 49.405 34.146C49.2361 34.146 49.0993 34.0092 49.0993 33.8403V31.1314V30.6314H48.5993H44.5525H44.0525V31.1314V53.3911V53.8911H44.5525H48.5993H49.0993V53.3911V37.6001C49.0993 37.4312 49.2361 37.2944 49.405 37.2944C49.5739 37.2944 49.7107 37.4312 49.7107 37.6001V53.3911ZM14.0848 53.8911H14.5848V53.3911V41.1419V40.6419H14.0848H10.038H9.53799V41.1419V53.3911V53.8911H10.038H14.0848ZM31.342 53.8911H31.842V53.3911V35.7648V35.2648H31.342H27.2952H26.7952V35.7648V53.3911V53.8911H27.2952H31.342ZM39.9707 53.8911H40.4707V53.3911V41.2814V40.7814H39.9707H35.9239H35.4239V41.2814V53.3911V53.8911H35.9239H39.9707Z" fill="#4B455C" stroke="#4B455C"/>
        <path d="M15.1324 23.2179L15.4553 22.9056L15.1792 22.5512C14.2562 21.3666 13.7052 19.881 13.7052 18.2677C13.7052 17.5483 13.817 16.8549 14.0208 16.2009L14.223 15.5521H13.5435H1.85427C1.40319 15.5521 1.03534 15.1843 1.03534 14.7331V9.4068C1.03534 8.95554 1.40311 8.58777 1.85427 8.58777H15.6936C16.1447 8.58777 16.5126 8.95556 16.5126 9.4068V11.7515V12.6096L17.2591 12.1865C18.2731 11.6118 19.4432 11.2827 20.6899 11.2827C22.1228 11.2827 23.4995 11.7143 24.674 12.5315C24.8127 12.628 24.8468 12.8185 24.7504 12.957C24.6539 13.0957 24.4635 13.1298 24.3251 13.0334L24.325 13.0334C23.254 12.2882 21.9961 11.8941 20.6899 11.8941C19.1791 11.8941 17.7909 12.425 16.6987 13.3056L16.5126 13.4557V13.6949V14.7329C16.5126 15.1842 16.1448 15.5519 15.6936 15.5519H15.2516H14.9159L14.7888 15.8626C14.4849 16.6053 14.3164 17.4173 14.3164 18.2676C14.3164 19.6724 14.7745 20.9723 15.547 22.0265L15.8858 22.4889L16.2979 22.0904L17.9305 20.5114L18.2178 20.2335L18.0099 19.892C17.7214 19.4181 17.5552 18.8625 17.5552 18.2676C17.5552 16.5396 18.9619 15.1329 20.6899 15.1329C22.418 15.1329 23.8247 16.5396 23.8247 18.2676C23.8247 18.7369 23.7204 19.1815 23.5348 19.5816L23.3665 19.9441L23.6832 20.1881L25.4829 21.5748L25.9368 21.9246L26.2218 21.4274C26.756 20.4957 27.0634 19.4169 27.0634 18.2677C27.0634 17.4322 26.9028 16.617 26.5861 15.8465L26.5861 15.8465C26.5219 15.6903 26.5964 15.5118 26.7524 15.4475C26.9093 15.3833 27.0874 15.4582 27.1515 15.6139C27.4987 16.4588 27.6748 17.3509 27.6748 18.2676C27.6748 19.6011 27.299 20.8474 26.6481 21.9082L26.4131 22.2914L26.7692 22.5658L35.3275 29.1599L35.6439 29.4036L35.9515 29.1489C36.4946 28.6993 37.1896 28.4294 37.9472 28.4294C38.5425 28.4294 39.0986 28.5961 39.573 28.8852L39.9143 29.0931L40.1924 28.806L43.8922 24.985L44.1703 24.6978L43.9513 24.3633C43.6289 23.8707 43.4411 23.2838 43.4411 22.6528C43.4411 20.9248 44.8478 19.5181 46.5758 19.5181C48.3038 19.5181 49.7105 20.9248 49.7105 22.6528C49.7105 24.3808 48.3038 25.7875 46.5758 25.7875C45.9804 25.7875 45.4243 25.6209 44.9501 25.3318L44.6087 25.1238L44.3306 25.411L40.6308 29.2321L40.3527 29.5193L40.5716 29.8537C40.8941 30.3463 41.0819 30.9333 41.0819 31.5643C41.0819 33.2923 39.6752 34.699 37.9472 34.699C36.2191 34.699 34.8124 33.2923 34.8124 31.5643C34.8124 31.095 34.9167 30.6505 35.1023 30.2504L35.2705 29.8878L34.9539 29.6439L26.3936 23.0482L26.0382 22.7744L25.7276 23.0981C24.4542 24.4255 22.6674 25.2525 20.6899 25.2525C18.9931 25.2525 17.4367 24.6441 16.2244 23.6334L15.8794 23.3458L15.5566 23.6581L14.8209 24.3696L14.5335 24.6476L14.7414 24.989C15.0299 25.4629 15.1961 26.0185 15.1961 26.6134C15.1961 28.3414 13.7894 29.7481 12.0614 29.7481C10.3334 29.7481 8.92666 28.3414 8.92666 26.6134C8.92666 24.8854 10.3334 23.4787 12.0614 23.4787C12.6931 23.4787 13.2805 23.6668 13.7735 23.9898L14.1078 24.2088L14.3951 23.931L15.1324 23.2179ZM18.9779 20.8912L18.6436 20.6722L18.3563 20.9501L16.7236 22.5293L16.3114 22.928L16.7625 23.282C17.845 24.1316 19.2089 24.6411 20.69 24.6411C22.4278 24.6411 24.0046 23.941 25.1544 22.8111L25.5639 22.4088L25.1092 22.0584L23.3097 20.6719L22.9934 20.4281L22.6857 20.6828C22.1426 21.1325 21.4476 21.4023 20.69 21.4023C20.0584 21.4023 19.4709 21.2142 18.9779 20.8912ZM1.64656 14.4407V14.9407H2.14656H15.4012H15.9012V14.4407V9.69899V9.19899H15.4012H2.14656H1.64656V9.69899V14.4407ZM9.53799 26.6134C9.53799 28.0052 10.6696 29.1368 12.0614 29.1368C13.4532 29.1368 14.5848 28.0052 14.5848 26.6134C14.5848 25.2216 13.4532 24.09 12.0614 24.09C10.6696 24.09 9.53799 25.2216 9.53799 26.6134ZM49.0993 22.6528C49.0993 21.261 47.9678 20.1294 46.5759 20.1294C45.1841 20.1294 44.0525 21.261 44.0525 22.6528C44.0525 24.0446 45.1841 25.1762 46.5759 25.1762C47.9678 25.1762 49.0993 24.0446 49.0993 22.6528ZM40.4707 31.5643C40.4707 30.1725 39.3391 29.0409 37.9473 29.0409C36.5554 29.0409 35.4239 30.1725 35.4239 31.5643C35.4239 32.9561 36.5554 34.0877 37.9473 34.0877C39.3391 34.0877 40.4707 32.9561 40.4707 31.5643ZM23.2133 18.2677C23.2133 16.8759 22.0818 15.7443 20.6899 15.7443C19.2982 15.7443 18.1665 16.8759 18.1665 18.2677C18.1665 19.6595 19.2981 20.7911 20.6899 20.7911C22.0818 20.7911 23.2133 19.6595 23.2133 18.2677Z" fill="#4B455C" stroke="#4B455C"/>
        <path d="M4.14182 11.7642H6.08078C6.24973 11.7642 6.38655 11.9011 6.38655 12.0699C6.38655 12.2387 6.24975 12.3755 6.08089 12.3755H4.14182C3.97295 12.3755 3.83615 12.2387 3.83615 12.0699C3.83615 11.901 3.97295 11.7642 4.14182 11.7642Z" fill="#4B455C" stroke="#4B455C"/>
        <path d="M8.59732 11.7642H13.4061C13.5749 11.7642 13.7117 11.9011 13.7117 12.0699C13.7117 12.2387 13.5749 12.3755 13.4061 12.3755H8.59732C8.42846 12.3755 8.29166 12.2387 8.29166 12.0699C8.29166 11.901 8.42846 11.7642 8.59732 11.7642Z" fill="#4B455C" stroke="#4B455C"/>
        <path d="M44.8202 15.6784C44.8298 15.6982 44.8401 15.7175 44.8511 15.7365L45.8946 17.5148C46.0393 17.7612 46.3038 17.9127 46.5895 17.9127C46.8754 17.9127 47.1398 17.7612 47.2845 17.5147L48.328 15.7362C48.3391 15.7173 48.3493 15.698 48.3588 15.6783C51.9384 14.8625 54.5274 11.6225 54.5274 7.94016C54.5274 5.75048 53.655 3.7114 52.071 2.19879C50.4877 0.686932 48.4078 -0.0891905 46.2147 0.0110341C44.2538 0.101483 42.4 0.92122 40.9952 2.31921C39.5903 3.71741 38.7616 5.56711 38.6621 7.52756C38.4652 11.407 41.0504 14.821 44.8202 15.6784ZM40.2713 7.60941C40.4343 4.39933 43.0775 1.76878 46.289 1.62075C48.0383 1.53986 49.6962 2.15915 50.9581 3.36421C52.2207 4.56991 52.916 6.1951 52.916 7.94027C52.916 10.8986 50.8201 13.4986 47.9325 14.1225C47.4721 14.222 47.0865 14.5453 46.9053 14.9768L46.5895 15.5151L46.2737 14.9768C46.0924 14.5454 45.7059 14.222 45.2442 14.122C42.2046 13.4639 40.1133 10.725 40.2713 7.60941Z" fill="#D2353B"/>
        <path d="M45.7699 8.74593H47.4092C47.7827 8.74593 48.0866 9.04983 48.0866 9.42333C48.0866 9.79695 47.7827 10.1008 47.4092 10.1008H44.5211C44.076 10.1008 43.7154 10.4616 43.7154 10.9065C43.7154 11.3514 44.076 11.7122 44.5211 11.7122H45.7839V12.4286C45.7839 12.8735 46.1445 13.2342 46.5896 13.2342C47.0346 13.2342 47.3952 12.8735 47.3952 12.4286V11.7122H47.4092C48.6712 11.7122 49.6979 10.6854 49.6979 9.42333C49.6979 8.16134 48.6712 7.1346 47.4092 7.1346H45.7699C45.3963 7.1346 45.0924 6.83071 45.0924 6.45709C45.0924 6.08359 45.3963 5.77969 45.7699 5.77969H48.6581C49.1031 5.77969 49.4638 5.41897 49.4638 4.97403C49.4638 4.52908 49.1031 4.16836 48.6581 4.16836H47.3952V3.45197C47.3952 3.00702 47.0346 2.6463 46.5896 2.6463C46.1445 2.6463 45.7839 3.00702 45.7839 3.45197V4.16836H45.7699C44.508 4.16836 43.4811 5.1951 43.4811 6.4572C43.4811 7.71919 44.508 8.74593 45.7699 8.74593Z" fill="#D2353B"/>
    </g>
    <defs>
        <clipPath id="clip0_1243_7290">
            <rect width="55" height="55" fill="white" transform="translate(0.03125 0.00244141)"/>
        </clipPath>
    </defs>
</svg>
