<svg width="141" height="80" viewBox="0 0 141 80" fill="none" xmlns="http://www.w3.org/2000/svg">
    <path d="M139.49 43.1485H130.667V38.1713H140.018V33.7219H125.224V57.7031H140.52V53.2537H130.667V47.5601H139.49V43.1485Z" fill="#ED1C24"/>
    <path d="M23.8826 76.2673C23.3044 76.481 22.1606 76.8203 20.8032 76.8203C19.2824 76.8203 18.0381 76.4307 17.0577 75.5006C16.1905 74.6711 15.6626 73.3262 15.6626 71.7677C15.6752 68.7763 17.7239 66.5894 21.0923 66.5894C22.2486 66.5894 23.1536 66.8407 23.5935 67.0544L23.2793 68.1102C22.7388 67.8714 22.0727 67.6828 21.0672 67.6828C18.6288 67.6828 17.0452 69.2037 17.0452 71.7048C17.0452 74.2437 18.5785 75.752 20.9038 75.752C21.7459 75.752 22.3366 75.6388 22.6257 75.488V72.4967H20.5895V71.4535H23.8951V76.2673H23.8826Z" fill="black"/>
    <path d="M27.2761 67.5069C27.2887 67.9468 26.9619 68.3113 26.4466 68.3113C25.9815 68.3113 25.6548 67.9594 25.6548 67.5069C25.6548 67.0419 25.9941 66.6899 26.4717 66.6899C26.9619 66.6899 27.2761 67.0419 27.2761 67.5069ZM25.8181 76.7198V69.5305H27.1253V76.7198H25.8181Z" fill="black"/>
    <path d="M33.284 76.7197L33.1834 75.8147H33.1331C32.7309 76.3803 31.9642 76.883 30.9336 76.883C29.4756 76.883 28.7341 75.8524 28.7341 74.8218C28.7341 73.0873 30.28 72.1321 33.0577 72.1446V71.9938C33.0577 71.4031 32.8943 70.3347 31.4238 70.3347C30.7576 70.3347 30.0538 70.5484 29.551 70.8752L29.2494 70.008C29.8401 69.6183 30.7074 69.3669 31.6123 69.3669C33.8118 69.3669 34.3523 70.8626 34.3523 72.308V74.9977C34.3523 75.6262 34.3774 76.2295 34.4654 76.7197H33.284ZM33.0829 73.0496C31.65 73.0244 30.0412 73.2758 30.0412 74.671C30.0412 75.5131 30.6068 75.9153 31.273 75.9153C32.2156 75.9153 32.8063 75.3245 33.0074 74.7087C33.0577 74.5704 33.0829 74.4321 33.0829 74.2939V73.0496Z" fill="black"/>
    <path d="M42.9744 73.0622C42.9744 75.7267 41.1268 76.883 39.3923 76.883C37.4442 76.883 35.9485 75.4502 35.9485 73.1878C35.9485 70.7746 37.5196 69.3669 39.518 69.3669C41.5793 69.3669 42.9744 70.8626 42.9744 73.0622ZM37.2682 73.1376C37.2682 74.7087 38.1732 75.9027 39.4552 75.9027C40.6995 75.9027 41.6422 74.7338 41.6422 73.1124C41.6422 71.8933 41.0389 70.3473 39.4929 70.3473C37.9344 70.3473 37.2682 71.7676 37.2682 73.1376Z" fill="black"/>
    <path d="M53.9847 66.1619V74.8594C53.9847 75.5004 53.9972 76.2294 54.0475 76.7196H52.8786L52.8158 75.4753H52.7906C52.3884 76.2797 51.5086 76.883 50.3397 76.883C48.6052 76.883 47.2604 75.4125 47.2604 73.2255C47.2478 70.8374 48.7309 69.3669 50.4905 69.3669C51.5966 69.3669 52.3381 69.8822 52.6649 70.4729H52.6901V66.1744H53.9847V66.1619ZM52.6775 72.4588C52.6775 72.2954 52.6649 72.0692 52.6147 71.9058C52.4261 71.0762 51.7097 70.385 50.7293 70.385C49.3719 70.385 48.5801 71.579 48.5801 73.1627C48.5801 74.6206 49.2965 75.8272 50.7042 75.8272C51.584 75.8272 52.3884 75.2491 52.6272 74.2687C52.6775 74.0927 52.6901 73.9168 52.6901 73.7031V72.4588H52.6775Z" fill="black"/>
    <path d="M57.617 67.5069C57.6296 67.9468 57.3028 68.3113 56.7875 68.3113C56.3225 68.3113 55.9957 67.9594 55.9957 67.5069C55.9957 67.0419 56.335 66.6899 56.8126 66.6899C57.3028 66.6899 57.617 67.0419 57.617 67.5069ZM57.5542 78.6679C57.5542 79.0827 57.2525 79.4346 56.8001 79.4346C56.3853 79.4346 56.0711 79.0827 56.0711 78.6679C56.0711 78.2532 56.3979 77.9138 56.8252 77.9138C57.24 77.9138 57.5542 78.2532 57.5542 78.6679ZM56.1591 76.7198V69.5305H57.4662V76.7198H56.1591Z" fill="black"/>
    <path d="M64.7686 76.4556C64.4293 76.6316 63.6626 76.8704 62.7074 76.8704C60.533 76.8704 59.1253 75.3998 59.1253 73.2003C59.1253 70.9882 60.6461 69.3794 62.9839 69.3794C63.7631 69.3794 64.4418 69.5679 64.7938 69.7565L64.4921 70.762C64.1779 70.586 63.6877 70.4226 62.9713 70.4226C61.3248 70.4226 60.4324 71.6418 60.4324 73.1374C60.4324 74.7965 61.5008 75.8272 62.9336 75.8272C63.6752 75.8272 64.1653 75.6386 64.5424 75.4752L64.7686 76.4556Z" fill="black"/>
    <path d="M66.302 66.1619H67.6092V70.6489H67.6343C67.848 70.2718 68.1748 69.9451 68.5644 69.7314C68.954 69.5051 69.4065 69.3543 69.8967 69.3543C70.8645 69.3543 72.4105 69.9451 72.4105 72.4337V76.7196H71.1159V72.5845C71.1159 71.4282 70.6885 70.4478 69.4568 70.4478C68.6147 70.4478 67.936 71.0385 67.6972 71.755C67.6218 71.9309 67.6092 72.132 67.6092 72.3834V76.7196H66.302V66.1619Z" fill="black"/>
    <path d="M79.2729 67.4565V69.5178H81.1457V70.5107H79.2729V74.3945C79.2729 75.2869 79.5243 75.7896 80.2533 75.7896C80.5927 75.7896 80.844 75.7393 81.0074 75.7016L81.0703 76.682C80.8189 76.7825 80.4167 76.858 79.914 76.858C79.3107 76.858 78.8079 76.6694 78.5063 76.3049C78.1292 75.9153 78.0035 75.2743 78.0035 74.4322V70.5107H76.8849V69.5178H78.0035V67.7959L79.2729 67.4565Z" fill="black"/>
    <path d="M82.6162 71.7677C82.6162 70.9256 82.6037 70.1966 82.5534 69.5179H83.6972L83.7474 70.9256H83.8103C84.1371 69.9578 84.9289 69.3545 85.7961 69.3545C85.947 69.3545 86.0475 69.3671 86.1732 69.4048V70.6365C86.0349 70.6114 85.9093 70.5862 85.7333 70.5862C84.8158 70.5862 84.1622 71.2901 83.9737 72.2704C83.9485 72.4464 83.9108 72.6601 83.9108 72.8737V76.7072H82.6162V71.7677Z" fill="black"/>
    <path d="M94.6571 67.9216C94.8205 68.2233 94.921 68.5878 94.921 68.99C94.921 69.7315 94.3806 70.2091 93.6516 70.2343L93.4882 70.2468V74.7465C93.4882 75.488 93.5008 76.1416 93.5511 76.7072H92.3947L92.3193 75.5383H92.2942C91.9548 76.1164 91.1881 76.8706 89.9187 76.8706C88.7875 76.8706 87.4301 76.2421 87.4301 73.7158V69.5053H88.7372V73.4896C88.7372 74.8596 89.152 75.7771 90.346 75.7771C91.2258 75.7771 91.8291 75.1738 92.068 74.5831C92.1434 74.3945 92.1811 74.1557 92.1811 73.9169V69.5053H93.2117C93.727 69.5053 93.9155 69.2916 93.9155 68.9271C93.9155 68.638 93.815 68.3364 93.6642 68.0599L94.6571 67.9216ZM91.1756 78.6679C91.1756 79.0827 90.8739 79.4346 90.434 79.4346C90.0067 79.4346 89.6925 79.0827 89.6925 78.6679C89.6925 78.2531 90.0192 77.9138 90.4466 77.9138C90.8739 77.9138 91.1756 78.2531 91.1756 78.6679Z" fill="black"/>
    <path d="M100.803 76.4556C100.464 76.6316 99.6972 76.8704 98.7419 76.8704C96.5675 76.8704 95.1599 75.3998 95.1599 73.2003C95.1599 70.9882 96.6807 69.3794 99.0185 69.3794C99.7977 69.3794 100.476 69.5679 100.828 69.7565L100.527 70.762C100.212 70.586 99.7223 70.4226 99.0059 70.4226C97.3594 70.4226 96.467 71.6418 96.467 73.1374C96.467 74.7965 97.5353 75.8272 98.9682 75.8272C99.7097 75.8272 100.2 75.6386 100.577 75.4752L100.803 76.4556Z" fill="black"/>
    <path d="M107.062 67.4565V69.5178H108.935V70.5107H107.062V74.3945C107.062 75.2869 107.314 75.7896 108.043 75.7896C108.382 75.7896 108.634 75.7393 108.797 75.7016L108.86 76.682C108.608 76.7825 108.206 76.858 107.703 76.858C107.1 76.858 106.597 76.6694 106.296 76.3049C105.919 75.9153 105.793 75.2743 105.793 74.4322V70.5107H104.674V69.5178H105.793V67.7959L107.062 67.4565Z" fill="black"/>
    <path d="M116.426 74.759C116.426 75.5005 116.439 76.1541 116.489 76.7197H115.333L115.257 75.5508H115.232C114.893 76.129 114.126 76.8831 112.857 76.8831C111.725 76.8831 110.368 76.2547 110.368 73.7283V69.5178H111.675V73.5021C111.675 74.8721 112.09 75.7896 113.284 75.7896C114.164 75.7896 114.767 75.1863 115.006 74.5956C115.081 74.4071 115.119 74.1683 115.119 73.9294V69.5178H116.426V74.759Z" fill="black"/>
    <path d="M119.066 69.5304L120.637 73.7786C120.8 74.2562 120.976 74.8218 121.102 75.2492H121.139C121.278 74.8218 121.428 74.2688 121.604 73.7535L123.037 69.5304H124.42L122.459 74.6584C121.516 77.1219 120.888 78.3913 119.996 79.158C119.355 79.7236 118.714 79.9499 118.387 80.0001L118.06 78.8941C118.387 78.7935 118.814 78.5799 119.204 78.2531C119.556 77.9766 120.008 77.4613 120.31 76.7951C120.373 76.6569 120.41 76.5563 120.41 76.4809C120.41 76.4055 120.385 76.3049 120.322 76.1415L117.658 69.5178H119.066V69.5304Z" fill="black"/>
    <path d="M126.179 73.3638C126.205 75.136 127.336 75.865 128.643 75.865C129.586 75.865 130.139 75.7016 130.629 75.4879L130.855 76.4305C130.39 76.6442 129.611 76.8704 128.467 76.8704C126.255 76.8704 124.935 75.4125 124.935 73.2381C124.935 71.0637 126.217 69.3543 128.304 69.3543C130.654 69.3543 131.282 71.4156 131.282 72.7479C131.282 73.0118 131.257 73.2255 131.232 73.3512H126.179V73.3638ZM130.013 72.4211C130.026 71.5916 129.674 70.297 128.203 70.297C126.883 70.297 126.305 71.5162 126.192 72.4211H130.013ZM128.794 66.4133L130.088 68.5374H129.095L128.341 67.1422H128.316L127.562 68.5374H126.607L127.851 66.4133H128.794ZM131.898 65.1941L130.428 67.1548H129.674L130.679 65.1941H131.898Z" fill="black"/>
    <path d="M132.891 71.4785C132.891 70.7369 132.879 70.1211 132.828 69.5303H133.985L134.06 70.7244H134.085C134.437 70.0457 135.279 69.3669 136.461 69.3669C137.454 69.3669 139 69.9577 139 72.4337V76.7322H137.692V72.5845C137.692 71.4282 137.265 70.4604 136.033 70.4604C135.166 70.4604 134.5 71.0637 134.274 71.7927C134.211 71.9561 134.186 72.1823 134.186 72.396V76.7197H132.879V71.4785H132.891Z" fill="black"/>
    <path fill-rule="evenodd" clip-rule="evenodd" d="M6.11038 0H59.1504C62.2424 0 64.7812 2.52632 64.7812 5.63079V27.89V58.6709C64.7812 61.7628 62.2549 64.3017 59.1504 64.3017H6.11038C3.0059 64.3017 0.479584 61.7628 0.479584 58.6709V27.89V5.63079C0.479584 2.52632 3.0059 0 6.11038 0Z" fill="white"/>
    <path fill-rule="evenodd" clip-rule="evenodd" d="M57.7428 1.70923H7.50552C4.57701 1.70923 2.17638 4.10986 2.17638 7.03837V57.2756C2.17638 60.2041 4.57701 62.6048 7.50552 62.6048H57.7428C60.6713 62.6048 63.0719 60.2041 63.0719 57.2756V7.0258C63.0719 4.09729 60.6713 1.70923 57.7428 1.70923Z" fill="#ED1C24"/>
    <path d="M71.0279 26.03V17.8603H69.5448V26.03H71.0279ZM70.2863 14.6679C70.1104 14.6679 69.947 14.7056 69.8087 14.7936C69.6705 14.869 69.5573 14.9821 69.4819 15.1203C69.4065 15.2586 69.3688 15.4094 69.3562 15.598C69.3562 15.7739 69.3939 15.9247 69.4694 16.063C69.5448 16.2013 69.6453 16.3018 69.7836 16.3898C69.9218 16.4652 70.0726 16.5155 70.2486 16.5155C70.4497 16.5155 70.6131 16.4778 70.7639 16.3898C70.9022 16.3144 71.0153 16.2013 71.0907 16.063C71.1661 15.9247 71.2038 15.7739 71.2038 15.598C71.2038 15.422 71.1661 15.2586 71.0907 15.1203C71.0153 14.9821 70.9148 14.869 70.7765 14.7936C70.6257 14.7056 70.4749 14.6679 70.2863 14.6679ZM75.7034 26.03H77.1866V15.9122H80.6681V14.6679H72.247V15.9122H75.7034V26.03ZM81.108 26.03H82.5785V21.6812C82.5785 21.5555 82.5911 21.4298 82.6037 21.3167C82.6162 21.2036 82.6288 21.0905 82.654 20.9899C82.7168 20.6129 82.8425 20.2861 83.031 19.997C83.207 19.7079 83.4332 19.4943 83.7097 19.3309C83.9862 19.1675 84.3005 19.0921 84.6524 19.0795C84.7529 19.0795 84.8409 19.0795 84.9289 19.0921C85.0043 19.1046 85.0797 19.1172 85.1551 19.1298V17.7346C85.0923 17.7221 85.0294 17.6969 84.954 17.6969C84.8912 17.6844 84.8158 17.6844 84.7278 17.6844C84.3884 17.6844 84.0742 17.7598 83.7851 17.898C83.4835 18.0489 83.2321 18.25 82.9933 18.5139C82.7671 18.7778 82.5911 19.0921 82.4654 19.4691H82.4026L82.3523 17.8729H81.0452C81.0703 18.25 81.0829 18.6522 81.0954 19.0669C81.108 19.4817 81.108 19.9342 81.108 20.4118V26.03ZM92.2816 21.0276C92.2816 20.6129 92.2439 20.2107 92.1433 19.8211C92.0428 19.4314 91.892 19.0669 91.6657 18.7527C91.4395 18.4385 91.1127 18.1745 90.7105 17.986C90.3083 17.7975 89.793 17.6969 89.1771 17.6969C88.8378 17.6969 88.4984 17.7221 88.1716 17.7849C87.8448 17.8478 87.5432 17.9232 87.2541 18.0363C86.965 18.1368 86.7137 18.2751 86.4874 18.4134L86.8268 19.3937C87.0153 19.268 87.229 19.1549 87.4678 19.0669C87.694 18.9789 87.9454 18.9035 88.1968 18.8533C88.4481 18.803 88.6995 18.7778 88.9635 18.7778C89.3782 18.7778 89.705 18.8533 89.9564 18.9789C90.2078 19.1046 90.3963 19.268 90.522 19.4691C90.6477 19.6702 90.7231 19.8713 90.7734 20.085C90.8111 20.2987 90.8236 20.4872 90.8236 20.6632V20.8265C89.7679 20.8265 88.8755 20.9397 88.1465 21.1659C87.4175 21.4047 86.8645 21.7441 86.4874 22.1965C86.1104 22.649 85.9218 23.202 85.9218 23.8682C85.9218 24.1698 85.9721 24.4589 86.0726 24.7354C86.1732 25.0119 86.3366 25.2633 86.5503 25.477C86.7639 25.7032 87.0153 25.8792 87.3295 26.0049C87.6437 26.1306 88.0082 26.206 88.423 26.206C88.8126 26.206 89.1646 26.1431 89.4913 26.03C89.8056 25.9169 90.0946 25.7661 90.3334 25.5901C90.5723 25.4016 90.7734 25.213 90.9242 24.9868H90.9745L91.0876 26.0174H92.4324C92.3822 25.7409 92.3445 25.4267 92.3319 25.0999C92.3067 24.7731 92.3067 24.4212 92.3067 24.0693V21.0276H92.2816ZM90.8488 23.2775C90.8488 23.3529 90.8362 23.4283 90.8236 23.5163C90.8111 23.6042 90.7859 23.6797 90.7608 23.7551C90.6854 23.9939 90.5597 24.2075 90.3837 24.4086C90.2078 24.6223 89.9815 24.7857 89.7176 24.9114C89.4536 25.0371 89.1394 25.1125 88.7875 25.1125C88.5361 25.1125 88.2973 25.0622 88.0836 24.9617C87.87 24.8611 87.7066 24.6977 87.5809 24.4966C87.4552 24.283 87.3924 24.019 87.3924 23.7048C87.3924 23.3906 87.4552 23.1141 87.5935 22.9004C87.7317 22.6742 87.9077 22.4982 88.1339 22.3599C88.3602 22.2217 88.6241 22.1086 88.9258 22.0331C89.2274 21.9577 89.5291 21.9075 89.8684 21.8823C90.1952 21.8572 90.522 21.8446 90.8488 21.8572V23.2775ZM100.25 14.052V18.9287H100.212C100.087 18.7024 99.9108 18.5013 99.6846 18.3128C99.4584 18.1243 99.1818 17.9734 98.855 17.8603C98.5283 17.7472 98.1638 17.6844 97.749 17.6844C97.2463 17.6844 96.7812 17.7849 96.3287 17.986C95.8888 18.1871 95.4992 18.4762 95.1598 18.8533C94.8205 19.2303 94.5565 19.6954 94.368 20.2358C94.1795 20.7763 94.0789 21.3921 94.0789 22.0709C94.0789 22.6867 94.1669 23.2523 94.3429 23.7676C94.5188 24.2704 94.7576 24.7103 95.0844 25.0748C95.3986 25.4393 95.7631 25.7158 96.1905 25.9169C96.6178 26.118 97.0703 26.2185 97.573 26.2185C98.0129 26.2185 98.4277 26.1431 98.7796 26.0049C99.1441 25.8666 99.4584 25.6781 99.7223 25.4393C99.9862 25.2005 100.2 24.924 100.351 24.6223H100.388L100.451 26.0426H101.784C101.771 25.854 101.758 25.6404 101.746 25.4141C101.733 25.1753 101.733 24.9365 101.721 24.6852C101.721 24.4338 101.721 24.1824 101.721 23.9436V14.0771H100.25V14.052ZM100.25 22.6113C100.25 22.7244 100.25 22.8375 100.238 22.9381C100.225 23.0512 100.212 23.1518 100.187 23.2523C100.099 23.6168 99.936 23.9436 99.7223 24.2075C99.5086 24.4715 99.2573 24.6726 98.9556 24.8108C98.6665 24.9491 98.3397 25.0245 98.0129 25.0245C97.6107 25.0245 97.2588 24.9365 96.9572 24.7857C96.6555 24.6349 96.4042 24.4086 96.2031 24.1321C96.002 23.8556 95.8511 23.5288 95.7506 23.1769C95.65 22.8124 95.5998 22.4228 95.5998 22.008C95.5998 21.5555 95.6626 21.1408 95.7631 20.7511C95.8763 20.3741 96.0271 20.0347 96.2408 19.7456C96.4544 19.4566 96.7058 19.2429 97.0075 19.0795C97.3091 18.9161 97.6485 18.8407 98.0381 18.8407C98.4152 18.8407 98.7419 18.9161 99.0436 19.0795C99.3452 19.2303 99.584 19.444 99.7851 19.6954C99.9737 19.9593 100.112 20.2484 100.187 20.5626C100.212 20.6632 100.225 20.7637 100.238 20.8768C100.25 20.9899 100.25 21.0905 100.25 21.191V22.6113ZM110.758 22.2217C110.77 22.1463 110.783 22.0457 110.783 21.9326C110.795 21.8195 110.808 21.6812 110.808 21.5304C110.808 21.2287 110.783 20.902 110.707 20.55C110.645 20.1981 110.531 19.8588 110.381 19.5194C110.23 19.18 110.029 18.8784 109.765 18.6019C109.501 18.3254 109.187 18.0991 108.797 17.9357C108.407 17.7723 107.955 17.6844 107.427 17.6844C106.836 17.6844 106.296 17.7975 105.818 18.0237C105.341 18.25 104.951 18.5642 104.612 18.9538C104.285 19.356 104.033 19.8211 103.857 20.3489C103.681 20.8768 103.593 21.455 103.593 22.0709C103.593 22.6867 103.681 23.2523 103.87 23.7551C104.046 24.2578 104.322 24.6977 104.662 25.0622C105.001 25.4267 105.429 25.7032 105.919 25.9043C106.409 26.1054 106.974 26.206 107.603 26.206C108.03 26.206 108.42 26.1808 108.772 26.118C109.111 26.0677 109.413 26.0049 109.677 25.9169C109.928 25.8289 110.154 25.7535 110.33 25.6781L110.079 24.6097C109.89 24.6852 109.702 24.7606 109.488 24.8234C109.275 24.8863 109.036 24.9365 108.759 24.9742C108.483 25.0119 108.168 25.0245 107.829 25.0245C107.452 25.0245 107.1 24.9742 106.773 24.8611C106.447 24.7606 106.145 24.5846 105.881 24.3584C105.63 24.1321 105.416 23.8305 105.265 23.4786C105.114 23.1141 105.039 22.6867 105.026 22.184H110.758V22.2217ZM105.039 21.1533C105.064 20.8894 105.127 20.6255 105.227 20.3364C105.328 20.0599 105.466 19.7959 105.655 19.5571C105.843 19.3183 106.07 19.1172 106.346 18.9664C106.623 18.8156 106.949 18.7401 107.314 18.7401C107.641 18.7401 107.93 18.803 108.168 18.9035C108.407 19.0041 108.608 19.1423 108.759 19.3183C108.923 19.4943 109.036 19.6828 109.136 19.8965C109.224 20.1101 109.287 20.3238 109.325 20.5375C109.363 20.7511 109.375 20.9648 109.375 21.1533H105.039Z" fill="black"/>
    <path d="M117.256 57.7031H122.56L121.24 33.7219H114.164L111.6 41.6905C111.336 42.5829 111.072 43.513 110.808 44.4933C110.544 45.4611 110.28 46.4415 110.041 47.4344C109.79 48.4148 109.551 49.3826 109.325 50.3127H109.224C109.048 49.37 108.847 48.4148 108.621 47.447C108.407 46.4792 108.181 45.5114 107.93 44.5562C107.691 43.601 107.44 42.6457 107.188 41.7408L104.838 33.7345H97.6108L96.0774 57.7156H101.092L101.52 48.6033C101.582 47.5978 101.633 46.542 101.683 45.4234C101.733 44.3048 101.771 43.1736 101.809 42.0299C101.859 40.8861 101.897 39.7675 101.947 38.674H102.022C102.211 39.7298 102.425 40.7856 102.663 41.8665C102.902 42.9474 103.154 44.0031 103.405 45.0589C103.669 46.1147 103.92 47.1076 104.184 48.0629L106.748 57.3134H110.984L113.9 47.9497C114.214 47.0071 114.516 46.0141 114.83 44.9709C115.144 43.9277 115.446 42.872 115.747 41.8036C116.049 40.7353 116.313 39.6921 116.564 38.6614H116.678C116.678 39.8303 116.69 40.9867 116.703 42.1304C116.728 43.2742 116.753 44.3802 116.791 45.4611C116.816 46.5295 116.854 47.5475 116.891 48.5153L117.256 57.7031Z" fill="#ED1C24"/>
    <path d="M57.9313 56.8484H47.6626V36.3111H42.0193V56.8484H31.7506V14.0142H42.0193V30.3661H47.6626V14.0142H57.9313V56.8484Z" fill="white"/>
    <path d="M91.98 45.8132L81.8119 55.9562L74.2204 48.3646L81.9124 40.6726L83.3578 42.0803L77.174 48.2641L81.7993 52.9271L91.0248 43.7142H94.2046C93.4505 37.5304 88.1968 32.7417 81.8119 32.7417C75.1127 32.7417 69.6579 38.008 69.3437 44.6192H71.6689L72.1465 44.1415L81.8119 34.4762L88.6995 41.3764L89.3908 42.0677L81.6988 49.7598L80.2911 48.3521L86.4623 42.1683L81.7993 37.5053L72.599 46.7056H69.4191C70.1607 52.8894 75.427 57.6906 81.8119 57.6906C88.511 57.6906 93.9784 52.4118 94.2801 45.8006H91.98V45.8132Z" fill="#ED1C24"/>
</svg>
