<svg width="56" height="56" viewBox="0 0 56 56" fill="none" xmlns="http://www.w3.org/2000/svg">
    <path d="M14.6255 1.7066C12.7303 1.70589 11.1971 3.27203 11.1998 5.15764L11.2199 17.1855C11.1985 18.3571 12.9692 18.3502 12.9387 17.179L12.9185 5.15774C12.9168 4.18677 13.6643 3.42519 14.6255 3.42558L49.8717 3.43856C50.5306 3.43856 50.9177 3.63902 51.1859 3.93209C51.4542 4.22506 51.611 4.65572 51.6106 5.16914L51.5904 24.0553C51.5896 25.0207 50.8322 25.788 49.8717 25.7874L36.9878 25.7809C36.3966 25.7776 35.9782 26.3575 36.1687 26.9172L37.0952 29.6951L31.4438 25.927C31.3028 25.8321 31.1369 25.7814 30.9671 25.7808H14.6441C13.6662 25.7808 12.9519 25.0651 12.9505 24.0872L12.9436 20.5222C12.965 19.3505 11.1943 19.3574 11.2248 20.5286L11.2283 22.3414L5.18753 22.3446C4.12779 22.3446 3.21154 22.7434 2.61108 23.3988C2.01062 24.0542 1.73075 24.9194 1.73157 25.7964L1.75003 44.6833C1.75261 46.5743 3.29795 48.1356 5.19424 48.1343L15.166 48.1278L13.8249 52.1511C13.5657 52.9277 14.4364 53.5927 15.1173 53.1381L22.6352 48.1262H40.4185C42.2973 48.1262 43.8299 46.5958 43.8325 44.7171L43.8511 31.7678C43.8686 30.6057 42.117 30.604 42.1323 31.7661L42.1138 44.7138C42.1124 45.6918 41.3964 46.4074 40.4185 46.4074H22.375C22.2054 46.4074 22.0395 46.4577 21.8983 46.5516L16.2486 50.318L17.1751 47.5386C17.3607 46.9819 16.9462 46.407 16.3594 46.4073L5.19424 46.417C4.234 46.4176 3.46994 45.6471 3.46878 44.6815L3.4503 25.7953C3.45021 25.283 3.61017 24.8527 3.87831 24.56C4.14681 24.267 4.52852 24.0649 5.18753 24.0649L11.2317 24.0779C11.2343 25.9733 12.7653 27.5002 14.644 27.5002H30.7069L38.2248 32.5121C38.9044 32.9668 39.775 32.3052 39.5189 31.5286L38.1744 27.5002L49.865 27.5068C51.7609 27.5079 53.3091 25.947 53.3108 24.0559L53.3294 5.17142C53.3302 4.29542 53.0551 3.42844 52.4549 2.77286C51.856 2.11867 50.9354 1.72049 49.875 1.7188L14.6255 1.7066ZM11.6244 33.5134C10.4775 33.5134 10.4775 35.2338 11.6244 35.2338H33.9682C35.1151 35.2338 35.1151 33.5134 33.9682 33.5134H11.6244ZM11.6244 36.9525C10.5038 36.9785 10.5038 38.6464 11.6244 38.6713H33.9682C35.0889 38.6453 35.0889 36.9774 33.9682 36.9525H11.6244ZM11.6244 40.3901C10.4775 40.3901 10.4775 42.1104 11.6244 42.1104H33.9682C35.1151 42.1104 35.1151 40.3901 33.9682 40.3901H11.6244Z" fill="#4B455C"/>
    <path d="M18.601 17.3381C18.9964 17.3376 19.3794 17.1998 19.6844 16.9482C19.9895 16.6967 20.1978 16.347 20.2737 15.959L26.2388 11.9822C26.3993 12.2434 26.6273 12.4564 26.8987 12.5988C27.1701 12.7413 27.475 12.8078 27.781 12.7915C28.0871 12.7751 28.3831 12.6764 28.6378 12.5059C28.8925 12.3353 29.0965 12.0992 29.2282 11.8224L35.1288 13.7893C35.2263 14.1651 35.4492 14.4963 35.7606 14.7281C36.072 14.96 36.4532 15.0785 36.8411 15.0642C37.2291 15.0499 37.6005 14.9036 37.894 14.6495C38.1874 14.3953 38.3853 14.0486 38.4549 13.6667L44.737 8.95505C45.0371 9.22063 45.4213 9.37175 45.8219 9.38179C46.2225 9.39182 46.6138 9.26013 46.9268 9.00992C47.2398 8.75971 47.4545 8.40704 47.5329 8.01406C47.6114 7.62109 47.5486 7.21303 47.3556 6.86182C47.1627 6.51061 46.8519 6.23877 46.4782 6.09423C46.1044 5.94969 45.6916 5.94172 45.3126 6.07172C44.9335 6.20172 44.6125 6.46135 44.4062 6.80486C44.1998 7.14836 44.1213 7.55368 44.1845 7.94939L38.2063 12.433C38.0413 12.179 37.8116 11.9736 37.5409 11.838C37.2701 11.7023 36.968 11.6414 36.6659 11.6613C36.3637 11.6813 36.0723 11.7815 35.8217 11.9515C35.5711 12.1216 35.3704 12.3554 35.2403 12.6289L29.3397 10.662C29.2427 10.2879 29.0214 9.95783 28.7121 9.72603C28.4028 9.49423 28.0238 9.37446 27.6375 9.38639C27.2512 9.39831 26.8804 9.54121 26.5859 9.79164C26.2915 10.0421 26.091 10.3852 26.0172 10.7646L20.0519 14.7413C19.8963 14.4882 19.6771 14.2802 19.4162 14.1379C19.1554 13.9956 18.8618 13.924 18.5647 13.9302C18.2676 13.9364 17.9773 14.0202 17.7225 14.1732C17.4678 14.3263 17.2575 14.5433 17.1126 14.8027C16.9676 15.0621 16.893 15.355 16.8962 15.6521C16.8994 15.9493 16.9802 16.2404 17.1306 16.4967C17.2811 16.753 17.4959 16.9655 17.7539 17.1131C18.0118 17.2607 18.3038 17.3382 18.601 17.3381ZM45.8674 7.11322C45.9797 7.11322 46.0895 7.14654 46.1829 7.20896C46.2764 7.27137 46.3492 7.36009 46.3922 7.46389C46.4352 7.56769 46.4464 7.6819 46.4245 7.79209C46.4026 7.90228 46.3485 8.0035 46.269 8.08294C46.1896 8.16239 46.0884 8.21649 45.9782 8.23841C45.868 8.26032 45.7538 8.24908 45.65 8.20608C45.5462 8.16309 45.4575 8.09028 45.395 7.99686C45.3326 7.90345 45.2993 7.79362 45.2993 7.68127C45.2995 7.53067 45.3594 7.38628 45.4659 7.27979C45.5724 7.17329 45.7168 7.11339 45.8674 7.11322ZM36.7786 12.7937C36.8909 12.7937 37.0007 12.827 37.0942 12.8894C37.1876 12.9519 37.2604 13.0406 37.3034 13.1444C37.3464 13.2482 37.3576 13.3624 37.3357 13.4726C37.3138 13.5828 37.2597 13.684 37.1802 13.7634C37.1008 13.8429 36.9996 13.897 36.8894 13.9189C36.7792 13.9408 36.665 13.9296 36.5612 13.8866C36.4574 13.8436 36.3687 13.7708 36.3063 13.6774C36.2438 13.5839 36.2105 13.4741 36.2105 13.3618C36.2107 13.2112 36.2706 13.0668 36.3771 12.9603C36.4836 12.8538 36.628 12.7939 36.7786 12.7937ZM27.6898 10.5215C27.8021 10.5215 27.912 10.5548 28.0054 10.6173C28.0988 10.6797 28.1716 10.7684 28.2146 10.8722C28.2576 10.976 28.2688 11.0902 28.2469 11.2004C28.225 11.3106 28.1709 11.4118 28.0915 11.4912C28.012 11.5707 27.9108 11.6248 27.8006 11.6467C27.6904 11.6686 27.5762 11.6574 27.4724 11.6144C27.3686 11.5714 27.2799 11.4986 27.2175 11.4052C27.1551 11.3117 27.1217 11.2019 27.1217 11.0896C27.1219 10.939 27.1818 10.7946 27.2883 10.6881C27.3948 10.5816 27.5392 10.5217 27.6898 10.5215ZM18.601 15.0659C18.7133 15.0659 18.8232 15.0992 18.9166 15.1616C19.01 15.2241 19.0828 15.3128 19.1258 15.4166C19.1688 15.5204 19.1801 15.6346 19.1581 15.7448C19.1362 15.855 19.0821 15.9562 19.0027 16.0356C18.9232 16.1151 18.822 16.1692 18.7118 16.1911C18.6016 16.213 18.4874 16.2018 18.3836 16.1588C18.2798 16.1158 18.1911 16.043 18.1287 15.9496C18.0663 15.8561 18.0329 15.7463 18.0329 15.634C18.0331 15.4834 18.093 15.339 18.1995 15.2325C18.306 15.126 18.4504 15.0661 18.601 15.0659Z" fill="#D2353B"/>
    <path d="M17.4648 22.8992H47.0034C47.1541 22.8992 47.2985 22.8393 47.4051 22.7328C47.5116 22.6263 47.5714 22.4818 47.5714 22.3311C47.5714 22.1805 47.5116 22.036 47.4051 21.9294C47.2985 21.8229 47.1541 21.7631 47.0034 21.7631H46.4353V10.5215C46.4353 10.3709 46.3755 10.2264 46.269 10.1199C46.1624 10.0133 46.018 9.95349 45.8673 9.95349C45.7166 9.95349 45.5722 10.0133 45.4656 10.1199C45.3591 10.2264 45.2992 10.3709 45.2992 10.5215V21.7631H41.891V19.0423C41.891 18.8916 41.8311 18.7471 41.7246 18.6406C41.618 18.5341 41.4736 18.4742 41.3229 18.4742C41.1722 18.4742 41.0278 18.5341 40.9212 18.6406C40.8147 18.7471 40.7549 18.8916 40.7549 19.0423V21.7631H37.3466V16.7701C37.3466 16.6194 37.2867 16.4749 37.1802 16.3684C37.0737 16.2619 36.9292 16.202 36.7785 16.202C36.6279 16.202 36.4834 16.2619 36.3768 16.3684C36.2703 16.4749 36.2105 16.6194 36.2105 16.7701V21.7631H32.8022V19.0423C32.8022 18.8916 32.7423 18.7471 32.6358 18.6406C32.5293 18.5341 32.3848 18.4742 32.2341 18.4742C32.0835 18.4742 31.939 18.5341 31.8324 18.6406C31.7259 18.7471 31.6661 18.8916 31.6661 19.0423V21.7631H28.2578V14.4979C28.2578 14.3472 28.1979 14.2027 28.0914 14.0962C27.9849 13.9897 27.8404 13.9298 27.6897 13.9298C27.5391 13.9298 27.3946 13.9897 27.2881 14.0962C27.1815 14.2027 27.1217 14.3472 27.1217 14.4979V21.7631H23.7134V19.0423C23.7134 18.8916 23.6535 18.7471 23.547 18.6406C23.4405 18.5341 23.296 18.4742 23.1453 18.4742C22.9947 18.4742 22.8502 18.5341 22.7437 18.6406C22.6371 18.7471 22.5773 18.8916 22.5773 19.0423V21.7631H19.169V19.0423C19.169 18.8916 19.1091 18.7471 19.0026 18.6406C18.8961 18.5341 18.7516 18.4742 18.6009 18.4742C18.4503 18.4742 18.3058 18.5341 18.1993 18.6406C18.0927 18.7471 18.0329 18.8916 18.0329 19.0423V21.7631H17.4648C17.3142 21.7631 17.1697 21.8229 17.0632 21.9294C16.9566 22.036 16.8968 22.1805 16.8968 22.3311C16.8968 22.4818 16.9566 22.6263 17.0632 22.7328C17.1697 22.8393 17.3142 22.8992 17.4648 22.8992Z" fill="#D2353B"/>
</svg>
