<svg width="42" height="60" viewBox="0 0 42 60" fill="none" xmlns="http://www.w3.org/2000/svg">
    <path fill-rule="evenodd" clip-rule="evenodd" d="M10.1442 30.7021C7.68124 30.7021 5.68459 32.6988 5.68459 35.1618C5.68459 37.6248 7.68123 39.6215 10.1442 39.6215H17.2L16.1547 37.78H10.1442C8.69825 37.78 7.52604 36.6078 7.52604 35.1618C7.52604 33.7158 8.69825 32.5436 10.1442 32.5436H22.9183C24.3643 32.5436 25.5365 33.7158 25.5365 35.1618C25.5365 36.6078 24.3643 37.78 22.9183 37.78H19.0753L20.1206 39.6215H22.0686C22.1352 39.2657 22.3488 38.9376 22.684 38.7374C23.2641 38.3944 24.0597 38.6021 24.3933 39.1899L24.4789 39.3408C26.1722 38.7082 27.3779 37.0758 27.3779 35.1618C27.3779 32.6988 25.3813 30.7021 22.9183 30.7021H10.1442Z" fill="#4B455C"/>
    <path fill-rule="evenodd" clip-rule="evenodd" d="M4.46523 0.00244141H28.597C30.6518 0.00244141 32.3235 1.67414 32.3236 3.7289V38.0181C32.0114 37.9366 31.6651 37.9637 31.3761 38.1346C30.7767 38.4914 30.5667 39.2576 30.8881 39.8596L30.9463 39.9621C31.1355 40.2953 31.022 40.724 30.694 40.9203C30.6649 40.9379 30.6351 40.953 30.6048 40.9657L30.6049 3.7289C30.6049 2.62181 29.7042 1.72119 28.5971 1.72119H4.46523C3.35814 1.72119 2.45752 2.62181 2.45752 3.7289V51.2759C2.45752 52.383 3.35814 53.2836 4.46523 53.2836H16.2589L22.7512 55.0023H4.46523C2.41047 55.0023 0.73877 53.3306 0.73877 51.2759V3.7289C0.73877 1.67414 2.41047 0.00244141 4.46523 0.00244141ZM19.3385 5.48438C19.8131 5.48438 20.1979 5.0996 20.1979 4.62501C20.1979 4.15031 19.8131 3.76564 19.3385 3.76564H13.7237C13.2491 3.76564 12.8643 4.15042 12.8643 4.62501C12.8643 5.0996 13.2491 5.48438 13.7237 5.48438H19.3385Z" fill="#4B455C"/>
    <path d="M16.5312 26.8149C21.5938 26.8149 25.6979 22.7108 25.6979 17.6482C25.6979 12.5856 21.5938 8.48157 16.5312 8.48157C11.4686 8.48157 7.36453 12.5856 7.36453 17.6482C7.37009 22.7085 11.4709 26.8093 16.5312 26.8149ZM16.5312 10.3149C20.5813 10.3149 23.8645 13.5981 23.8645 17.6482C23.8645 21.6983 20.5813 24.9816 16.5312 24.9816C12.4811 24.9816 9.19787 21.6983 9.19787 17.6482C9.20241 13.6 12.483 10.3194 16.5312 10.3149Z" fill="#D2353B"/>
    <path d="M37.7953 44.8055L34.2802 37.877C33.5816 36.6423 31.9193 36.195 30.68 36.9326C30.2799 37.1708 29.9622 37.5005 29.7414 37.8834C28.9722 36.8667 27.4696 36.5575 26.3334 37.2338C25.9332 37.472 25.6155 37.8017 25.3924 38.1826C24.6259 37.1665 23.1209 36.8611 21.9867 37.535C21.5933 37.7692 21.2804 38.0915 21.0588 38.4611L19.3401 35.4332C18.6171 34.1616 17.0095 33.7331 15.7385 34.4885C14.4811 35.2358 14.0457 36.8803 14.7683 38.1533L21.3717 49.7862L15.7795 49.2263C14.272 49.0538 12.8376 50.0505 12.4414 51.5471C12.1444 52.6692 12.7971 53.8192 13.8964 54.1102L26.429 57.428C28.3801 57.9446 30.4212 57.6544 32.1797 56.6099L34.8342 55.0288C36.5864 53.987 37.841 52.3154 38.368 50.325C38.8601 48.4661 38.6565 46.5058 37.7953 44.8055ZM34.1468 53.8217L31.4923 55.4028C30.0559 56.2567 28.3845 56.4937 26.7882 56.0711L14.2556 52.7533C13.89 52.6565 13.6714 52.2734 13.7706 51.8989C13.989 51.0739 14.7803 50.5241 15.62 50.6186L22.5688 51.3141C22.8265 51.3401 23.0769 51.2163 23.2196 50.9942C23.3606 50.7731 23.369 50.4892 23.2399 50.262L15.9624 37.4415C15.6193 36.8353 15.8266 36.0523 16.4348 35.6892C16.7349 35.5117 17.0766 35.4729 17.3863 35.5549C17.696 35.6369 17.9737 35.8396 18.1464 36.1438L20.9941 41.1606C21.0006 41.1739 21.0097 41.1879 21.0174 41.2016L23.0003 44.6929C23.1895 45.0261 23.6108 45.1376 23.9401 44.9416C24.2693 44.7457 24.3832 44.3155 24.194 43.9823L22.195 40.4606C21.875 39.859 22.0859 39.0945 22.6839 38.7374C23.264 38.3944 24.0595 38.6021 24.3932 39.19L25.3463 40.871C25.3522 40.8812 25.3567 40.8911 25.3628 40.9001L26.3758 42.6826C26.565 43.0158 26.9863 43.1274 27.3156 42.9314C27.6448 42.7354 27.7587 42.3053 27.5695 41.9721L26.5449 40.169C26.2195 39.566 26.4293 38.7954 27.0306 38.4363C27.6094 38.0929 28.4063 38.3009 28.7399 38.8888L29.7511 40.6781C29.7521 40.6798 29.7517 40.6812 29.7531 40.6815L29.7541 40.6832C29.7634 40.6916 29.7611 40.6895 29.7586 40.6873L29.7596 40.689C29.7605 40.6907 29.7605 40.6907 29.7605 40.6907C29.7615 40.6924 29.7615 40.6924 29.7615 40.6924L29.7628 40.6927L29.7641 40.6931C29.9612 41.0124 30.3724 41.114 30.6939 40.9204C31.0218 40.7241 31.1353 40.2953 30.9462 39.9621L30.888 39.8596C30.5666 39.2576 30.7765 38.4914 31.3759 38.1346C31.956 37.7916 32.7667 38.028 33.07 38.5584L36.5682 45.4593C37.2736 46.8511 37.4398 48.453 37.0371 49.9741C36.6065 51.601 35.5789 52.9681 34.1468 53.8217Z" fill="#4B455C"/>
    <path d="M29.7573 40.6872L29.7588 40.6876C29.7574 40.6864 29.7561 40.6853 29.7561 40.6853C29.7573 40.6872 29.7589 40.6877 29.7573 40.6872Z" fill="#4B455C"/>
    <path d="M15.7116 18.4539H17.3509C17.7244 18.4539 18.0283 18.7578 18.0283 19.1313C18.0283 19.5049 17.7244 19.8088 17.3509 19.8088H14.4627C14.0177 19.8088 13.6571 20.1695 13.6571 20.6145C13.6571 21.0594 14.0177 21.4201 14.4627 21.4201H15.7256V22.1365C15.7256 22.5815 16.0862 22.9422 16.5313 22.9422C16.9763 22.9422 17.3369 22.5815 17.3369 22.1365V21.4201H17.3509C18.6129 21.4201 19.6396 20.3934 19.6396 19.1313C19.6396 17.8693 18.6129 16.8426 17.3509 16.8426H15.7116C15.338 16.8426 15.0341 16.5387 15.0341 16.1651C15.0341 15.7916 15.338 15.4877 15.7116 15.4877H18.5998C19.0448 15.4877 19.4054 15.1269 19.4054 14.682C19.4054 14.2371 19.0448 13.8763 18.5998 13.8763H17.3369V13.1599C17.3369 12.715 16.9763 12.3543 16.5313 12.3543C16.0862 12.3543 15.7256 12.715 15.7256 13.1599V13.8763H15.7116C14.4496 13.8763 13.4228 14.9031 13.4228 16.1652C13.4228 17.4272 14.4496 18.4539 15.7116 18.4539Z" fill="#D2353B"/>
    <rect x="2.00488" y="46.9182" width="18.9511" height="1.59029" rx="0.795147" fill="#4B455C"/>
</svg>
