<svg width="84" height="61" viewBox="0 0 84 61" fill="none" xmlns="http://www.w3.org/2000/svg">
    <path d="M49.9259 0.0966797H81.4119C82.7648 0.0966797 83.8616 1.19346 83.8616 2.54632V34.0325C83.8616 35.3854 82.7648 36.4822 81.4119 36.4822H68.1187V57.647C68.1187 58.9999 67.0219 60.0967 65.6691 60.0967H57.7974C56.7431 60.0967 55.807 59.4219 55.4735 58.4216L47.6022 34.8071C47.5189 34.5574 47.4764 34.2958 47.4764 34.0325V2.54632C47.4763 1.19346 48.5731 0.0966797 49.9259 0.0966797Z" fill="#ED1C24"/>
    <path d="M2.69672 0.0966797H34.1827C35.5356 0.0966797 36.6324 1.19346 36.6324 2.54632V34.0325C36.6324 35.3854 35.5356 36.4822 34.1827 36.4822H20.8894V57.647C20.8894 58.9999 19.7926 60.0967 18.4397 60.0967H10.5682C9.5139 60.0967 8.57765 59.4219 8.2445 58.4216L0.372822 34.8071C0.289536 34.5574 0.247078 34.2958 0.247078 34.0325V2.54632C0.247078 1.19346 1.34386 0.0966797 2.69672 0.0966797Z" fill="#D2353B"/>
</svg>
