<svg width="56" height="56" viewBox="0 0 56 56" fill="none" xmlns="http://www.w3.org/2000/svg">
    <g clip-path="url(#clip0_1243_7301)">
        <path d="M27.0251 27.166C31.4831 27.166 35.097 23.5521 35.097 19.0942C35.097 14.6362 31.4831 11.0223 27.0251 11.0223C22.5672 11.0223 18.9533 14.6362 18.9533 19.0942C18.9582 23.5501 22.5692 27.1611 27.0251 27.166ZM27.0251 12.6367C30.5915 12.6367 33.4826 15.5278 33.4826 19.0942C33.4826 22.6605 30.5915 25.5516 27.0251 25.5516C23.4587 25.5516 20.5676 22.6605 20.5676 19.0942C20.5716 15.5294 23.4604 12.6407 27.0251 12.6367Z" fill="#D2353B"/>
        <path d="M26.3035 19.8036H27.747C28.0759 19.8036 28.3435 20.0712 28.3435 20.4001C28.3435 20.7291 28.0759 20.9967 27.747 20.9967H25.2038C24.8119 20.9967 24.4944 21.3143 24.4944 21.7061C24.4944 22.0979 24.8119 22.4156 25.2038 22.4156H26.3158V23.0464C26.3158 23.4382 26.6334 23.7559 27.0253 23.7559C27.4172 23.7559 27.7347 23.4382 27.7347 23.0464V22.4156H27.747C28.8583 22.4156 29.7624 21.5115 29.7624 20.4001C29.7624 19.2888 28.8583 18.3847 27.747 18.3847H26.3035C25.9745 18.3847 25.7069 18.1171 25.7069 17.7881C25.7069 17.4592 25.9745 17.1916 26.3035 17.1916H28.8467C29.2386 17.1916 29.5562 16.874 29.5562 16.4822C29.5562 16.0904 29.2386 15.7728 28.8467 15.7728H27.7347V15.1419C27.7347 14.7501 27.4172 14.4325 27.0253 14.4325C26.6334 14.4325 26.3158 14.7501 26.3158 15.1419V15.7728H26.3035C25.1923 15.7728 24.2881 16.6769 24.2881 17.7882C24.2881 18.8995 25.1923 19.8036 26.3035 19.8036Z" fill="#D2353B"/>
        <path fill-rule="evenodd" clip-rule="evenodd" d="M12.8568 14.7915H13.2151C13.6603 14.7915 14.0214 15.1524 14.0214 15.5977C14.0214 16.0429 13.6604 16.4039 13.2152 16.4039H12.8569C10.7955 16.4039 9.11845 14.7268 9.11845 12.6654V1.61482H8.87476C8.42953 1.61482 8.06857 1.25386 8.06857 0.808629C8.06857 0.363398 8.42953 0.00244141 8.87476 0.00244141H44.9535C45.3988 0.00244141 45.7597 0.363398 45.7597 0.808629C45.7597 1.25386 45.3988 1.61482 44.9535 1.61482H44.8839V12.6654C44.8839 14.7268 43.2068 16.4039 41.1454 16.4039H40.6796C40.2344 16.4039 39.8735 16.0429 39.8735 15.5977C39.8735 15.1524 40.2344 14.7915 40.6796 14.7915H41.1454C42.3177 14.7915 43.2715 13.8377 43.2715 12.6654V1.61482H10.7307V12.6654C10.7307 13.8377 11.6845 14.7915 12.8568 14.7915ZM34.4921 37.7474V35.154C34.4921 34.9402 34.4071 34.7351 34.2559 34.5839L33.243 33.5711C32.9282 33.2562 32.4177 33.2562 32.103 33.5711C31.7881 33.8859 31.7881 34.3964 32.103 34.7111L32.8797 35.4878V37.4595H25.5566V37.4571H23.9441V37.4595H21.5991V37.4571H19.9867V37.4595H17.6293C17.418 37.4595 17.246 37.2875 17.246 37.0761V9.91146H19.4853V9.91107H26.873V9.91146H29.8151C30.2603 9.91146 30.6213 9.5505 30.6213 9.10527C30.6213 8.66004 30.2603 8.29909 29.8151 8.29909H13.1413C12.5072 8.29909 11.9913 8.81494 11.9913 9.44903V12.2599C11.9913 12.894 12.5072 13.4099 13.1413 13.4099H15.6336V37.0761C15.6336 38.1765 16.5289 39.0717 17.6293 39.0717H27.8913V40.1679C27.8913 42.8002 28.9061 45.285 30.7489 47.1646L31.2573 47.6832V54.1961C31.2573 54.6414 31.6183 55.0023 32.0635 55.0023C32.5087 55.0023 32.8697 54.6414 32.8697 54.1961V47.3539C32.8697 47.1429 32.7869 46.9401 32.6391 46.7895L31.9001 46.0358C30.3547 44.4594 29.5036 42.3755 29.5036 40.1679V39.0717H32.9651C33.2513 41.2827 34.2518 43.3267 35.8544 44.9293C36.0118 45.0868 36.2182 45.1654 36.4244 45.1654C36.6307 45.1654 36.8371 45.0868 36.9945 44.9293C37.3093 44.6144 37.3093 44.1041 36.9945 43.7892C35.3808 42.1753 34.4921 40.0297 34.4921 37.7474ZM13.6037 11.7975V9.91146H15.6336V11.7975H13.6037ZM43.3332 29.9644L38.2611 24.8923V13.4099H40.7534C41.3875 13.4099 41.9034 12.894 41.9034 12.2599V9.44903C41.9034 8.81494 41.3875 8.29909 40.7534 8.29909H33.2507C32.8055 8.29909 32.4445 8.66004 32.4445 9.10527C32.4445 9.55051 32.8055 9.91146 33.2507 9.91146H36.6488V30.4262L33.7193 27.4967C32.5019 26.2794 30.5213 26.2795 29.3038 27.4967C28.0865 28.714 28.0865 30.6948 29.3038 31.9121L29.6734 32.2817C29.9882 32.5965 30.4987 32.5965 30.8135 32.2817C31.1283 31.9669 31.1283 31.4564 30.8135 31.1416L30.4439 30.7721C30.1587 30.4869 30.0017 30.1078 30.0017 29.7045C30.0017 29.3013 30.1587 28.922 30.4439 28.6369C31.0325 28.0481 31.9903 28.0481 32.5791 28.6369L37.8466 33.9044C38.004 34.0618 38.2104 34.1406 38.4167 34.1406C38.623 34.1406 38.8293 34.0619 38.9867 33.9044C39.3015 33.5895 39.3015 33.0791 38.9867 32.7643L38.261 32.0387V27.1726L42.1931 31.1047C44.7363 33.6479 45.858 37.2765 45.1938 40.8113L44.555 44.2106C44.5457 44.2597 44.5411 44.3095 44.5411 44.3595V54.1965C44.5411 54.6417 44.9021 55.0027 45.3473 55.0027C45.7925 55.0027 46.1535 54.6417 46.1535 54.1965V44.4345L46.7785 41.109C47.5412 37.0506 46.2533 32.8844 43.3332 29.9644ZM40.2911 9.91146V11.7975H38.2612V9.91146H40.2911Z" fill="#4B455C"/>
    </g>
    <defs>
        <clipPath id="clip0_1243_7301">
            <rect width="55" height="55" fill="white" transform="translate(0.03125 0.00244141)"/>
        </clipPath>
    </defs>
</svg>
