<svg width="36" height="36" viewBox="0 0 36 36" fill="none" xmlns="http://www.w3.org/2000/svg">
    <path fill-rule="evenodd" clip-rule="evenodd" d="M4.18043 0.00195312C1.88366 0.00284795 0.00394303 1.87653 0.00394303 4.17355V7.51213C0.00216523 7.97627 0.37935 8.35272 0.843479 8.35004H6.68437V10.8523C6.66841 11.9811 8.36961 11.9811 8.35366 10.8523V4.17355C8.35366 3.23147 8.02627 2.37083 7.49619 1.67124H24.2119C25.6135 1.67124 26.7159 2.77358 26.7159 4.17518C26.6999 5.30389 28.4011 5.30389 28.3852 4.17518C28.3852 1.87765 26.5094 0.00195312 24.2119 0.00195312H4.18043ZM4.18043 1.67124C5.58287 1.67081 6.68274 2.77191 6.68274 4.17355V6.68075H1.67486V4.17355C1.67486 2.77247 2.77878 1.67168 4.18043 1.67124ZM14.1147 6.68075C13.8967 6.69596 13.6933 6.79593 13.5482 6.95924C13.403 7.12255 13.3276 7.33621 13.338 7.55447C13.3485 7.77272 13.444 7.97821 13.604 8.12691C13.7641 8.27562 13.9761 8.35571 14.1945 8.35004H20.8733C21.0916 8.34533 21.2993 8.25532 21.452 8.09931C21.6047 7.9433 21.6902 7.73369 21.6902 7.5154C21.6902 7.2971 21.6047 7.08749 21.452 6.93148C21.2993 6.77547 21.0916 6.68546 20.8733 6.68075H14.1945C14.1679 6.67947 14.1413 6.67947 14.1147 6.68075ZM14.1147 10.021C13.8968 10.0363 13.6937 10.1364 13.5486 10.2997C13.4036 10.463 13.3283 10.6765 13.3387 10.8946C13.3491 11.1128 13.4445 11.3182 13.6045 11.4669C13.7644 11.6156 13.9762 11.6957 14.1945 11.6903H18.371C18.4822 11.6928 18.5928 11.673 18.6962 11.6322C18.7997 11.5914 18.8939 11.5303 18.9734 11.4525C19.053 11.3748 19.1161 11.2819 19.1593 11.1794C19.2024 11.0769 19.2246 10.9668 19.2246 10.8556C19.2246 10.7444 19.2024 10.6343 19.1593 10.5318C19.1161 10.4293 19.053 10.3364 18.9734 10.2587C18.8939 10.1809 18.7997 10.1199 18.6962 10.079C18.5928 10.0382 18.4822 10.0185 18.371 10.021H14.1945C14.1679 10.0197 14.1413 10.0197 14.1147 10.021ZM7.50597 13.3449C7.04565 13.3512 6.67807 13.7306 6.68437 14.1909V30.8838C6.68437 33.1814 8.56007 35.0571 10.8576 35.0571H22.5426C23.6708 35.0729 23.6708 33.3724 22.5426 33.3878H14.1734C14.7042 32.6877 15.0308 31.8263 15.0308 30.8838V28.3799H22.5426C23.6723 28.3957 23.6723 26.6937 22.5426 26.7106H14.1962C13.7352 26.7106 13.3616 27.0843 13.3615 27.5453V30.8838C13.3615 32.2855 12.2592 33.3878 10.8576 33.3878C9.45598 33.3878 8.35366 32.2855 8.35366 30.8838V14.1909C8.36009 13.7204 7.97651 13.3375 7.50597 13.3449ZM14.1945 13.3531C13.973 13.3531 13.7605 13.4411 13.6038 13.5978C13.4471 13.7544 13.3591 13.9669 13.3591 14.1885C13.3591 14.4101 13.4471 14.6226 13.6038 14.7793C13.7605 14.936 13.973 15.024 14.1945 15.024H17.5331C17.7547 15.024 17.9672 14.936 18.1239 14.7793C18.2806 14.6226 18.3686 14.4101 18.3686 14.1885C18.3686 13.9669 18.2806 13.7544 18.1239 13.5978C17.9672 13.4411 17.7547 13.3531 17.5331 13.3531H14.1945ZM14.1945 16.6933C13.9763 16.698 13.7686 16.788 13.6159 16.944C13.4632 17.1 13.3777 17.3096 13.3777 17.5279C13.3777 17.7462 13.4632 17.9558 13.6159 18.1118C13.7686 18.2678 13.9763 18.3578 14.1945 18.3626H18.371C18.4822 18.365 18.5926 18.3451 18.696 18.3043C18.7994 18.2634 18.8935 18.2023 18.973 18.1246C19.0524 18.0468 19.1155 17.954 19.1586 17.8515C19.2017 17.7491 19.2239 17.6391 19.2239 17.5279C19.2239 17.4168 19.2017 17.3067 19.1586 17.2043C19.1155 17.1018 19.0524 17.009 18.973 16.9313C18.8935 16.8535 18.7994 16.7924 18.696 16.7515C18.5926 16.7107 18.4822 16.6909 18.371 16.6933H14.1945ZM14.1945 20.0318C13.973 20.0318 13.7605 20.1199 13.6038 20.2766C13.4471 20.4332 13.3591 20.6457 13.3591 20.8673C13.3591 21.0889 13.4471 21.3014 13.6038 21.4581C13.7605 21.6147 13.973 21.7028 14.1945 21.7028H20.8733C21.0949 21.7028 21.3074 21.6147 21.4641 21.4581C21.6208 21.3014 21.7088 21.0889 21.7088 20.8673C21.7088 20.6457 21.6208 20.4332 21.4641 20.2766C21.3074 20.1199 21.0949 20.0318 20.8733 20.0318H14.1945Z" fill="#262036"/>
    <path fill-rule="evenodd" clip-rule="evenodd" d="M27.552 6.68091C23.4132 6.68091 20.0418 10.0523 20.0418 14.1911C20.0418 18.0462 22.9682 21.2333 26.7141 21.6524V23.5271C25.7481 23.8753 25.0431 24.7944 25.0431 25.8729V32.5517C25.0431 33.9244 26.1792 35.0605 27.552 35.0605C28.9247 35.0605 30.0526 33.9244 30.0526 32.5517V25.8729C30.0526 24.7926 29.3502 23.8723 28.3833 23.5254V21.654C32.1324 21.238 35.0622 18.0485 35.0621 14.1911C35.0621 10.0523 31.6907 6.68091 27.552 6.68091ZM27.552 8.3502C30.7886 8.3502 33.3928 10.9545 33.3929 14.1911C33.3929 17.4277 30.7886 20.032 27.552 20.032C24.3153 20.032 21.7111 17.4277 21.7111 14.1911C21.7111 10.9545 24.3153 8.3502 27.552 8.3502ZM27.552 25.0415C28.0288 25.0415 28.3833 25.396 28.3833 25.8729V32.5517C28.3833 33.0285 28.0288 33.3896 27.552 33.3896C27.0751 33.3896 26.7141 33.0285 26.7141 32.5517V25.8729C26.7141 25.396 27.0751 25.0415 27.552 25.0415Z" fill="#D2353B"/>
</svg>
