<svg width="112" height="80" viewBox="0 0 112 80" fill="none" xmlns="http://www.w3.org/2000/svg">
    <path fill-rule="evenodd" clip-rule="evenodd" d="M6.21691 0H58.1554C61.1831 0 63.6692 2.47385 63.6692 5.51385V27.3108V57.4523C63.6692 60.48 61.1954 62.9661 58.1554 62.9661H6.21691C3.17691 62.9661 0.703064 60.48 0.703064 57.4523V27.3108V5.51385C0.703064 2.47385 3.17691 0 6.21691 0Z" fill="white"/>
    <path fill-rule="evenodd" clip-rule="evenodd" d="M56.7769 1.67383H7.58306C4.71536 1.67383 2.36459 4.0246 2.36459 6.89229V56.0861C2.36459 58.9538 4.71536 61.3046 7.58306 61.3046H56.7769C59.6446 61.3046 61.9954 58.9538 61.9954 56.0861V6.87998C61.9954 4.01229 59.6446 1.67383 56.7769 1.67383Z" fill="#ED1C24"/>
    <path d="M69.4169 24.9232V16.8863H67.9523V24.9232H69.4169ZM68.6907 13.7232C68.5184 13.7232 68.3584 13.7601 68.223 13.8463C68.0877 13.9201 67.9769 14.0309 67.903 14.1786C67.8292 14.314 67.78 14.474 67.78 14.6463C67.78 14.8186 67.8169 14.9663 67.8907 15.1017C67.9646 15.237 68.063 15.3478 68.1984 15.4217C68.3338 15.5078 68.4815 15.5447 68.6538 15.5447C68.8507 15.5447 69.0107 15.5078 69.1584 15.4217C69.2938 15.3478 69.4046 15.237 69.4784 15.1017C69.5523 14.9663 69.5892 14.8186 69.5769 14.6463C69.5769 14.474 69.54 14.314 69.4661 14.1786C69.3923 14.0432 69.2938 13.9324 69.1584 13.8463C69.0354 13.7724 68.863 13.7355 68.6907 13.7232ZM74.02 24.9232H75.4846V14.9663H78.9061V13.7355H70.6107V14.9663H74.02V24.9232ZM79.3492 24.9232H80.7892V20.6401C80.7892 20.517 80.8015 20.394 80.8138 20.2832C80.8261 20.1724 80.8384 20.0617 80.863 19.9632C80.9246 19.594 81.0477 19.274 81.2323 18.9909C81.4046 18.7078 81.6384 18.4863 81.8969 18.3263C82.1677 18.1663 82.4754 18.0801 82.82 18.0801C82.9184 18.0801 83.0046 18.0801 83.0907 18.0924C83.1769 18.1047 83.2507 18.117 83.3246 18.1293V16.7509C83.263 16.7386 83.1892 16.7263 83.1277 16.714C83.0661 16.7017 82.9923 16.7017 82.9061 16.7017C82.5738 16.7017 82.2661 16.7755 81.983 16.9109C81.6877 17.0586 81.4292 17.2555 81.2077 17.5263C80.9861 17.7847 80.8138 18.0924 80.6907 18.4617H80.6169L80.5677 16.8863H79.2877C79.3123 17.2555 79.3246 17.6493 79.3369 18.0678C79.3492 18.474 79.3492 18.917 79.3492 19.397V24.9232ZM90.3277 19.9878C90.3277 19.5817 90.2907 19.1878 90.1923 18.794C90.1061 18.4001 89.9461 18.0555 89.7246 17.7355C89.503 17.4155 89.183 17.1693 88.7892 16.9847C88.3954 16.8001 87.8907 16.7017 87.2753 16.7017C86.9307 16.7017 86.6107 16.7263 86.2907 16.7878C85.9707 16.8493 85.6754 16.9355 85.3923 17.034C85.1092 17.1447 84.863 17.2678 84.6415 17.4155L84.9738 18.3755C85.1584 18.2524 85.3677 18.1417 85.6015 18.0555C85.823 17.9693 86.0692 17.8955 86.3154 17.8463C86.5615 17.797 86.8077 17.7724 87.0661 17.7724C87.4723 17.7724 87.7923 17.8463 88.0384 17.9693C88.2846 18.0924 88.4692 18.2524 88.5923 18.4493C88.7154 18.6463 88.8015 18.8432 88.8384 19.0647C88.8754 19.274 88.9 19.4586 88.8877 19.6309V19.7909C87.8538 19.7909 86.9677 19.9017 86.2538 20.1232C85.54 20.357 84.9861 20.6893 84.6169 21.1324C84.2477 21.5755 84.063 22.1293 84.0507 22.7693C84.0507 23.0647 84.1 23.3478 84.2107 23.6186C84.3092 23.8893 84.4692 24.1355 84.6784 24.357C84.8877 24.5786 85.1338 24.7509 85.4415 24.8863C85.7492 25.0093 86.1061 25.0832 86.5123 25.0832C86.8938 25.0832 87.2384 25.0217 87.5584 24.9109C87.8784 24.8001 88.1492 24.6524 88.383 24.4801C88.6169 24.2955 88.8138 24.0986 88.9615 23.8893H89.0107L89.1215 24.8986H90.4507C90.4015 24.6155 90.3646 24.3201 90.3523 23.9878C90.3277 23.6555 90.3277 23.3232 90.3277 22.9663V19.9878ZM88.9246 22.2155C88.9246 22.2893 88.9123 22.3632 88.9 22.4493C88.8877 22.5355 88.863 22.6093 88.8384 22.6832C88.7646 22.917 88.6415 23.1263 88.4692 23.3355C88.2969 23.5447 88.0754 23.7047 87.8169 23.8278C87.5584 23.9509 87.2507 24.0247 86.8938 24.0247C86.6477 24.0247 86.4138 23.9755 86.2046 23.877C85.9954 23.7786 85.8354 23.6186 85.7123 23.4217C85.5892 23.2124 85.5277 22.954 85.5154 22.634C85.5154 22.3263 85.5892 22.0555 85.7123 21.8463C85.8477 21.6247 86.02 21.4524 86.2538 21.317C86.4754 21.1817 86.7461 21.0709 87.0292 20.997C87.3246 20.9232 87.6323 20.874 87.9523 20.8493C88.2723 20.8247 88.5923 20.8124 88.9246 20.8247V22.2155ZM98.1677 13.1324V17.9324H98.1307C98.0077 17.7109 97.8354 17.514 97.6138 17.3293C97.3923 17.1447 97.1215 16.997 96.8015 16.874C96.4815 16.7632 96.1123 16.7017 95.7061 16.7017C95.2138 16.7017 94.7461 16.8001 94.3154 16.997C93.8846 17.194 93.4907 17.477 93.1584 17.8586C92.8261 18.2278 92.5677 18.6832 92.383 19.2124C92.1984 19.7417 92.1 20.3447 92.1 21.0093C92.1 21.6247 92.1861 22.1786 92.3584 22.6832C92.5307 23.1755 92.7769 23.6186 93.0846 23.9755C93.3923 24.3324 93.7492 24.6155 94.18 24.8001C94.5984 24.997 95.0538 25.0955 95.5338 25.0955C95.9769 25.0955 96.3707 25.0217 96.7277 24.8863C97.0846 24.7509 97.3923 24.5663 97.663 24.3324C97.9215 24.0986 98.1307 23.8278 98.2784 23.5201H98.3154L98.3769 24.9109H99.6938C99.6815 24.7263 99.6569 24.517 99.6569 24.2832C99.6446 24.0493 99.6446 23.8155 99.6323 23.5693C99.6323 23.3232 99.6323 23.077 99.6323 22.8309V13.1201H98.1677V13.1324ZM98.1677 21.5509C98.1677 21.6617 98.1677 21.7724 98.1554 21.8709C98.143 21.9817 98.1307 22.0801 98.1061 22.1786C98.0077 22.5478 97.86 22.8555 97.6507 23.114C97.4415 23.3724 97.1831 23.5693 96.9 23.717C96.6046 23.8524 96.2969 23.9263 95.9646 23.9263C95.5707 23.9263 95.2261 23.8524 94.9307 23.6924C94.6354 23.5324 94.3892 23.3232 94.1923 23.0524C93.9954 22.7817 93.8477 22.4617 93.7492 22.1047C93.6507 21.7478 93.6015 21.3663 93.6015 20.9478C93.6015 20.5047 93.6507 20.0863 93.7615 19.717C93.8723 19.3355 94.0323 19.0155 94.2292 18.7324C94.4384 18.4493 94.6969 18.2401 94.9923 18.0801C95.2877 17.9201 95.62 17.8463 96.0015 17.8463C96.3707 17.8463 96.6907 17.9324 96.9861 18.0801C97.2815 18.2278 97.5154 18.437 97.7123 18.6955C97.8969 18.954 98.0323 19.237 98.1061 19.5447C98.1307 19.6432 98.143 19.7417 98.1554 19.8524C98.1677 19.9632 98.1677 20.0617 98.1677 20.1601V21.5509ZM108.506 21.1693C108.518 21.0955 108.531 20.997 108.543 20.8863C108.555 20.7755 108.555 20.6401 108.555 20.4924C108.555 20.197 108.531 19.877 108.457 19.5324C108.395 19.1878 108.285 18.8555 108.137 18.5232C107.989 18.1909 107.78 17.8832 107.534 17.6124C107.275 17.3417 106.968 17.1201 106.586 16.9601C106.205 16.8001 105.749 16.714 105.232 16.714C104.642 16.714 104.125 16.8247 103.657 17.0463C103.189 17.2678 102.795 17.5755 102.475 17.9693C102.143 18.3632 101.897 18.8186 101.725 19.3478C101.552 19.877 101.466 20.4432 101.466 21.0463C101.466 21.6493 101.552 22.2032 101.737 22.7078C101.922 23.2124 102.18 23.6309 102.512 23.9878C102.857 24.3447 103.263 24.6278 103.755 24.8124C104.248 25.0093 104.789 25.1078 105.417 25.1078C105.835 25.1078 106.229 25.0709 106.562 25.0217C106.894 24.9724 107.189 24.9109 107.448 24.8247C107.706 24.7386 107.915 24.6647 108.088 24.5909L107.842 23.5447C107.657 23.6186 107.472 23.6924 107.251 23.754C107.042 23.8155 106.795 23.8647 106.537 23.9017C106.266 23.9386 105.958 23.9509 105.614 23.9509C105.245 23.9509 104.9 23.9017 104.568 23.7909C104.248 23.6801 103.952 23.5201 103.694 23.2986C103.435 23.077 103.238 22.7817 103.091 22.4247C102.943 22.0678 102.857 21.6493 102.845 21.157H108.506V21.1693ZM102.882 20.1232C102.906 19.8647 102.968 19.6063 103.066 19.3232C103.165 19.0524 103.312 18.794 103.485 18.5601C103.669 18.3263 103.891 18.1293 104.162 17.9817C104.432 17.834 104.752 17.7601 105.122 17.7478C105.442 17.7478 105.725 17.8093 105.971 17.9078C106.205 18.0063 106.402 18.1417 106.549 18.314C106.697 18.4863 106.82 18.6709 106.906 18.8801C106.992 19.0893 107.054 19.2986 107.091 19.5078C107.128 19.717 107.14 19.9263 107.14 20.1109H102.882V20.1232Z" fill="black"/>
    <path d="M67.78 55.5078H72.9861V46.3509H74.5738C75.2754 46.3509 75.8784 46.4616 76.3584 46.6832C76.8384 46.9047 77.2323 47.2862 77.5523 47.8278C77.8723 48.3693 78.1307 49.1201 78.3277 50.0801C78.6723 51.5201 78.98 52.7016 79.2507 53.6124C79.5215 54.5355 79.7554 55.1632 79.94 55.5078H85.3184C85.2077 55.2739 85.0723 54.9293 84.9369 54.4739C84.7892 54.0185 84.6415 53.4893 84.4815 52.8739C84.3092 52.2709 84.1492 51.6185 83.9769 50.9416C83.8046 50.2647 83.62 49.6001 83.4354 48.9355C83.1523 47.8524 82.7584 46.9416 82.2784 46.2032C81.7861 45.4647 81.1461 44.9232 80.3338 44.5909V44.4924C80.8384 44.3078 81.3307 44.0493 81.8107 43.717C82.303 43.3724 82.7338 42.9662 83.1277 42.4862C83.5215 42.0062 83.8292 41.4524 84.063 40.837C84.2969 40.2216 84.42 39.5447 84.42 38.8062C84.42 37.7478 84.2354 36.8124 83.8661 36.0001C83.5092 35.1878 82.98 34.5109 82.2784 33.957C81.4538 33.3047 80.4323 32.837 79.2015 32.5539C77.9707 32.2709 76.4938 32.1232 74.7707 32.1355C73.8354 32.1355 72.9492 32.1601 72.1 32.197C71.2384 32.2339 70.4507 32.2955 69.7246 32.3693C68.9984 32.4432 68.3584 32.5293 67.78 32.6155V55.5078ZM72.9738 36.1847C73.1584 36.1478 73.4415 36.1109 73.823 36.0739C74.2046 36.037 74.7215 36.0124 75.3492 36.0124C76.1615 36.0247 76.8507 36.1478 77.4169 36.3939C77.9954 36.6401 78.4261 36.997 78.7338 37.4647C79.0415 37.9447 79.2015 38.5355 79.2015 39.237C79.2015 39.9139 79.0415 40.5047 78.6969 40.997C78.3646 41.4893 77.8969 41.8709 77.2692 42.1416C76.6538 42.4124 75.903 42.5478 75.0292 42.5601H72.9615V36.1847H72.9738ZM106.758 45.0462L97.3923 54.3878L90.4015 47.397L97.4907 40.3078L98.82 41.6124L93.1215 47.2986L97.3923 51.5939L105.897 43.1016H108.826C108.137 37.4032 103.288 32.997 97.4046 32.997C91.2384 32.997 86.2046 37.8586 85.9092 43.9509H88.0507L88.4938 43.5201L97.3923 34.6216L103.743 40.9724L104.383 41.6124L97.2938 48.7016L95.9892 47.4093L101.675 41.7109L97.38 37.4155L88.9 45.8955H85.9707C86.6477 51.5939 91.5092 56.0124 97.3923 56.0124C103.571 56.0124 108.605 51.1509 108.888 45.0586H106.758V45.0462Z" fill="#ED1C24"/>
    <path d="M56.6784 32.5047C56.6784 33.6247 56.2846 34.8677 55.4846 36.2216C53.2446 39.9139 49.22 41.76 43.4108 41.76H42.4261C41.86 41.76 41.5154 41.7354 41.3677 41.6862V55.7908H31.5461V21.637C31.5461 18.9293 33.06 16.8247 36.1123 15.3231C38.4015 14.2031 41.1215 13.637 44.2477 13.637C47.2385 13.637 49.9092 14.2031 52.2477 15.3231C55.1892 16.8247 56.6661 18.9293 56.6661 21.637V32.5047H56.6784ZM47.4231 23.8031C47.4231 20.3939 46.3646 18.6831 44.26 18.6831C42.34 18.6831 41.38 19.4954 41.38 21.1447V36.7262H41.5154H41.6508C45.4908 36.7262 47.3984 35.5077 47.3984 33.0831V23.8031H47.4231Z" fill="white"/>
    <path d="M10.5492 64.9724C10.66 65.2924 10.7338 65.6616 10.7338 66.0678C10.7338 66.7816 10.4138 67.2739 9.76152 67.3108L9.60152 67.3232V72.2708C9.60152 75.2862 8.41998 76.517 6.83229 76.517C5.33075 76.517 4.21075 75.3724 4.21075 72.3201V66.5478H5.17075V72.357C5.17075 74.5601 5.89691 75.4832 6.86922 75.4832C7.95229 75.4832 8.65383 74.5232 8.65383 72.357V66.5478H9.51537C9.8846 66.5478 10.02 66.3755 10.02 65.9939C10.02 65.7231 9.95845 65.4155 9.84768 65.1447L10.5492 64.9724ZM8.51845 64.3201L7.13999 66.0185H6.3646L7.37383 64.3201H8.51845Z" fill="black"/>
    <path d="M11.5338 71.2125C11.5338 70.4863 11.5215 69.8832 11.4846 69.3048H12.3338L12.383 70.474H12.4077C12.6661 69.8094 13.2815 69.1448 14.143 69.1448C14.8692 69.1448 16.0015 69.7232 16.0015 72.1478V76.3571H15.0415V72.2955C15.0415 71.1632 14.7215 70.2155 13.823 70.2155C13.1954 70.2155 12.703 70.8063 12.543 71.5202C12.4938 71.6802 12.4815 71.9017 12.4815 72.1109V76.3448H11.5338V71.2125Z" fill="black"/>
    <path d="M22.0938 69.317C22.0692 69.8216 22.0446 70.4001 22.0446 71.2493V75.3354C22.0446 76.9477 21.8107 77.9447 21.2938 78.5477C20.7892 79.1877 20.0507 79.397 19.3861 79.397C18.7584 79.397 18.0569 79.1877 17.6384 78.8185L17.8723 77.8462C18.2169 78.1416 18.7584 78.4001 19.4107 78.4001C20.3831 78.4001 21.1092 77.7108 21.1092 75.9385V75.1508H21.0846C20.7892 75.8031 20.2231 76.3324 19.4107 76.3324C18.1061 76.3324 17.1707 74.8431 17.1707 72.8985C17.1707 70.5108 18.3277 69.157 19.5338 69.157C20.4446 69.157 20.9492 69.797 21.1707 70.3754H21.1954L21.2446 69.317H22.0938ZM21.0969 72.0862C21.0969 71.8647 21.0846 71.6801 21.0477 71.5078C20.8754 70.7693 20.4077 70.1539 19.7184 70.1539C18.8077 70.1539 18.1554 71.1878 18.1554 72.8124C18.1554 74.1908 18.6723 75.3478 19.7061 75.3478C20.2969 75.3478 20.8261 74.8554 21.0354 74.0431C21.0846 73.8216 21.1092 73.5754 21.1092 73.3539V72.0862H21.0969Z" fill="black"/>
    <path d="M30.4754 66.0186V74.5355C30.4754 75.1632 30.4877 75.877 30.5246 76.357H29.6631L29.6138 75.1386H29.5892C29.2938 75.9262 28.6538 76.517 27.7923 76.517C26.5246 76.517 25.54 75.077 25.54 72.9355C25.5277 70.597 26.6108 69.157 27.8908 69.157C28.6908 69.157 29.2323 69.6616 29.4785 70.2401H29.5031V66.0309H30.4754V66.0186ZM29.5154 72.1724C29.5154 72.0124 29.5031 71.7909 29.4661 71.6309C29.3308 70.8309 28.8138 70.1539 28.1 70.1539C27.1154 70.1539 26.5246 71.3232 26.5246 72.8739C26.5246 74.3016 27.0415 75.4832 28.0754 75.4832C28.7154 75.4832 29.3061 74.917 29.4785 73.957C29.5154 73.7847 29.5277 73.6124 29.5277 73.4032V72.1724H29.5154Z" fill="black"/>
    <path d="M36.4569 74.437C36.4569 75.1632 36.4692 75.8032 36.5061 76.357H35.6569L35.6077 75.2124H35.5831C35.3369 75.7785 34.7831 76.517 33.8477 76.517C33.0231 76.517 32.0385 75.9016 32.0385 73.4278V69.3047H32.9985V73.2062C32.9985 74.5478 33.3061 75.4462 34.1677 75.4462C34.8077 75.4462 35.2508 74.8555 35.4231 74.277C35.4723 74.0924 35.5092 73.8585 35.5092 73.6247V69.3047H36.4692V74.437H36.4569ZM34.7954 78.2647C34.7954 78.6708 34.5738 79.0155 34.2415 79.0155C33.9338 79.0155 33.7123 78.6708 33.7123 78.2647C33.7123 77.8585 33.9461 77.5262 34.2661 77.5262C34.5738 77.5262 34.7954 77.8585 34.7954 78.2647Z" fill="black"/>
    <path d="M38.0446 71.2125C38.0446 70.4863 38.0323 69.8832 37.9954 69.3048H38.8569L38.9061 70.474H38.9307C39.1892 69.8094 39.8046 69.1448 40.6661 69.1448C41.3923 69.1448 42.5246 69.7232 42.5246 72.1478V76.3571H41.5646V72.2955C41.5646 71.1632 41.2446 70.2155 40.3461 70.2155C39.7184 70.2155 39.2261 70.8063 39.0661 71.5202C39.0169 71.6802 39.0046 71.9017 39.0046 72.1109V76.3448H38.0446V71.2125Z" fill="black"/>
    <path d="M48.6046 69.317C48.58 69.8216 48.5554 70.4001 48.5554 71.2493V75.3354C48.5554 76.9477 48.3215 77.9447 47.8046 78.5477C47.3 79.1877 46.5615 79.397 45.8969 79.397C45.2692 79.397 44.5677 79.1877 44.1492 78.8185L44.3831 77.8462C44.7277 78.1416 45.2692 78.4001 45.9215 78.4001C46.8938 78.4001 47.62 77.7108 47.62 75.9385V75.1508H47.5954C47.3 75.8031 46.7338 76.3324 45.9215 76.3324C44.6169 76.3324 43.6815 74.8431 43.6815 72.8985C43.6815 70.5108 44.8384 69.157 46.0446 69.157C46.9554 69.157 47.46 69.797 47.6815 70.3754H47.7061L47.7554 69.317H48.6046ZM47.62 72.0862C47.62 71.8647 47.6077 71.6801 47.5708 71.5078C47.3984 70.7693 46.9308 70.1539 46.2415 70.1539C45.3308 70.1539 44.6784 71.1878 44.6784 72.8124C44.6784 74.1908 45.1954 75.3478 46.2292 75.3478C46.82 75.3478 47.3492 74.8554 47.5584 74.0431C47.6077 73.8216 47.6323 73.5754 47.6323 73.3539V72.0862H47.62Z" fill="black"/>
    <path d="M53.6015 67.2861V69.3046H54.9677V70.2769H53.6015V74.08C53.6015 74.9538 53.7861 75.4461 54.3154 75.4461C54.5615 75.4461 54.7461 75.3969 54.8692 75.36L54.9184 76.32C54.7338 76.4184 54.4384 76.4923 54.0692 76.4923C53.6261 76.4923 53.2692 76.3077 53.0354 75.9508C52.7646 75.5692 52.6661 74.9415 52.6661 74.1169V70.2769H51.8538V69.3046H52.6661V67.6184L53.6015 67.2861Z" fill="black"/>
    <path d="M56.0508 71.5078C56.0508 70.6832 56.0384 69.9694 56.0015 69.3048H56.8385L56.8754 70.6832H56.9246C57.1585 69.7355 57.7369 69.1448 58.3769 69.1448C58.4877 69.1448 58.5615 69.1571 58.6477 69.194V70.4002C58.5492 70.3755 58.4508 70.3509 58.3277 70.3509C57.6508 70.3509 57.1708 71.0402 57.0477 72.0002C57.0231 72.1725 56.9985 72.3817 56.9985 72.5909V76.3448H56.0508V71.5078Z" fill="black"/>
    <path d="M60.0261 73.0708C60.0508 74.8062 60.8754 75.52 61.8231 75.52C62.5123 75.52 62.9184 75.36 63.2754 75.1508L63.4354 76.0739C63.1031 76.2831 62.5246 76.5047 61.6877 76.5047C60.0754 76.5047 59.1031 75.077 59.1031 72.9477C59.1031 70.8185 60.0384 69.1447 61.5646 69.1447C63.2754 69.1447 63.7307 71.1631 63.7307 72.4677C63.7307 72.7262 63.7061 72.9354 63.6938 73.0585H60.0261V73.0708ZM62.82 72.1477C62.8323 71.3354 62.5738 70.0677 61.4907 70.0677C60.5307 70.0677 60.1 71.2616 60.0261 72.1477H62.82ZM61.8723 66.2646L62.9184 68.3446H62.1923L61.5646 66.9662H61.54L60.9123 68.3446H60.1984L61.2323 66.2646H61.8723Z" fill="black"/>
    <path d="M64.9369 71.2125C64.9369 70.4863 64.9246 69.8832 64.8877 69.3048H65.7369L65.7862 70.474H65.8108C66.0692 69.8094 66.6846 69.1448 67.5462 69.1448C68.2723 69.1448 69.4046 69.7232 69.4046 72.1478V76.3571H68.4446V72.2955C68.4446 71.1632 68.1246 70.2155 67.2262 70.2155C66.5985 70.2155 66.1062 70.8063 65.9462 71.5202C65.8969 71.6802 65.8846 71.9017 65.8846 72.1109V76.3448H64.9246V71.2125H64.9369Z" fill="black"/>
    <path d="M73.2692 71.2125C73.2692 70.4863 73.2569 69.8832 73.22 69.3048H74.0569L74.1061 70.4371H74.143C74.4384 69.7725 74.9184 69.1448 75.7923 69.1448C76.5061 69.1448 77.0477 69.7232 77.2815 70.5602H77.3061C77.4661 70.1663 77.6754 69.8586 77.8969 69.6371C78.2169 69.3171 78.5615 69.1448 79.0538 69.1448C79.7431 69.1448 80.7769 69.7602 80.7769 72.1971V76.3448H79.8415V72.3694C79.8415 71.0155 79.4723 70.2032 78.6969 70.2032C78.1554 70.2032 77.7246 70.7448 77.5646 71.3725C77.5154 71.5448 77.4907 71.7786 77.4907 72.0125V76.3694H76.5554V72.1478C76.5554 71.0278 76.1861 70.2155 75.46 70.2155C74.8692 70.2155 74.4261 70.8555 74.2784 71.4955C74.2292 71.6802 74.2046 71.9017 74.2046 72.1232V76.3694H73.2692V71.2125Z" fill="black"/>
    <path d="M85.2323 76.357L85.1585 75.4708H85.1215C84.8261 76.0247 84.26 76.517 83.5092 76.517C82.4508 76.517 81.8969 75.5077 81.8969 74.4985C81.8969 72.8 83.0292 71.8647 85.06 71.877V71.7293C85.06 71.1508 84.9369 70.1046 83.8661 70.1046C83.3738 70.1046 82.8692 70.3139 82.5 70.6339L82.2784 69.7847C82.7092 69.4031 83.3369 69.157 84.0015 69.157C85.6138 69.157 85.9954 70.6216 85.9954 72.037V74.6708C85.9954 75.2862 86.02 75.877 86.0815 76.357H85.2323ZM85.0969 72.7631C84.0508 72.7385 82.8692 72.9847 82.8692 74.3508C82.8692 75.1754 83.2754 75.5693 83.7677 75.5693C84.4569 75.5693 84.8877 74.9908 85.0354 74.3877C85.0723 74.2523 85.0846 74.117 85.0846 73.9816V72.7631H85.0969ZM85.5646 66.2646L84.2354 68.3446H83.5461L84.5061 66.2646H85.5646Z" fill="black"/>
    <path d="M87.8169 69.317L88.9615 73.477C89.0846 73.9447 89.2077 74.4985 89.2938 74.917H89.3185C89.4169 74.4985 89.5277 73.957 89.6508 73.4524L90.6969 69.317H91.7062L90.2785 74.3385C89.5892 76.7508 89.1215 77.9939 88.4815 78.7447C88.0138 79.2985 87.5462 79.5201 87.3123 79.5693L87.0785 78.4862C87.3123 78.3878 87.6323 78.1785 87.9154 77.8585C88.1738 77.5878 88.5062 77.0832 88.7154 76.4308C88.7646 76.2955 88.7892 76.197 88.7892 76.1232C88.7892 76.0493 88.7646 75.9508 88.7277 75.7908L86.7831 69.3047H87.8169V69.317Z" fill="black"/>
    <path d="M96.0384 67.2861V69.3046H97.4046V70.2769H96.0384V74.08C96.0384 74.9538 96.223 75.4461 96.7523 75.4461C96.9984 75.4461 97.183 75.3969 97.3061 75.36L97.3554 76.32C97.1707 76.4184 96.8754 76.4923 96.5061 76.4923C96.063 76.4923 95.7061 76.3077 95.4723 75.9508C95.2015 75.5692 95.103 74.9415 95.103 74.1169V70.2769H94.2907V69.3046H95.103V67.6184L96.0384 67.2861Z" fill="black"/>
    <path d="M100.432 66.2646L99.1031 68.3446H98.4261L99.3861 66.2646H100.432ZM98.4877 76.357V69.317H99.4477V76.357H98.4877Z" fill="black"/>
    <path d="M101.035 71.2125C101.035 70.4863 101.023 69.8832 100.986 69.3048H101.835L101.885 70.474H101.909C102.168 69.8094 102.783 69.1448 103.645 69.1448C104.371 69.1448 105.503 69.7232 105.503 72.1478V76.3571H104.543V72.2955C104.543 71.1632 104.223 70.2155 103.325 70.2155C102.697 70.2155 102.205 70.8063 102.045 71.5202C101.995 71.6802 101.983 71.9017 101.983 72.1109V76.3448H101.023V71.2125H101.035Z" fill="black"/>
    <path d="M107.054 66.0186H108.014V70.4124H108.038C108.186 70.0432 108.432 69.7232 108.728 69.5139C109.011 69.2924 109.343 69.1447 109.7 69.1447C110.402 69.1447 111.534 69.7232 111.534 72.1601V76.357H110.574V72.3078C110.574 71.1755 110.254 70.2155 109.355 70.2155C108.74 70.2155 108.248 70.7939 108.075 71.4955C108.026 71.6678 108.014 71.8647 108.014 72.1109V76.357H107.054V66.0186Z" fill="black"/>
</svg>
