<svg width="155" height="80" viewBox="0 0 155 80" fill="none" xmlns="http://www.w3.org/2000/svg">
    <path fill-rule="evenodd" clip-rule="evenodd" d="M5.60417 0H57.9371C60.9878 0 63.4929 2.49264 63.4929 5.55573V27.5182V57.8887C63.4929 60.9394 60.9878 63.4444 57.9371 63.4444H5.60417C2.54108 63.4444 0.048439 60.9394 0.048439 57.8887V27.5182V5.55573C0.048439 2.49264 2.54108 0 5.60417 0Z" fill="white"/>
    <path fill-rule="evenodd" clip-rule="evenodd" d="M56.5482 1.68652H6.9807C4.09122 1.68652 1.7226 4.05515 1.7226 6.94462V56.5121C1.7226 59.4016 4.09122 61.7702 6.9807 61.7702H56.5482C59.4377 61.7702 61.8063 59.4016 61.8063 56.5121V6.93222C61.8063 4.04275 59.4377 1.68652 56.5482 1.68652Z" fill="#ED1C24"/>
    <path d="M94.0618 55.2596C94.6446 55.3464 95.4135 55.4208 96.356 55.4952C97.2985 55.5572 98.4146 55.5944 99.6919 55.6068C101.205 55.6068 102.544 55.52 103.697 55.3588C104.838 55.1976 105.83 54.962 106.661 54.6519C107.48 54.3419 108.174 53.9575 108.732 53.5234C109.216 53.139 109.625 52.6926 109.985 52.2089C110.345 51.7253 110.617 51.1796 110.816 50.5844C111.014 49.9891 111.113 49.3442 111.113 48.6498C111.113 47.6577 110.903 46.7896 110.506 46.0207C110.109 45.2643 109.576 44.6194 108.894 44.1109C108.212 43.6025 107.418 43.2181 106.537 42.9824V42.9204C107.405 42.598 108.112 42.1764 108.67 41.6803C109.228 41.1719 109.65 40.6138 109.923 39.9814C110.183 39.3489 110.332 38.6916 110.332 38.0096C110.332 37.3151 110.208 36.6826 109.972 36.0998C109.737 35.5293 109.414 35.0209 108.993 34.5868C108.584 34.1528 108.112 33.7808 107.567 33.4955C107.009 33.1607 106.413 32.9127 105.768 32.7143C105.124 32.5282 104.392 32.3918 103.573 32.3174C102.755 32.243 101.825 32.2058 100.771 32.2058C100.114 32.2058 99.4687 32.2182 98.8238 32.243C98.179 32.2678 97.5465 32.305 96.9512 32.3422C96.356 32.3794 95.8103 32.429 95.3143 32.491C94.8182 32.553 94.3966 32.6151 94.0494 32.6771V55.2596H94.0618ZM99.9771 36.1246C100.188 36.0874 100.473 36.0626 100.833 36.0254C101.18 36.0006 101.639 35.9882 102.197 35.9882C103.375 35.9882 104.293 36.2114 104.925 36.6702C105.558 37.1167 105.88 37.7863 105.88 38.6544C105.88 39.2249 105.719 39.7209 105.396 40.1426C105.074 40.5642 104.603 40.8866 103.983 41.1347C103.363 41.3703 102.594 41.4819 101.676 41.4819H99.9771V36.1246ZM99.9771 45.2022H101.751C102.408 45.2022 103.015 45.2643 103.573 45.3883C104.132 45.5123 104.628 45.6983 105.062 45.9587C105.496 46.2191 105.83 46.554 106.066 46.9632C106.302 47.3725 106.426 47.8685 106.426 48.4514C106.413 49.0466 106.302 49.5551 106.066 49.9767C105.83 50.3983 105.508 50.7332 105.099 51.006C104.69 51.2664 104.218 51.4648 103.685 51.5765C103.152 51.7005 102.594 51.7625 101.999 51.7625C101.564 51.7625 101.18 51.7625 100.845 51.7501C100.523 51.7377 100.238 51.7253 99.9771 51.6881V45.2022ZM112.936 32.3794V55.3712H118.157V32.3794H112.936ZM120.216 55.3712H134.576V51.006H125.437V32.3794H120.216V55.3712ZM150.103 41.4199H141.645V36.6454H150.611V32.3794H136.424V55.3712H151.095V51.1052H141.645V45.6487H150.103V41.4199ZM89.5229 45.103L79.4904 55.1108L72.0001 47.6205L79.5896 40.031L81.0157 41.4199L74.9143 47.5213L79.478 52.1221L88.5805 43.032H91.7179C90.9739 36.9307 85.7902 32.2058 79.4904 32.2058C72.8806 32.2058 67.4984 37.4019 67.1884 43.9249H69.495L69.9663 43.4537L79.5028 33.9172L86.2986 40.7254L86.9807 41.4075L79.3912 48.997L78.0022 47.6081L84.0912 41.5067L79.4904 36.9059L70.4127 45.9835H67.2752C68.0069 52.0849 73.203 56.8222 79.5028 56.8222C86.1126 56.8222 91.5071 51.6137 91.8048 45.0906H89.5229V45.103Z" fill="#ED1C24"/>
    <path d="M56.7466 56.4999H46.8505V22.0618C46.8505 20.3132 45.8584 19.4451 43.8742 19.4451C41.9892 19.4451 41.0467 20.3876 41.0467 22.2726V56.4875H31.1506V21.7146C31.1506 21.0573 30.8406 20.5116 30.2329 20.09C29.6253 19.6684 28.9804 19.4575 28.3231 19.4575C26.3885 19.4575 25.4213 20.3256 25.4213 22.0742V56.4999H15.5251V22.285C15.5251 19.594 17.0133 17.4734 19.9895 15.9232C22.3954 14.6459 25.0864 14.0134 28.0627 14.0134C31.3738 14.0134 34.0649 14.7947 36.1359 16.3448C38.3061 14.7947 41.0715 14.0134 44.4199 14.0134C47.3465 14.0134 50.0128 14.6459 52.4186 15.9232C55.2957 17.4734 56.7342 19.594 56.7342 22.285V56.4999H56.7466Z" fill="white"/>
    <path d="M69.9167 16.5185H67.1388V14.5591H75.088V16.5185H72.2605V24.9017H69.9167V16.5185Z" fill="#221F1F"/>
    <path d="M79.292 24.9016L75.9685 14.5466H78.5355L79.8004 18.9242C80.1476 20.1519 80.4701 21.33 80.7181 22.6197H80.7677C81.0281 21.3796 81.3506 20.1519 81.6978 18.9614L83.0123 14.5342H85.505L82.0202 24.8892H79.292V24.9016Z" fill="#221F1F"/>
    <path d="M86.6583 22.4957C87.2907 22.8182 88.258 23.1406 89.2501 23.1406C90.329 23.1406 90.8871 22.6941 90.8871 22.0245C90.8871 21.3796 90.391 21.0076 89.1509 20.5735C87.4271 19.9783 86.311 19.0234 86.311 17.5229C86.311 15.7619 87.7868 14.4102 90.2298 14.4102C91.3955 14.4102 92.2512 14.6582 92.8713 14.931L92.3504 16.816C91.9412 16.6176 91.1971 16.3199 90.1802 16.3199C89.1633 16.3199 88.6797 16.7788 88.6797 17.312C88.6797 17.9693 89.2625 18.2669 90.6018 18.7754C92.4248 19.445 93.2929 20.3999 93.2929 21.8633C93.2929 23.5994 91.9536 25.0752 89.1137 25.0752C87.9356 25.0752 86.7699 24.7651 86.1746 24.4427L86.6583 22.4957Z" fill="#221F1F"/>
    <path d="M97.2985 14.5591V24.9141H94.9423V14.5591H97.2985Z" fill="#221F1F"/>
    <path d="M12.1148 65.4659C12.2636 65.7883 12.3628 66.1603 12.3628 66.5696C12.3628 67.2888 11.9288 67.7849 11.0483 67.8221L10.8251 67.8345V72.8198C10.8251 75.858 9.22531 77.0982 7.07991 77.0982C5.05851 77.0982 3.53317 75.9448 3.53317 72.8694V67.0532H4.82289V72.9066C4.82289 75.1264 5.80258 76.0565 7.12951 76.0565C8.59285 76.0565 9.53534 75.0892 9.53534 72.9066V67.0532H10.6886C11.1847 67.0532 11.3583 66.8796 11.3583 66.4952C11.3583 66.2223 11.2715 65.9123 11.1227 65.6395L12.1148 65.4659ZM9.36172 64.8086L7.50155 66.52H6.44745L7.81158 64.8086H9.36172Z" fill="black"/>
    <path d="M13.3549 71.7658C13.3549 71.0341 13.3425 70.4264 13.2929 69.8436H14.4338L14.5082 71.0217H14.533C14.8802 70.352 15.7111 69.6824 16.8768 69.6824C17.8565 69.6824 19.3819 70.2652 19.3819 72.7083V76.9495H18.0922V72.8571C18.0922 71.7162 17.6705 70.7613 16.4552 70.7613C15.5995 70.7613 14.9423 71.3565 14.719 72.0758C14.657 72.237 14.6322 72.4602 14.6322 72.6711V76.9371H13.3425V71.7658H13.3549Z" fill="black"/>
    <path d="M27.5419 69.8436C27.5171 70.352 27.4798 70.9349 27.4798 71.7906V75.9078C27.4798 77.5323 27.1574 78.5368 26.4629 79.1445C25.7685 79.7893 24.7764 80.0002 23.8835 80.0002C23.0278 80.0002 22.0977 79.7893 21.5273 79.4173L21.8497 78.4376C22.321 78.7352 23.0526 78.9957 23.9331 78.9957C25.2476 78.9957 26.2149 78.3012 26.2149 76.5154V75.7217H26.1901C25.7933 76.379 25.0368 76.9123 23.9331 76.9123C22.1721 76.9123 20.9072 75.4117 20.9072 73.4523C20.9072 71.0465 22.4822 69.6824 24.1067 69.6824C25.3344 69.6824 26.0165 70.3272 26.3265 70.9101H26.3513L26.4133 69.8436H27.5419ZM26.2025 72.6463C26.2025 72.423 26.1901 72.237 26.1281 72.0634C25.8925 71.3193 25.26 70.6993 24.3299 70.6993C23.1022 70.6993 22.2217 71.741 22.2217 73.3779C22.2217 74.7669 22.9286 75.9326 24.3175 75.9326C25.1112 75.9326 25.8305 75.4365 26.1033 74.618C26.1777 74.3948 26.2025 74.1468 26.2025 73.9236V72.6463Z" fill="black"/>
    <path d="M38.7153 66.52V75.1016C38.7153 75.7341 38.7277 76.4534 38.7773 76.937H37.624L37.562 75.7093H37.5372C37.1404 76.503 36.2723 77.0982 35.119 77.0982C33.4076 77.0982 32.0807 75.6473 32.0807 73.4895C32.0683 71.1333 33.5316 69.6823 35.2678 69.6823C36.3591 69.6823 37.0907 70.1908 37.4132 70.7736H37.438V66.5324H38.7153V66.52ZM37.4256 72.733C37.4256 72.5718 37.4132 72.3486 37.3636 72.1874C37.1776 71.3689 36.4707 70.6868 35.5034 70.6868C34.1641 70.6868 33.3828 71.8649 33.3828 73.4275C33.3828 74.866 34.0897 76.0565 35.4786 76.0565C36.3467 76.0565 37.1404 75.4861 37.376 74.5188C37.4256 74.3452 37.438 74.1716 37.438 73.9607V72.733H37.4256Z" fill="black"/>
    <path d="M46.7265 75.0023C46.7265 75.734 46.7389 76.3789 46.7885 76.9369H45.6476L45.5732 75.7836H45.5484C45.2135 76.3541 44.4571 77.0981 43.2045 77.0981C42.0884 77.0981 40.7491 76.4781 40.7491 73.9855V69.8311H42.0388V73.7622C42.0388 75.114 42.4481 76.0192 43.6262 76.0192C44.4943 76.0192 45.0895 75.424 45.3251 74.8411C45.3995 74.6551 45.4367 74.4195 45.4367 74.1839V69.8311H46.7265V75.0023ZM44.4819 78.8591C44.4819 79.2684 44.1842 79.6156 43.7378 79.6156C43.3285 79.6156 43.0185 79.2684 43.0185 78.8591C43.0185 78.4499 43.3409 78.115 43.7626 78.115C44.1718 78.115 44.4819 78.4499 44.4819 78.8591Z" fill="black"/>
    <path d="M48.7975 71.7658C48.7975 71.0341 48.7851 70.4264 48.7355 69.8436H49.8764L49.9508 71.0217H49.9756C50.3228 70.352 51.1537 69.6824 52.3194 69.6824C53.2991 69.6824 54.8244 70.2652 54.8244 72.7083V76.9495H53.5347V72.8571C53.5347 71.7162 53.1131 70.7613 51.8978 70.7613C51.0421 70.7613 50.3848 71.3565 50.1616 72.0758C50.0996 72.237 50.0748 72.4602 50.0748 72.6711V76.9371H48.7851V71.7658H48.7975Z" fill="black"/>
    <path d="M62.972 69.8436C62.9472 70.352 62.91 70.9349 62.91 71.7906V75.9078C62.91 77.5323 62.5876 78.5368 61.8931 79.1445C61.1987 79.7893 60.2066 80.0002 59.3137 80.0002C58.458 80.0002 57.5279 79.7893 56.9574 79.4173L57.2799 78.4376C57.7511 78.7352 58.4828 78.9957 59.3633 78.9957C60.6778 78.9957 61.6575 78.3012 61.6575 76.5154V75.7217H61.6327C61.2359 76.379 60.4794 76.9123 59.3757 76.9123C57.6147 76.9123 56.3498 75.4117 56.3498 73.4523C56.3498 71.0465 57.9247 69.6824 59.5493 69.6824C60.777 69.6824 61.4591 70.3272 61.7691 70.9101H61.7939L61.8559 69.8436H62.972ZM61.6451 72.6463C61.6451 72.423 61.6327 72.237 61.5707 72.0634C61.3351 71.3193 60.7026 70.6993 59.7725 70.6993C58.5448 70.6993 57.6643 71.741 57.6643 73.3779C57.6643 74.7669 58.3712 75.9326 59.7601 75.9326C60.5538 75.9326 61.2731 75.4365 61.5459 74.618C61.6203 74.3948 61.6451 74.1468 61.6451 73.9236V72.6463Z" fill="black"/>
    <path d="M69.5818 67.7974V69.8312H71.4296V70.8108H69.5818V74.6428C69.5818 75.5233 69.8299 76.0193 70.5491 76.0193C70.884 76.0193 71.132 75.9697 71.2932 75.9325L71.3552 76.8998C71.1072 76.999 70.7104 77.0734 70.2143 77.0734C69.6191 77.0734 69.123 76.8874 68.8254 76.5278C68.4533 76.1434 68.3293 75.5109 68.3293 74.68V70.8108H67.2256V69.8312H68.3293V68.1322L69.5818 67.7974Z" fill="black"/>
    <path d="M72.8061 72.0509C72.8061 71.2201 72.7937 70.5008 72.7441 69.8311H73.8726L73.9223 71.2201H73.9843C74.3067 70.2652 75.088 69.6699 75.9436 69.6699C76.0925 69.6699 76.1917 69.6823 76.3157 69.7195V70.9348C76.1793 70.91 76.0553 70.8852 75.8816 70.8852C74.9764 70.8852 74.3315 71.5797 74.1455 72.547C74.1207 72.7206 74.0835 72.9314 74.0835 73.1423V76.9246H72.8061V72.0509Z" fill="black"/>
    <path d="M78.1014 73.6259C78.1263 75.3745 79.2424 76.0938 80.5321 76.0938C81.4622 76.0938 82.0078 75.9325 82.4915 75.7217L82.7147 76.6518C82.2559 76.8626 81.487 77.0858 80.3585 77.0858C78.1759 77.0858 76.8737 75.6473 76.8737 73.5019C76.8737 71.3565 78.1386 69.6699 80.1972 69.6699C82.5163 69.6699 83.1363 71.7037 83.1363 73.0183C83.1363 73.2787 83.1115 73.4895 83.0867 73.6135H78.1014V73.6259ZM81.8838 72.6958C81.8962 71.8774 81.549 70.6 80.098 70.6C78.7959 70.6 78.2255 71.8029 78.1139 72.6958H81.8838ZM80.5941 66.7681L82.0078 68.8639H81.0281L80.1724 67.4749H80.1476L79.292 68.8639H78.3247L79.7136 66.7681H80.5941Z" fill="black"/>
    <path d="M84.6493 71.7658C84.6493 71.0341 84.6369 70.4264 84.5873 69.8436H85.7282L85.8026 71.0217H85.8274C86.1746 70.352 87.0055 69.6824 88.1712 69.6824C89.1509 69.6824 90.6763 70.2652 90.6763 72.7083V76.9495H89.3865V72.8571C89.3865 71.7162 88.9649 70.7613 87.7496 70.7613C86.8939 70.7613 86.2366 71.3565 86.0134 72.0758C85.9514 72.237 85.9266 72.4602 85.9266 72.6711V76.9371H84.6369V71.7658H84.6493Z" fill="black"/>
    <path d="M101.887 68.8391V75.1017C101.887 75.7341 101.899 76.4534 101.949 76.9371H100.796L100.734 75.7093H100.709C100.312 76.503 99.4439 77.0983 98.2906 77.0983C96.5792 77.0983 95.2523 75.6473 95.2523 73.4895C95.2399 71.1333 96.7032 69.6824 98.4394 69.6824C99.5307 69.6824 100.262 70.1908 100.585 70.7737H100.61V68.8515H97.7201V68.0454H100.61V66.5325H101.899V68.0454H103.028V68.8515H101.887V68.8391ZM100.597 72.7331C100.597 72.5718 100.585 72.3486 100.535 72.1874C100.349 71.3689 99.6423 70.6869 98.675 70.6869C97.3357 70.6869 96.5544 71.865 96.5544 73.4275C96.5544 74.8661 97.2613 76.0566 98.6502 76.0566C99.5183 76.0566 100.312 75.4861 100.548 74.5188C100.597 74.3452 100.61 74.1716 100.61 73.9608V72.7331H100.597Z" fill="black"/>
    <path d="M105.396 67.8468C105.409 68.2809 105.086 68.6405 104.578 68.6405C104.119 68.6405 103.797 68.2933 103.797 67.8468C103.797 67.388 104.132 67.0408 104.603 67.0408C105.086 67.0408 105.396 67.388 105.396 67.8468ZM103.958 76.9369V69.8434H105.248V76.9369H103.958Z" fill="black"/>
    <path d="M108.038 73.6259C108.063 75.3745 109.179 76.0938 110.469 76.0938C111.399 76.0938 111.944 75.9325 112.428 75.7217L112.651 76.6518C112.192 76.8626 111.423 77.0858 110.295 77.0858C108.112 77.0858 106.81 75.6473 106.81 73.5019C106.81 71.3565 108.075 69.6699 110.134 69.6699C112.453 69.6699 113.073 71.7037 113.073 73.0183C113.073 73.2787 113.048 73.4895 113.023 73.6135H108.038V73.6259ZM111.82 72.6958C111.833 71.8774 111.485 70.6 110.034 70.6C108.732 70.6 108.162 71.8029 108.05 72.6958H111.82ZM110.345 66.7681L111.758 68.8639H110.766L109.91 67.4749H109.886L109.055 68.8639H108.088L109.464 66.7681H110.345ZM110.642 78.8592C110.642 79.2685 110.345 79.6157 109.898 79.6157C109.489 79.6157 109.179 79.2685 109.179 78.8592C109.179 78.45 109.501 78.1151 109.923 78.1151C110.332 78.1151 110.642 78.45 110.642 78.8592Z" fill="black"/>
    <path d="M114.586 71.7658C114.586 71.0341 114.573 70.4264 114.524 69.8436H115.665L115.739 71.0217H115.764C116.111 70.352 116.942 69.6824 118.108 69.6824C119.087 69.6824 120.613 70.2652 120.613 72.7083V76.9495H119.323V72.8571C119.323 71.7162 118.901 70.7613 117.686 70.7613C116.83 70.7613 116.173 71.3565 115.95 72.0758C115.888 72.237 115.863 72.4602 115.863 72.6711V76.9371H114.573V71.7658H114.586Z" fill="black"/>
    <path d="M127.247 67.7974V69.8312H129.095V70.8108H127.247V74.6428C127.247 75.5233 127.495 76.0193 128.215 76.0193C128.549 76.0193 128.797 75.9697 128.959 75.9325L129.021 76.8998C128.773 76.999 128.376 77.0734 127.88 77.0734C127.285 77.0734 126.788 76.8874 126.491 76.5278C126.119 76.1434 125.995 75.5109 125.995 74.68V70.8108H124.891V69.8312H125.995V68.1322L127.247 67.7974Z" fill="black"/>
    <path d="M130.472 66.52H131.761V70.9472H131.786C131.997 70.5752 132.319 70.2528 132.704 70.042C133.088 69.8187 133.535 69.6699 134.018 69.6699C134.973 69.6699 136.499 70.2528 136.499 72.7082V76.937H135.221V72.857C135.221 71.7161 134.8 70.7488 133.584 70.7488C132.753 70.7488 132.084 71.3317 131.848 72.0385C131.774 72.2122 131.761 72.4106 131.761 72.6586V76.937H130.472V66.52Z" fill="black"/>
    <path d="M144.969 73.3283C144.969 75.9574 143.146 77.0983 141.434 77.0983C139.512 77.0983 138.036 75.6845 138.036 73.4523C138.036 71.0713 139.587 69.6824 141.558 69.6824C143.592 69.6824 144.969 71.1581 144.969 73.3283ZM139.338 73.4027C139.338 74.9529 140.231 76.131 141.496 76.131C142.724 76.131 143.654 74.9777 143.654 73.3779C143.654 72.175 143.059 70.6497 141.533 70.6497C139.996 70.6497 139.338 72.051 139.338 73.4027Z" fill="black"/>
    <path d="M150.45 76.9371L150.351 76.0442H150.301C149.904 76.6022 149.148 77.0983 148.131 77.0983C146.692 77.0983 145.961 76.0814 145.961 75.0645C145.961 73.3531 147.486 72.4106 150.227 72.423V72.2742C150.227 71.6914 150.066 70.6373 148.615 70.6373C147.957 70.6373 147.263 70.8481 146.767 71.1705L146.469 70.3148C147.052 69.9304 147.908 69.6824 148.801 69.6824C150.971 69.6824 151.504 71.1581 151.504 72.5842V75.2381C151.504 75.8582 151.529 76.4534 151.616 76.9371H150.45ZM150.264 73.3159C148.85 73.2911 147.263 73.5391 147.263 74.9157C147.263 75.7466 147.821 76.1434 148.478 76.1434C149.408 76.1434 149.991 75.5605 150.19 74.9529C150.239 74.8165 150.264 74.6801 150.264 74.5436V73.3159ZM149.718 78.8592C149.718 79.2685 149.421 79.6157 148.974 79.6157C148.565 79.6157 148.255 79.2685 148.255 78.8592C148.255 78.45 148.577 78.1152 148.999 78.1152C149.408 78.1152 149.718 78.45 149.718 78.8592Z" fill="black"/>
    <path d="M154.952 67.8468C154.964 68.2809 154.642 68.6405 154.133 68.6405C153.674 68.6405 153.352 68.2933 153.352 67.8468C153.352 67.388 153.687 67.0408 154.158 67.0408C154.642 67.0408 154.952 67.388 154.952 67.8468ZM153.513 76.9369V69.8434H154.803V76.9369H153.513Z" fill="black"/>
</svg>
