<svg width="57" height="56" viewBox="0 0 57 56" fill="none" xmlns="http://www.w3.org/2000/svg">
    <path d="M16.2734 51.3334H40.7267C47.1667 51.3334 49.7334 47.39 50.0367 42.5834L51.2501 23.31C51.5767 18.27 47.5634 14 42.5001 14C41.0767 14 39.7701 13.1834 39.1167 11.9234L37.4367 8.54002C36.3634 6.41669 33.5634 4.66669 31.1834 4.66669H25.8401C23.4367 4.66669 20.6367 6.41669 19.5634 8.54002L17.8834 11.9234C17.2301 13.1834 15.9234 14 14.5001 14C9.43673 14 5.4234 18.27 5.75007 23.31L6.9634 42.5834C7.2434 47.39 9.8334 51.3334 16.2734 51.3334Z" stroke="#D2353B" stroke-width="1.5" stroke-linecap="round" stroke-linejoin="round"/>
    <path d="M25 18.6667H32" stroke="#D2353B" stroke-width="1.5" stroke-linecap="round" stroke-linejoin="round"/>
    <path d="M28.5003 42C32.677 42 36.0837 38.5933 36.0837 34.4166C36.0837 30.24 32.677 26.8333 28.5003 26.8333C24.3237 26.8333 20.917 30.24 20.917 34.4166C20.917 38.5933 24.3237 42 28.5003 42Z" stroke="#D2353B" stroke-width="1.5" stroke-linecap="round" stroke-linejoin="round"/>
</svg>
