<svg width="67" height="29" viewBox="0 0 67 29" fill="none" xmlns="http://www.w3.org/2000/svg">
    <path d="M4.45433 28.0024C6.83002 28.0024 8.76202 26.0704 8.76202 23.6947C8.76202 23.5612 8.73402 23.4341 8.72218 23.3038L22.4476 16.4417C23.2251 17.5681 24.5228 18.3101 25.9928 18.3101C27.3745 18.3101 28.5914 17.6457 29.3808 16.6312L35.1757 21.598C34.8246 22.2215 34.6082 22.9301 34.6082 23.6947C34.6082 26.0704 36.5402 28.0024 38.9159 28.0024C41.2916 28.0024 43.2236 26.0704 43.2236 23.6947C43.2236 23.5084 43.1913 23.3318 43.1686 23.152L60.3714 7.97383C61.0251 8.37444 61.7865 8.61783 62.6082 8.61783C64.9839 8.61783 66.9159 6.68583 66.9159 4.31013C66.9159 1.93444 64.9839 0.00244141 62.6082 0.00244141C60.2325 0.00244141 58.3005 1.93444 58.3005 4.31013C58.3005 5.08121 58.5202 5.79413 58.8756 6.4209L42.2931 21.0531C41.5037 20.0461 40.2911 19.3871 38.9159 19.3871C38.0877 19.3871 37.3209 19.6326 36.664 20.0397L30.2466 14.5388C30.2682 14.3611 30.3005 14.1855 30.3005 14.0024C30.3005 11.6267 28.3685 9.69475 25.9928 9.69475C23.6171 9.69475 21.6851 11.6267 21.6851 14.0024C21.6851 14.136 21.7131 14.2631 21.7249 14.3934L7.99956 21.2566C7.22202 20.1291 5.92433 19.3871 4.45433 19.3871C2.07864 19.3871 0.146637 21.3191 0.146637 23.6947C0.146637 26.0704 2.07864 28.0024 4.45433 28.0024Z" fill="#D2353B"/>
</svg>
