<svg width="80" height="73" viewBox="0 0 80 73" fill="none" xmlns="http://www.w3.org/2000/svg">
    <path d="M20.136 41.776L18.1895 41.3164L17.7542 43.1602L19.5717 43.6947L20.136 41.776ZM27.624 47.248L25.9416 48.3295L25.9873 48.4005L26.0388 48.4674L27.624 47.248ZM4.296 67.696L2.79085 69.013L2.8347 69.0631L2.88179 69.1102L4.296 67.696ZM0.840001 49.84L-1.10028 49.3549L-1.11609 49.4181L-1.12774 49.4822L0.840001 49.84ZM4.008 40.048L5.88759 40.7315L5.90582 40.6813L5.92135 40.6303L4.008 40.048ZM16.104 0.303986V-1.69601H14.6221L14.1907 -0.278336L16.104 0.303986ZM29.928 0.303986L31.8745 0.763573L32.4552 -1.69601H29.928V0.303986ZM69.096 41.776L67.1495 41.3164L66.7142 43.1602L68.5317 43.6947L69.096 41.776ZM76.584 47.248L74.9016 48.3295L74.9473 48.4005L74.9988 48.4674L76.584 47.248ZM75.144 67.696L76.5582 69.1102L75.144 67.696ZM53.256 67.696L51.7509 69.013L51.7947 69.0631L51.8418 69.1102L53.256 67.696ZM49.8 49.84L47.8597 49.3549L47.8439 49.4181L47.8323 49.4822L49.8 49.84ZM52.968 40.048L54.8476 40.7315L54.8658 40.6813L54.8814 40.6303L52.968 40.048ZM65.064 0.303986V-1.69601H63.5821L63.1507 -0.278336L65.064 0.303986ZM78.888 0.303986L80.8345 0.763573L81.4152 -1.69601H78.888V0.303986ZM19.5717 43.6947C22.4069 44.5286 24.4913 46.0734 25.9416 48.3295L29.3064 46.1665C27.3007 43.0466 24.3931 40.9434 20.7003 39.8573L19.5717 43.6947ZM26.0388 48.4674C27.6485 50.5601 28.504 53.1842 28.504 56.464H32.504C32.504 52.4478 31.4395 48.9279 29.2092 46.0286L26.0388 48.4674ZM28.504 56.464C28.504 60.6175 27.2242 63.8273 24.7698 66.2818L27.5982 69.1102C30.9038 65.8047 32.504 61.5265 32.504 56.464H28.504ZM24.7698 66.2818C22.2801 68.7715 19.2435 70.016 15.528 70.016V74.016C20.2605 74.016 24.3279 72.3805 27.5982 69.1102L24.7698 66.2818ZM15.528 70.016C11.3745 70.016 8.16466 68.7362 5.71021 66.2818L2.88179 69.1102C6.18735 72.4158 10.4655 74.016 15.528 74.016V70.016ZM5.80116 66.379C3.45932 63.7026 2.264 60.4384 2.264 56.464H-1.736C-1.736 61.3215 -0.24332 65.5454 2.79085 69.013L5.80116 66.379ZM2.264 56.464C2.264 54.2713 2.4467 52.1835 2.80774 50.1978L-1.12774 49.4822C-1.5347 51.7205 -1.736 54.0487 -1.736 56.464H2.264ZM2.78028 50.3251C3.33072 48.1233 4.35836 44.9369 5.88759 40.7315L2.12841 39.3645C0.585642 43.6071 -0.49872 46.9487 -1.10028 49.3549L2.78028 50.3251ZM5.92135 40.6303L18.0173 0.886314L14.1907 -0.278336L2.09465 39.4657L5.92135 40.6303ZM16.104 2.30399H29.928V-1.69601H16.104V2.30399ZM27.9815 -0.155602L18.1895 41.3164L22.0825 42.2356L31.8745 0.763573L27.9815 -0.155602ZM68.5317 43.6947C71.3669 44.5286 73.4513 46.0734 74.9016 48.3295L78.2664 46.1665C76.2607 43.0466 73.3531 40.9434 69.6603 39.8573L68.5317 43.6947ZM74.9988 48.4674C76.6085 50.5601 77.464 53.1842 77.464 56.464H81.464C81.464 52.4478 80.3995 48.9279 78.1693 46.0286L74.9988 48.4674ZM77.464 56.464C77.464 60.6175 76.1842 63.8273 73.7298 66.2818L76.5582 69.1102C79.8638 65.8047 81.464 61.5265 81.464 56.464H77.464ZM73.7298 66.2818C71.2401 68.7715 68.2035 70.016 64.488 70.016V74.016C69.2205 74.016 73.2879 72.3805 76.5582 69.1102L73.7298 66.2818ZM64.488 70.016C60.3345 70.016 57.1247 68.7362 54.6702 66.2818L51.8418 69.1102C55.1473 72.4158 59.4255 74.016 64.488 74.016V70.016ZM54.7612 66.379C52.4193 63.7026 51.224 60.4384 51.224 56.464H47.224C47.224 61.3215 48.7167 65.5454 51.7509 69.013L54.7612 66.379ZM51.224 56.464C51.224 54.2713 51.4067 52.1835 51.7677 50.1978L47.8323 49.4822C47.4253 51.7205 47.224 54.0487 47.224 56.464H51.224ZM51.7403 50.3251C52.2907 48.1233 53.3184 44.9369 54.8476 40.7315L51.0884 39.3645C49.5456 43.6071 48.4613 46.9487 47.8597 49.3549L51.7403 50.3251ZM54.8814 40.6303L66.9774 0.886314L63.1507 -0.278336L51.0547 39.4657L54.8814 40.6303ZM65.064 2.30399H78.888V-1.69601H65.064V2.30399ZM76.9415 -0.155594L67.1495 41.3164L71.0425 42.2356L80.8345 0.763573L76.9415 -0.155594Z" fill="#D2353B"/>
</svg>
