<svg width="18" height="18" viewBox="0 0 18 18" fill="none" xmlns="http://www.w3.org/2000/svg">
    <path d="M17.6973 16.7427L13.7909 12.8363C14.9898 11.4691 15.6514 9.73917 15.6514 7.90381C15.6514 5.90039 14.8711 4.01709 13.4546 2.60059C12.0381 1.18408 10.1548 0.403809 8.15137 0.403809C6.14795 0.403809 4.26465 1.18408 2.84814 2.60059C1.43164 4.01709 0.651367 5.90039 0.651367 7.90381C0.651367 9.90723 1.43164 11.7905 2.84814 13.207C4.26465 14.6235 6.14795 15.4038 8.15137 15.4038C9.98672 15.4038 11.7167 14.7423 13.0839 13.5433L16.9902 17.4497C17.0879 17.5474 17.2158 17.5962 17.3438 17.5962C17.4717 17.5962 17.5996 17.5474 17.6973 17.4497C17.8926 17.2544 17.8926 16.938 17.6973 16.7427ZM3.55518 12.5C2.32764 11.2722 1.65137 9.63989 1.65137 7.90381C1.65137 6.16772 2.32764 4.5354 3.55518 3.30762C4.78296 2.08008 6.41528 1.40381 8.15137 1.40381C9.88745 1.40381 11.5198 2.08008 12.7476 3.30762C13.9751 4.5354 14.6514 6.16772 14.6514 7.90381C14.6514 9.63989 13.9751 11.2722 12.7476 12.5C11.5198 13.7275 9.88745 14.4038 8.15137 14.4038C6.41528 14.4038 4.78296 13.7275 3.55518 12.5Z" fill="#999999"/>
</svg>
