<svg width="19" height="20" viewBox="0 0 19 20" fill="none" xmlns="http://www.w3.org/2000/svg">
    <path opacity="0.3" d="M9.4228 0.792236C6.51316 0.792236 4.13309 3.17401 4.13309 6.08365C4.13309 7.86277 5.02559 9.43825 6.38244 10.3968C3.22397 11.663 0.983673 14.7521 0.983673 18.3558C0.958458 19.4918 2.67556 19.4918 2.65034 18.3558C2.65034 14.5307 5.73447 11.4482 9.55952 11.4482C10.8947 11.4482 12.1341 11.8288 13.1891 12.4817C14.1374 13.0633 15.0098 11.6408 14.0615 11.0592C13.5865 10.7654 13.0718 10.5362 12.5413 10.3381C13.8511 9.3747 14.7076 7.8274 14.7076 6.08365C14.7076 3.17401 12.3324 0.792236 9.4228 0.792236ZM9.4228 2.46056C11.4317 2.46056 13.041 4.07473 13.041 6.08365C13.041 8.09256 11.4317 9.7001 9.4228 9.7001C7.41389 9.7001 5.79975 8.09256 5.79975 6.08365C5.79975 4.07473 7.41389 2.46056 9.4228 2.46056ZM14.5351 16.6402V18.3069C14.5592 19.3936 16.1777 19.3936 16.2018 18.3069V16.6402H17.8701C18.9823 16.6402 18.9823 14.972 17.8701 14.972H16.2018V13.3053C16.2072 12.8381 15.8275 12.4576 15.3603 12.4622C14.8994 12.4653 14.5297 12.8445 14.5351 13.3053V14.972H12.8286C11.6765 15.0252 11.7562 16.6934 12.8684 16.6402H14.5351Z" fill="#999999"/>
</svg>
